{"glyphs":{"0":{"ha":925,"x_min":44,"x_max":881,"o":"m 464 -15 q 250 49 346 -15 q 99 227 154 113 q 44 492 44 342 q 99 756 44 643 q 247 933 153 869 q 461 996 342 996 q 676 933 582 996 q 826 756 771 869 q 881 490 881 642 q 826 225 881 339 q 677 48 771 111 q 464 -15 583 -15 m 463 178 q 568 213 524 178 q 637 319 613 249 q 661 490 661 389 q 637 663 661 593 q 568 767 613 732 q 461 803 524 803 q 356 768 401 803 q 288 664 311 733 q 264 492 264 594 q 288 319 264 389 q 356 214 311 250 q 463 178 401 178 z "},"1":{"ha":525,"x_min":28,"x_max":433,"o":"m 217 0 l 217 981 l 433 981 l 433 0 l 217 0 m 28 796 l 28 981 l 419 981 l 419 796 l 28 796 z "},"2":{"ha":783,"x_min":32,"x_max":739,"o":"m 33 122 l 410 511 q 465 575 444 546 q 496 630 486 604 q 506 682 506 656 q 469 772 506 739 q 372 804 432 804 q 267 773 314 804 q 178 671 221 742 l 32 797 q 181 946 90 896 q 388 996 271 996 q 563 958 489 996 q 678 851 638 921 q 719 689 719 782 q 704 581 719 631 q 655 484 689 532 q 564 379 621 436 l 303 119 l 33 122 m 33 0 l 33 122 l 218 186 l 739 186 l 739 0 l 33 0 z "},"3":{"ha":776,"x_min":22,"x_max":733,"o":"m 351 -15 q 165 20 250 -15 q 22 122 81 56 l 163 263 q 240 199 189 224 q 347 175 290 175 q 436 193 399 175 q 495 244 474 211 q 517 324 517 278 q 495 402 517 369 q 433 453 474 435 q 335 471 392 471 q 280 467 308 471 q 232 457 251 464 l 328 578 q 402 597 367 589 q 468 604 438 604 q 603 569 543 604 q 698 469 663 533 q 733 315 733 404 q 685 143 733 218 q 552 26 638 68 q 351 -15 467 -15 m 232 457 l 232 578 l 471 858 l 715 860 l 467 576 l 232 457 m 83 796 l 83 981 l 715 981 l 715 860 l 544 796 l 83 796 z "},"4":{"ha":846,"x_min":29,"x_max":815,"o":"m 29 340 l 351 981 l 589 981 l 260 340 l 29 340 m 29 218 l 29 340 l 101 403 l 815 403 l 815 218 l 29 218 m 492 0 l 492 607 l 706 607 l 706 0 l 492 0 z "},"5":{"ha":778,"x_min":17,"x_max":738,"o":"m 353 -15 q 163 20 251 -15 q 17 122 75 56 l 158 263 q 235 199 185 224 q 346 175 286 175 q 438 194 399 175 q 499 248 476 213 q 521 331 521 283 q 499 414 521 379 q 437 467 476 449 q 347 486 397 486 q 256 473 297 486 q 179 433 214 460 l 197 572 q 258 613 229 597 q 322 638 288 629 q 404 646 357 646 q 587 601 513 646 q 699 483 661 557 q 738 321 738 410 q 690 147 738 224 q 556 28 642 71 q 353 -15 469 -15 m 179 433 l 85 521 l 132 981 l 329 981 l 278 525 l 179 433 m 161 796 l 132 981 l 683 981 l 683 796 l 161 796 z "},"6":{"ha":796,"x_min":35,"x_max":763,"o":"m 399 -15 q 213 31 296 -15 q 83 153 131 76 q 35 326 35 231 q 122 579 35 451 l 399 981 l 644 981 l 338 553 l 256 546 q 297 603 275 579 q 351 641 318 628 q 436 654 385 654 q 601 612 528 654 q 718 497 674 569 q 763 329 763 424 q 714 155 763 233 q 583 31 665 76 q 399 -15 501 -15 m 399 175 q 476 196 442 175 q 531 253 511 217 q 550 333 550 289 q 531 415 550 379 q 476 470 511 450 q 399 490 442 490 q 320 470 354 490 q 267 415 286 450 q 247 333 247 379 q 267 253 247 289 q 320 196 286 217 q 399 175 354 175 z "},"7":{"ha":732,"x_min":28,"x_max":704,"o":"m 158 0 l 492 858 l 704 858 l 383 0 l 158 0 m 28 796 l 28 981 l 704 981 l 704 858 l 632 796 l 28 796 z "},"8":{"ha":781,"x_min":40,"x_max":740,"o":"m 390 -15 q 206 22 285 -15 q 84 125 128 60 q 40 274 40 190 q 67 399 40 343 q 144 492 94 454 q 258 543 193 529 l 254 499 q 160 545 199 511 q 100 628 121 579 q 79 729 79 676 q 119 867 79 807 q 229 963 158 928 q 390 997 300 997 q 552 963 482 997 q 662 867 622 928 q 701 729 701 807 q 681 628 701 676 q 622 545 661 579 q 528 499 583 511 l 522 543 q 638 492 589 529 q 714 399 688 454 q 740 274 740 343 q 697 125 740 190 q 576 22 654 60 q 390 -15 497 -15 m 390 171 q 464 188 432 171 q 515 236 496 206 q 533 304 533 267 q 515 373 533 343 q 464 420 496 403 q 390 438 432 438 q 317 420 349 438 q 267 373 285 403 q 249 304 249 343 q 267 236 249 267 q 317 188 285 206 q 390 171 349 171 m 390 596 q 470 627 439 596 q 501 706 501 658 q 470 785 501 754 q 390 817 439 817 q 311 786 343 817 q 279 707 279 756 q 311 628 279 660 q 390 596 343 596 z "},"9":{"ha":796,"x_min":35,"x_max":761,"o":"m 151 0 l 460 429 l 540 435 q 501 378 522 403 q 447 341 479 354 q 360 328 414 328 q 197 370 271 328 q 78 485 122 413 q 35 651 35 558 q 83 826 35 749 q 214 950 132 904 q 399 996 296 996 q 583 951 501 996 q 713 828 665 906 q 761 654 761 751 q 675 403 761 529 l 399 0 l 151 0 m 399 490 q 476 511 442 490 q 531 567 511 532 q 550 647 550 603 q 531 729 550 693 q 476 785 511 765 q 399 806 442 806 q 320 785 354 806 q 266 729 286 765 q 246 647 246 693 q 266 567 246 603 q 321 511 286 532 q 399 490 356 490 z "},"A":{"ha":1013,"x_min":21,"x_max":992,"o":"m 21 0 l 410 981 l 607 981 l 992 0 l 761 0 l 467 814 l 546 814 l 247 0 l 21 0 m 242 178 l 242 356 l 776 356 l 776 178 l 242 178 z "},"Á":{"ha":1013,"x_min":21,"x_max":992,"o":"m 21 0 l 410 981 l 607 981 l 992 0 l 761 0 l 467 814 l 546 814 l 247 0 l 21 0 m 242 178 l 242 356 l 776 356 l 776 178 l 242 178 m 407 1057 l 338 1158 l 558 1365 l 675 1201 l 407 1057 z "},"Ă":{"ha":1013,"x_min":21,"x_max":992,"o":"m 21 0 l 410 981 l 607 981 l 992 0 l 761 0 l 467 814 l 546 814 l 247 0 l 21 0 m 242 178 l 242 356 l 776 356 l 776 178 l 242 178 m 769 1307 q 735 1174 769 1233 q 641 1081 700 1115 q 507 1046 582 1046 q 372 1081 432 1046 q 277 1174 313 1115 q 242 1307 242 1233 l 408 1307 q 435 1235 408 1264 q 508 1206 463 1206 q 557 1219 536 1206 q 591 1255 578 1232 q 604 1307 604 1278 l 769 1307 z "},"Ǎ":{"ha":1013,"x_min":21,"x_max":992,"o":"m 21 0 l 410 981 l 607 981 l 992 0 l 761 0 l 467 814 l 546 814 l 247 0 l 21 0 m 242 178 l 242 356 l 776 356 l 776 178 l 242 178 m 700 1344 l 769 1253 l 567 1051 l 444 1051 l 242 1253 l 311 1344 l 586 1175 l 425 1176 l 700 1344 z "},"Â":{"ha":1013,"x_min":21,"x_max":992,"o":"m 21 0 l 410 981 l 607 981 l 992 0 l 761 0 l 467 814 l 546 814 l 247 0 l 21 0 m 242 178 l 242 356 l 776 356 l 776 178 l 242 178 m 311 1051 l 242 1143 l 444 1344 l 567 1344 l 769 1143 l 700 1051 l 426 1221 l 588 1221 l 311 1051 z "},"Ä":{"ha":1013,"x_min":21,"x_max":992,"o":"m 21 0 l 410 981 l 607 981 l 992 0 l 761 0 l 467 814 l 546 814 l 247 0 l 21 0 m 242 178 l 242 356 l 776 356 l 776 178 l 242 178 m 354 1067 q 272 1101 304 1067 q 239 1183 239 1135 q 272 1267 239 1233 q 354 1300 304 1300 q 436 1267 404 1300 q 468 1183 468 1233 q 436 1101 468 1135 q 354 1067 404 1067 m 660 1067 q 577 1101 610 1067 q 544 1183 544 1135 q 577 1267 544 1233 q 660 1300 610 1300 q 742 1267 710 1300 q 774 1183 774 1233 q 742 1101 774 1135 q 660 1067 710 1067 z "},"À":{"ha":1013,"x_min":21,"x_max":992,"o":"m 21 0 l 410 981 l 607 981 l 992 0 l 761 0 l 467 814 l 546 814 l 247 0 l 21 0 m 242 178 l 242 356 l 776 356 l 776 178 l 242 178 m 581 1057 l 313 1201 l 429 1365 l 650 1158 l 581 1057 z "},"Ā":{"ha":1013,"x_min":21,"x_max":992,"o":"m 21 0 l 410 981 l 607 981 l 992 0 l 761 0 l 467 814 l 546 814 l 247 0 l 21 0 m 242 178 l 242 356 l 776 356 l 776 178 l 242 178 m 240 1264 l 774 1264 l 774 1107 l 240 1107 l 240 1264 z "},"Ą":{"ha":1013,"x_min":21,"x_max":1028,"o":"m 21 0 l 410 981 l 607 981 l 992 0 l 761 0 l 467 814 l 546 814 l 247 0 l 21 0 m 242 178 l 242 356 l 776 356 l 776 178 l 242 178 m 885 -299 q 741 -260 797 -299 q 685 -144 685 -222 q 733 -23 685 -72 q 864 44 782 26 l 992 0 q 906 -48 938 -19 q 875 -118 875 -76 q 888 -156 875 -142 q 926 -169 901 -169 q 957 -164 943 -169 q 983 -151 971 -158 l 1028 -262 q 966 -288 1001 -278 q 885 -299 931 -299 z "},"Å":{"ha":1013,"x_min":21,"x_max":992,"o":"m 21 0 l 410 981 l 607 981 l 992 0 l 761 0 l 467 814 l 546 814 l 247 0 l 21 0 m 242 178 l 242 356 l 776 356 l 776 178 l 242 178 m 507 914 q 413 938 454 914 q 348 1001 372 961 q 324 1093 324 1042 q 348 1185 324 1144 q 413 1249 372 1225 q 507 1274 454 1274 q 599 1249 558 1274 q 664 1185 640 1225 q 688 1093 688 1144 q 664 1001 688 1042 q 599 938 640 961 q 507 914 558 914 m 507 1031 q 549 1049 532 1031 q 567 1093 567 1067 q 549 1138 567 1121 q 507 1156 532 1156 q 463 1138 479 1156 q 446 1093 446 1119 q 463 1049 446 1067 q 507 1031 479 1031 z "},"Ã":{"ha":1013,"x_min":21,"x_max":992,"o":"m 21 0 l 410 981 l 607 981 l 992 0 l 761 0 l 467 814 l 546 814 l 247 0 l 21 0 m 242 178 l 242 356 l 776 356 l 776 178 l 242 178 m 608 1058 q 531 1074 564 1058 q 472 1104 499 1089 q 413 1119 444 1119 q 358 1106 381 1119 q 317 1067 336 1093 l 215 1167 q 301 1256 256 1226 q 406 1285 346 1285 q 483 1269 450 1285 q 543 1238 515 1254 q 601 1222 571 1222 q 657 1235 635 1222 q 697 1276 679 1249 l 799 1175 q 713 1088 758 1117 q 608 1058 668 1058 z "},"Æ":{"ha":1381,"x_min":21,"x_max":1326,"o":"m 21 0 l 410 981 l 761 981 l 761 793 l 540 793 l 247 0 l 21 0 m 242 282 l 242 460 l 749 460 l 749 282 l 242 282 m 828 0 l 828 189 l 1326 189 l 1326 0 l 828 0 m 660 0 l 660 981 l 879 981 l 879 0 l 660 0 m 828 410 l 828 592 l 1276 592 l 1276 410 l 828 410 m 828 793 l 828 981 l 1318 981 l 1318 793 l 828 793 z "},"B":{"ha":890,"x_min":94,"x_max":844,"o":"m 261 0 l 261 169 l 492 169 q 592 207 556 169 q 628 299 628 244 q 611 365 628 336 q 565 411 594 394 q 492 428 535 428 l 261 428 l 261 593 l 474 593 q 561 620 528 593 q 594 703 594 647 q 561 784 594 757 q 474 811 528 811 l 261 811 l 261 981 l 515 981 q 676 946 610 981 q 776 853 742 911 q 811 724 811 794 q 753 571 811 633 q 581 485 694 508 l 586 558 q 777 463 710 535 q 844 285 844 390 q 805 140 844 204 q 691 38 765 75 q 513 0 617 0 l 261 0 m 94 0 l 94 981 l 310 981 l 310 0 l 94 0 z "},"C":{"ha":957,"x_min":44,"x_max":932,"o":"m 560 -15 q 356 23 450 -15 q 192 131 263 61 q 83 292 122 200 q 44 492 44 385 q 83 691 44 599 q 192 851 122 783 q 355 958 261 919 q 558 996 449 996 q 766 958 675 996 q 925 856 857 921 l 779 708 q 685 774 740 750 q 558 797 631 797 q 441 776 494 797 q 349 714 388 754 q 290 617 311 674 q 268 492 268 560 q 290 365 268 422 q 349 268 311 308 q 441 206 388 228 q 558 183 494 183 q 689 207 633 183 q 785 272 744 231 l 932 125 q 770 22 861 60 q 560 -15 679 -15 z "},"Ć":{"ha":957,"x_min":44,"x_max":932,"o":"m 560 -15 q 356 23 450 -15 q 192 131 263 61 q 83 292 122 200 q 44 492 44 385 q 83 691 44 599 q 192 851 122 783 q 355 958 261 919 q 558 996 449 996 q 766 958 675 996 q 925 856 857 921 l 779 708 q 685 774 740 750 q 558 797 631 797 q 441 776 494 797 q 349 714 388 754 q 290 617 311 674 q 268 492 268 560 q 290 365 268 422 q 349 268 311 308 q 441 206 388 228 q 558 183 494 183 q 689 207 633 183 q 785 272 744 231 l 932 125 q 770 22 861 60 q 560 -15 679 -15 m 440 1057 l 371 1158 l 592 1365 l 708 1201 l 440 1057 z "},"Č":{"ha":957,"x_min":44,"x_max":932,"o":"m 560 -15 q 356 23 450 -15 q 192 131 263 61 q 83 292 122 200 q 44 492 44 385 q 83 691 44 599 q 192 851 122 783 q 355 958 261 919 q 558 996 449 996 q 766 958 675 996 q 925 856 857 921 l 779 708 q 685 774 740 750 q 558 797 631 797 q 441 776 494 797 q 349 714 388 754 q 290 617 311 674 q 268 492 268 560 q 290 365 268 422 q 349 268 311 308 q 441 206 388 228 q 558 183 494 183 q 689 207 633 183 q 785 272 744 231 l 932 125 q 770 22 861 60 q 560 -15 679 -15 m 733 1344 l 803 1253 l 600 1051 l 478 1051 l 275 1253 l 344 1344 l 619 1175 l 458 1176 l 733 1344 z "},"Ç":{"ha":957,"x_min":44,"x_max":932,"o":"m 560 -15 q 356 23 450 -15 q 192 131 263 61 q 83 292 122 200 q 44 492 44 385 q 83 691 44 599 q 192 851 122 783 q 355 958 261 919 q 558 996 449 996 q 766 958 675 996 q 925 856 857 921 l 779 708 q 685 774 740 750 q 558 797 631 797 q 441 776 494 797 q 349 714 388 754 q 290 617 311 674 q 268 492 268 560 q 290 365 268 422 q 349 268 311 308 q 441 206 388 228 q 558 183 494 183 q 689 207 633 183 q 785 272 744 231 l 932 125 q 770 22 861 60 q 560 -15 679 -15 m 494 -299 q 399 -285 439 -299 q 321 -249 360 -272 l 386 -162 q 426 -184 404 -176 q 474 -192 447 -192 q 515 -183 503 -192 q 528 -161 528 -174 q 513 -139 528 -149 q 465 -129 497 -129 l 421 -129 l 468 18 l 588 18 l 551 -83 l 490 -35 q 633 -70 582 -33 q 683 -167 683 -107 q 632 -260 683 -222 q 494 -299 581 -299 z "},"Ċ":{"ha":957,"x_min":44,"x_max":932,"o":"m 560 -15 q 356 23 450 -15 q 192 131 263 61 q 83 292 122 200 q 44 492 44 385 q 83 691 44 599 q 192 851 122 783 q 355 958 261 919 q 558 996 449 996 q 766 958 675 996 q 925 856 857 921 l 779 708 q 685 774 740 750 q 558 797 631 797 q 441 776 494 797 q 349 714 388 754 q 290 617 311 674 q 268 492 268 560 q 290 365 268 422 q 349 268 311 308 q 441 206 388 228 q 558 183 494 183 q 689 207 633 183 q 785 272 744 231 l 932 125 q 770 22 861 60 q 560 -15 679 -15 m 540 1067 q 458 1101 490 1067 q 425 1183 425 1135 q 458 1267 425 1233 q 540 1300 490 1300 q 622 1267 590 1300 q 654 1183 654 1233 q 622 1101 654 1135 q 540 1067 590 1067 z "},"D":{"ha":1047,"x_min":94,"x_max":1003,"o":"m 242 0 l 242 192 l 485 192 q 640 227 574 192 q 743 331 707 263 q 779 492 779 399 q 742 651 779 585 q 640 754 706 718 q 485 790 574 790 l 235 790 l 235 981 l 488 981 q 692 945 599 981 q 856 844 786 910 q 965 688 926 778 q 1003 490 1003 599 q 965 293 1003 383 q 857 138 926 203 q 694 36 788 72 q 490 0 600 0 l 242 0 m 94 0 l 94 981 l 313 981 l 313 0 l 94 0 z "},"Ð":{"ha":1075,"x_min":29,"x_max":1031,"o":"m 29 576 l 563 576 l 563 410 l 29 410 l 29 576 m 269 0 l 269 192 l 513 192 q 668 227 601 192 q 771 331 735 263 q 807 492 807 399 q 770 651 807 585 q 667 754 733 718 q 513 790 601 790 l 263 790 l 263 981 l 515 981 q 720 945 626 981 q 884 844 814 910 q 992 688 954 778 q 1031 490 1031 599 q 992 293 1031 383 q 885 138 954 203 q 722 36 815 72 q 518 0 628 0 l 269 0 m 122 0 l 122 981 l 340 981 l 340 0 l 122 0 z "},"Ď":{"ha":1047,"x_min":94,"x_max":1003,"o":"m 242 0 l 242 192 l 485 192 q 640 227 574 192 q 743 331 707 263 q 779 492 779 399 q 742 651 779 585 q 640 754 706 718 q 485 790 574 790 l 235 790 l 235 981 l 488 981 q 692 945 599 981 q 856 844 786 910 q 965 688 926 778 q 1003 490 1003 599 q 965 293 1003 383 q 857 138 926 203 q 694 36 788 72 q 490 0 600 0 l 242 0 m 94 0 l 94 981 l 313 981 l 313 0 l 94 0 m 681 1344 l 750 1253 l 547 1051 l 425 1051 l 222 1253 l 292 1344 l 567 1175 l 406 1176 l 681 1344 z "},"Đ":{"ha":1083,"x_min":0,"x_max":1039,"o":"m 0 404 l 0 576 l 639 576 l 639 404 l 0 404 m 278 0 l 278 192 l 521 192 q 676 227 610 192 q 779 331 743 263 q 815 492 815 399 q 778 651 815 585 q 676 754 742 718 q 521 790 610 790 l 271 790 l 271 981 l 524 981 q 728 945 635 981 q 892 844 822 910 q 1001 688 963 778 q 1039 490 1039 599 q 1001 293 1039 383 q 893 138 963 203 q 730 36 824 72 q 526 0 636 0 l 278 0 m 131 0 l 131 981 l 349 981 l 349 0 l 131 0 z "},"E":{"ha":854,"x_min":94,"x_max":799,"o":"m 94 0 l 94 981 l 313 981 l 313 0 l 94 0 m 261 0 l 261 189 l 799 189 l 799 0 l 261 0 m 261 410 l 261 592 l 750 592 l 750 410 l 261 410 m 261 793 l 261 981 l 792 981 l 792 793 l 261 793 z "},"É":{"ha":854,"x_min":94,"x_max":799,"o":"m 94 0 l 94 981 l 313 981 l 313 0 l 94 0 m 261 0 l 261 189 l 799 189 l 799 0 l 261 0 m 261 410 l 261 592 l 750 592 l 750 410 l 261 410 m 261 793 l 261 981 l 792 981 l 792 793 l 261 793 m 356 1057 l 286 1158 l 507 1365 l 624 1201 l 356 1057 z "},"Ě":{"ha":854,"x_min":94,"x_max":799,"o":"m 94 0 l 94 981 l 313 981 l 313 0 l 94 0 m 261 0 l 261 189 l 799 189 l 799 0 l 261 0 m 261 410 l 261 592 l 750 592 l 750 410 l 261 410 m 261 793 l 261 981 l 792 981 l 792 793 l 261 793 m 649 1344 l 718 1253 l 515 1051 l 393 1051 l 190 1253 l 260 1344 l 535 1175 l 374 1176 l 649 1344 z "},"Ê":{"ha":854,"x_min":94,"x_max":799,"o":"m 94 0 l 94 981 l 313 981 l 313 0 l 94 0 m 261 0 l 261 189 l 799 189 l 799 0 l 261 0 m 261 410 l 261 592 l 750 592 l 750 410 l 261 410 m 261 793 l 261 981 l 792 981 l 792 793 l 261 793 m 260 1051 l 190 1143 l 393 1344 l 515 1344 l 718 1143 l 649 1051 l 375 1221 l 536 1221 l 260 1051 z "},"Ë":{"ha":854,"x_min":94,"x_max":799,"o":"m 94 0 l 94 981 l 313 981 l 313 0 l 94 0 m 261 0 l 261 189 l 799 189 l 799 0 l 261 0 m 261 410 l 261 592 l 750 592 l 750 410 l 261 410 m 261 793 l 261 981 l 792 981 l 792 793 l 261 793 m 303 1067 q 220 1101 253 1067 q 188 1183 188 1135 q 220 1267 188 1233 q 303 1300 253 1300 q 385 1267 353 1300 q 417 1183 417 1233 q 385 1101 417 1135 q 303 1067 353 1067 m 608 1067 q 526 1101 558 1067 q 493 1183 493 1135 q 526 1267 493 1233 q 608 1300 558 1300 q 690 1267 658 1300 q 722 1183 722 1233 q 690 1101 722 1135 q 608 1067 658 1067 z "},"Ė":{"ha":854,"x_min":94,"x_max":799,"o":"m 94 0 l 94 981 l 313 981 l 313 0 l 94 0 m 261 0 l 261 189 l 799 189 l 799 0 l 261 0 m 261 410 l 261 592 l 750 592 l 750 410 l 261 410 m 261 793 l 261 981 l 792 981 l 792 793 l 261 793 m 456 1067 q 373 1101 406 1067 q 340 1183 340 1135 q 373 1267 340 1233 q 456 1300 406 1300 q 538 1267 506 1300 q 569 1183 569 1233 q 538 1101 569 1135 q 456 1067 506 1067 z "},"È":{"ha":854,"x_min":94,"x_max":799,"o":"m 94 0 l 94 981 l 313 981 l 313 0 l 94 0 m 261 0 l 261 189 l 799 189 l 799 0 l 261 0 m 261 410 l 261 592 l 750 592 l 750 410 l 261 410 m 261 793 l 261 981 l 792 981 l 792 793 l 261 793 m 529 1057 l 261 1201 l 378 1365 l 599 1158 l 529 1057 z "},"Ē":{"ha":854,"x_min":94,"x_max":799,"o":"m 94 0 l 94 981 l 313 981 l 313 0 l 94 0 m 261 0 l 261 189 l 799 189 l 799 0 l 261 0 m 261 410 l 261 592 l 750 592 l 750 410 l 261 410 m 261 793 l 261 981 l 792 981 l 792 793 l 261 793 m 189 1264 l 722 1264 l 722 1107 l 189 1107 l 189 1264 z "},"Ę":{"ha":854,"x_min":94,"x_max":835,"o":"m 94 0 l 94 981 l 313 981 l 313 0 l 94 0 m 261 0 l 261 189 l 799 189 l 799 0 l 261 0 m 261 410 l 261 592 l 750 592 l 750 410 l 261 410 m 261 793 l 261 981 l 792 981 l 792 793 l 261 793 m 692 -299 q 548 -260 604 -299 q 492 -144 492 -222 q 540 -23 492 -72 q 671 44 589 26 l 799 0 q 713 -48 744 -19 q 682 -118 682 -76 q 695 -156 682 -142 q 733 -169 708 -169 q 764 -164 750 -169 q 790 -151 778 -158 l 835 -262 q 773 -288 808 -278 q 692 -299 738 -299 z "},"F":{"ha":819,"x_min":94,"x_max":774,"o":"m 94 0 l 94 981 l 313 981 l 313 0 l 94 0 m 261 385 l 261 572 l 751 572 l 751 385 l 261 385 m 261 793 l 261 981 l 774 981 l 774 793 l 261 793 z "},"G":{"ha":1090,"x_min":44,"x_max":1053,"o":"m 557 -15 q 356 24 450 -15 q 193 131 263 63 q 84 292 124 200 q 44 492 44 385 q 85 690 44 599 q 197 851 125 782 q 364 958 268 919 q 569 996 460 996 q 799 950 696 996 q 971 824 903 904 l 822 675 q 711 767 775 736 q 567 797 647 797 q 413 759 481 797 q 306 652 344 721 q 268 492 268 583 q 306 331 268 400 q 408 222 343 261 q 558 183 474 183 q 705 216 644 183 q 798 310 765 249 q 831 461 831 372 l 975 364 l 538 371 l 538 556 l 1053 556 l 1053 524 q 990 227 1053 347 q 815 46 926 107 q 557 -15 703 -15 z "},"Ğ":{"ha":1090,"x_min":44,"x_max":1053,"o":"m 557 -15 q 356 24 450 -15 q 193 131 263 63 q 84 292 124 200 q 44 492 44 385 q 85 690 44 599 q 197 851 125 782 q 364 958 268 919 q 569 996 460 996 q 799 950 696 996 q 971 824 903 904 l 822 675 q 711 767 775 736 q 567 797 647 797 q 413 759 481 797 q 306 652 344 721 q 268 492 268 583 q 306 331 268 400 q 408 222 343 261 q 558 183 474 183 q 705 216 644 183 q 798 310 765 249 q 831 461 831 372 l 975 364 l 538 371 l 538 556 l 1053 556 l 1053 524 q 990 227 1053 347 q 815 46 926 107 q 557 -15 703 -15 m 824 1307 q 789 1174 824 1233 q 695 1081 754 1115 q 561 1046 636 1046 q 426 1081 486 1046 q 331 1174 367 1115 q 296 1307 296 1233 l 463 1307 q 490 1235 463 1264 q 563 1206 517 1206 q 611 1219 590 1206 q 645 1255 632 1232 q 658 1307 658 1278 l 824 1307 z "},"Ģ":{"ha":1090,"x_min":44,"x_max":1053,"o":"m 557 -15 q 356 24 450 -15 q 193 131 263 63 q 84 292 124 200 q 44 492 44 385 q 85 690 44 599 q 197 851 125 782 q 364 958 268 919 q 569 996 460 996 q 799 950 696 996 q 971 824 903 904 l 822 675 q 711 767 775 736 q 567 797 647 797 q 413 759 481 797 q 306 652 344 721 q 268 492 268 583 q 306 331 268 400 q 408 222 343 261 q 558 183 474 183 q 705 216 644 183 q 798 310 765 249 q 831 461 831 372 l 975 364 l 538 371 l 538 556 l 1053 556 l 1053 524 q 990 227 1053 347 q 815 46 926 107 q 557 -15 703 -15 m 493 -551 l 400 -481 l 525 -308 l 590 -301 q 562 -331 578 -319 q 528 -339 546 -342 q 462 -295 489 -333 q 442 -207 435 -257 q 492 -122 450 -154 q 588 -99 533 -90 q 669 -150 638 -107 q 692 -247 701 -193 q 676 -296 689 -268 q 631 -365 663 -324 l 493 -551 z "},"Ġ":{"ha":1090,"x_min":44,"x_max":1053,"o":"m 557 -15 q 356 24 450 -15 q 193 131 263 63 q 84 292 124 200 q 44 492 44 385 q 85 690 44 599 q 197 851 125 782 q 364 958 268 919 q 569 996 460 996 q 799 950 696 996 q 971 824 903 904 l 822 675 q 711 767 775 736 q 567 797 647 797 q 413 759 481 797 q 306 652 344 721 q 268 492 268 583 q 306 331 268 400 q 408 222 343 261 q 558 183 474 183 q 705 216 644 183 q 798 310 765 249 q 831 461 831 372 l 975 364 l 538 371 l 538 556 l 1053 556 l 1053 524 q 990 227 1053 347 q 815 46 926 107 q 557 -15 703 -15 m 561 1067 q 478 1101 511 1067 q 446 1183 446 1135 q 478 1267 446 1233 q 561 1300 511 1300 q 643 1267 611 1300 q 675 1183 675 1233 q 643 1101 675 1135 q 561 1067 611 1067 z "},"H":{"ha":1014,"x_min":94,"x_max":921,"o":"m 94 0 l 94 981 l 313 981 l 313 0 l 94 0 m 701 0 l 701 981 l 921 981 l 921 0 l 701 0 m 225 410 l 225 599 l 774 599 l 774 410 l 225 410 z "},"Ħ":{"ha":1014,"x_min":0,"x_max":1014,"o":"m 0 699 l 0 868 l 1014 868 l 1014 699 l 0 699 m 94 0 l 94 981 l 313 981 l 313 0 l 94 0 m 701 0 l 701 981 l 921 981 l 921 0 l 701 0 m 225 410 l 225 599 l 774 599 l 774 410 l 225 410 z "},"I":{"ha":407,"x_min":94,"x_max":313,"o":"m 94 0 l 94 981 l 313 981 l 313 0 l 94 0 z "},"Ĳ":{"ha":958,"x_min":94,"x_max":879,"o":"m 518 -15 q 356 19 425 -15 q 239 114 288 53 l 385 254 q 444 201 410 219 q 521 183 478 183 q 593 201 563 183 q 642 251 624 218 q 660 332 660 283 l 660 981 l 879 981 l 879 344 q 835 154 879 235 q 710 29 790 74 q 518 -15 629 -15 m 94 306 l 94 981 l 307 981 l 307 306 l 94 306 z "},"Í":{"ha":407,"x_min":35,"x_max":372,"o":"m 94 0 l 94 981 l 313 981 l 313 0 l 94 0 m 104 1057 l 35 1158 l 256 1365 l 372 1201 l 104 1057 z "},"Î":{"ha":407,"x_min":-61,"x_max":467,"o":"m 94 0 l 94 981 l 313 981 l 313 0 l 94 0 m 8 1051 l -61 1143 l 142 1344 l 264 1344 l 467 1143 l 397 1051 l 124 1221 l 285 1221 l 8 1051 z "},"Ï":{"ha":407,"x_min":-64,"x_max":471,"o":"m 94 0 l 94 981 l 313 981 l 313 0 l 94 0 m 51 1067 q -31 1101 1 1067 q -64 1183 -64 1135 q -31 1267 -64 1233 q 51 1300 1 1300 q 133 1267 101 1300 q 165 1183 165 1233 q 133 1101 165 1135 q 51 1067 101 1067 m 357 1067 q 274 1101 307 1067 q 242 1183 242 1135 q 274 1267 242 1233 q 357 1300 307 1300 q 439 1267 407 1300 q 471 1183 471 1233 q 439 1101 471 1135 q 357 1067 407 1067 z "},"İ":{"ha":407,"x_min":89,"x_max":318,"o":"m 94 0 l 94 981 l 313 981 l 313 0 l 94 0 m 204 1067 q 122 1101 154 1067 q 89 1183 89 1135 q 122 1267 89 1233 q 204 1300 154 1300 q 286 1267 254 1300 q 318 1183 318 1233 q 286 1101 318 1135 q 204 1067 254 1067 z "},"Ì":{"ha":407,"x_min":10,"x_max":347,"o":"m 94 0 l 94 981 l 313 981 l 313 0 l 94 0 m 278 1057 l 10 1201 l 126 1365 l 347 1158 l 278 1057 z "},"Ī":{"ha":407,"x_min":-50,"x_max":458,"o":"m -50 1264 l 458 1264 l 458 1107 l -50 1107 l -50 1264 m 94 0 l 94 981 l 313 981 l 313 0 l 94 0 z "},"Į":{"ha":407,"x_min":6,"x_max":349,"o":"m 94 0 l 94 981 l 313 981 l 313 0 l 94 0 m 206 -299 q 62 -260 118 -299 q 6 -144 6 -222 q 54 -23 6 -72 q 185 44 103 26 l 313 0 q 227 -48 258 -19 q 196 -118 196 -76 q 209 -156 196 -142 q 247 -169 222 -169 q 278 -164 264 -169 q 304 -151 292 -158 l 349 -262 q 287 -288 322 -278 q 206 -299 251 -299 z "},"J":{"ha":739,"x_min":19,"x_max":660,"o":"m 299 -15 q 137 19 206 -15 q 19 114 68 53 l 165 254 q 224 201 190 219 q 301 183 258 183 q 374 201 343 183 q 422 251 404 218 q 440 332 440 283 l 440 981 l 660 981 l 660 344 q 615 154 660 235 q 490 29 571 74 q 299 -15 410 -15 z "},"K":{"ha":979,"x_min":94,"x_max":958,"o":"m 688 0 l 290 511 l 675 981 l 944 981 l 511 471 l 511 560 l 958 0 l 688 0 m 94 0 l 94 981 l 313 981 l 313 0 l 94 0 z "},"Ķ":{"ha":979,"x_min":94,"x_max":958,"o":"m 688 0 l 290 511 l 675 981 l 944 981 l 511 471 l 511 560 l 958 0 l 688 0 m 94 0 l 94 981 l 313 981 l 313 0 l 94 0 m 392 -551 l 299 -481 l 424 -308 l 489 -301 q 460 -331 476 -319 q 426 -339 444 -342 q 360 -295 388 -333 q 340 -207 333 -257 q 390 -122 349 -154 q 486 -99 432 -90 q 568 -150 536 -107 q 590 -247 600 -193 q 574 -296 588 -268 q 529 -365 561 -324 l 392 -551 z "},"L":{"ha":779,"x_min":94,"x_max":747,"o":"m 94 0 l 94 981 l 313 981 l 313 0 l 94 0 m 263 0 l 263 192 l 747 192 l 747 0 l 263 0 z "},"Ĺ":{"ha":779,"x_min":94,"x_max":747,"o":"m 94 0 l 94 981 l 313 981 l 313 0 l 94 0 m 263 0 l 263 192 l 747 192 l 747 0 l 263 0 m 321 1057 l 251 1158 l 472 1365 l 589 1201 l 321 1057 z "},"Ľ":{"ha":779,"x_min":94,"x_max":747,"o":"m 94 0 l 94 981 l 313 981 l 313 0 l 94 0 m 263 0 l 263 192 l 747 192 l 747 0 l 263 0 m 525 517 l 422 572 l 524 763 l 586 779 q 563 746 576 760 q 531 732 549 732 q 457 765 490 732 q 424 850 424 799 q 460 942 424 904 q 551 981 497 981 q 641 942 603 981 q 679 850 679 904 q 671 798 679 828 q 638 722 663 768 l 525 517 z "},"Ļ":{"ha":779,"x_min":94,"x_max":747,"o":"m 94 0 l 94 981 l 313 981 l 313 0 l 94 0 m 263 0 l 263 192 l 747 192 l 747 0 l 263 0 m 354 -551 l 261 -481 l 386 -308 l 451 -301 q 423 -331 439 -319 q 389 -339 407 -342 q 323 -295 350 -333 q 303 -207 296 -257 q 353 -122 311 -154 q 449 -99 394 -90 q 531 -150 499 -107 q 553 -247 563 -193 q 537 -296 550 -268 q 492 -365 524 -324 l 354 -551 z "},"Ł":{"ha":846,"x_min":75,"x_max":814,"o":"m 75 486 l 488 724 l 488 542 l 75 304 l 75 486 m 160 0 l 160 981 l 379 981 l 379 0 l 160 0 m 328 0 l 328 192 l 814 192 l 814 0 l 328 0 z "},"M":{"ha":1192,"x_min":94,"x_max":1099,"o":"m 94 0 l 94 981 l 250 981 l 636 379 l 557 379 l 942 981 l 1099 981 l 1099 0 l 881 0 l 881 613 l 919 603 l 668 211 l 524 211 l 274 603 l 311 613 l 311 0 l 94 0 z "},"N":{"ha":1025,"x_min":94,"x_max":931,"o":"m 94 0 l 94 981 l 247 981 l 313 785 l 313 0 l 94 0 m 771 0 l 193 740 l 247 981 l 825 240 l 771 0 m 771 0 l 713 196 l 713 981 l 931 981 l 931 0 l 771 0 z "},"Ń":{"ha":1025,"x_min":94,"x_max":931,"o":"m 94 0 l 94 981 l 247 981 l 313 785 l 313 0 l 94 0 m 771 0 l 193 740 l 247 981 l 825 240 l 771 0 m 771 0 l 713 196 l 713 981 l 931 981 l 931 0 l 771 0 m 413 1057 l 343 1158 l 564 1365 l 681 1201 l 413 1057 z "},"Ň":{"ha":1025,"x_min":94,"x_max":931,"o":"m 94 0 l 94 981 l 247 981 l 313 785 l 313 0 l 94 0 m 771 0 l 193 740 l 247 981 l 825 240 l 771 0 m 771 0 l 713 196 l 713 981 l 931 981 l 931 0 l 771 0 m 707 1344 l 776 1253 l 574 1051 l 451 1051 l 249 1253 l 318 1344 l 592 1175 l 431 1176 l 707 1344 z "},"Ņ":{"ha":1025,"x_min":94,"x_max":931,"o":"m 94 0 l 94 981 l 247 981 l 313 785 l 313 0 l 94 0 m 771 0 l 193 740 l 247 981 l 825 240 l 771 0 m 771 0 l 713 196 l 713 981 l 931 981 l 931 0 l 771 0 m 446 -551 l 353 -481 l 478 -308 l 543 -301 q 515 -331 531 -319 q 481 -339 499 -342 q 415 -295 442 -333 q 394 -207 388 -257 q 444 -122 403 -154 q 540 -99 486 -90 q 622 -150 590 -107 q 644 -247 654 -193 q 628 -296 642 -268 q 583 -365 615 -324 l 446 -551 z "},"Ñ":{"ha":1025,"x_min":94,"x_max":931,"o":"m 94 0 l 94 981 l 247 981 l 313 785 l 313 0 l 94 0 m 771 0 l 193 740 l 247 981 l 825 240 l 771 0 m 771 0 l 713 196 l 713 981 l 931 981 l 931 0 l 771 0 m 614 1058 q 537 1074 569 1058 q 477 1104 504 1089 q 418 1119 450 1119 q 364 1106 386 1119 q 322 1067 342 1093 l 221 1167 q 306 1256 261 1226 q 411 1285 351 1285 q 488 1269 456 1285 q 549 1238 521 1254 q 607 1222 576 1222 q 663 1235 640 1222 q 703 1276 685 1249 l 804 1175 q 719 1088 764 1117 q 614 1058 674 1058 z "},"Ŋ":{"ha":1025,"x_min":94,"x_max":931,"o":"m 94 0 l 94 981 l 247 981 l 313 785 l 313 0 l 94 0 m 771 0 l 193 740 l 247 981 l 825 240 l 771 0 m 771 0 l 713 196 l 713 981 l 931 981 l 931 0 l 771 0 m 663 -303 q 538 -278 589 -303 q 447 -210 486 -254 l 579 -78 q 610 -103 594 -96 q 647 -111 626 -111 q 698 -93 678 -111 q 718 -37 718 -75 l 718 675 l 931 675 l 931 -35 q 896 -176 931 -117 q 801 -269 861 -236 q 663 -303 740 -303 z "},"O":{"ha":1119,"x_min":44,"x_max":1075,"o":"m 563 -17 q 358 22 451 -17 q 193 131 264 61 q 83 292 122 200 q 44 492 44 385 q 83 692 44 600 q 192 852 122 783 q 355 959 261 921 q 560 997 449 997 q 763 959 669 997 q 927 852 857 921 q 1036 691 997 783 q 1075 490 1075 599 q 1036 291 1075 383 q 928 130 997 199 q 765 22 858 61 q 563 -17 671 -17 m 560 182 q 713 221 647 182 q 815 330 779 260 q 851 492 851 400 q 831 617 851 561 q 771 715 810 674 q 678 777 732 756 q 560 799 625 799 q 406 760 472 799 q 304 653 340 722 q 268 492 268 585 q 289 365 268 422 q 348 267 310 308 q 440 204 386 226 q 560 182 494 182 z "},"Ó":{"ha":1119,"x_min":44,"x_max":1075,"o":"m 563 -17 q 358 22 451 -17 q 193 131 264 61 q 83 292 122 200 q 44 492 44 385 q 83 692 44 600 q 192 852 122 783 q 355 959 261 921 q 560 997 449 997 q 763 959 669 997 q 927 852 857 921 q 1036 691 997 783 q 1075 490 1075 599 q 1036 291 1075 383 q 928 130 997 199 q 765 22 858 61 q 563 -17 671 -17 m 560 182 q 713 221 647 182 q 815 330 779 260 q 851 492 851 400 q 831 617 851 561 q 771 715 810 674 q 678 777 732 756 q 560 799 625 799 q 406 760 472 799 q 304 653 340 722 q 268 492 268 585 q 289 365 268 422 q 348 267 310 308 q 440 204 386 226 q 560 182 494 182 m 460 1057 l 390 1158 l 611 1365 l 728 1201 l 460 1057 z "},"Ô":{"ha":1119,"x_min":44,"x_max":1075,"o":"m 563 -17 q 358 22 451 -17 q 193 131 264 61 q 83 292 122 200 q 44 492 44 385 q 83 692 44 600 q 192 852 122 783 q 355 959 261 921 q 560 997 449 997 q 763 959 669 997 q 927 852 857 921 q 1036 691 997 783 q 1075 490 1075 599 q 1036 291 1075 383 q 928 130 997 199 q 765 22 858 61 q 563 -17 671 -17 m 560 182 q 713 221 647 182 q 815 330 779 260 q 851 492 851 400 q 831 617 851 561 q 771 715 810 674 q 678 777 732 756 q 560 799 625 799 q 406 760 472 799 q 304 653 340 722 q 268 492 268 585 q 289 365 268 422 q 348 267 310 308 q 440 204 386 226 q 560 182 494 182 m 365 1051 l 296 1143 l 499 1344 l 621 1344 l 824 1143 l 754 1051 l 481 1221 l 642 1221 l 365 1051 z "},"Ö":{"ha":1119,"x_min":44,"x_max":1075,"o":"m 563 -17 q 358 22 451 -17 q 193 131 264 61 q 83 292 122 200 q 44 492 44 385 q 83 692 44 600 q 192 852 122 783 q 355 959 261 921 q 560 997 449 997 q 763 959 669 997 q 927 852 857 921 q 1036 691 997 783 q 1075 490 1075 599 q 1036 291 1075 383 q 928 130 997 199 q 765 22 858 61 q 563 -17 671 -17 m 560 182 q 713 221 647 182 q 815 330 779 260 q 851 492 851 400 q 831 617 851 561 q 771 715 810 674 q 678 777 732 756 q 560 799 625 799 q 406 760 472 799 q 304 653 340 722 q 268 492 268 585 q 289 365 268 422 q 348 267 310 308 q 440 204 386 226 q 560 182 494 182 m 408 1067 q 326 1101 358 1067 q 293 1183 293 1135 q 326 1267 293 1233 q 408 1300 358 1300 q 490 1267 458 1300 q 522 1183 522 1233 q 490 1101 522 1135 q 408 1067 458 1067 m 714 1067 q 631 1101 664 1067 q 599 1183 599 1135 q 631 1267 599 1233 q 714 1300 664 1300 q 796 1267 764 1300 q 828 1183 828 1233 q 796 1101 828 1135 q 714 1067 764 1067 z "},"Ò":{"ha":1119,"x_min":44,"x_max":1075,"o":"m 563 -17 q 358 22 451 -17 q 193 131 264 61 q 83 292 122 200 q 44 492 44 385 q 83 692 44 600 q 192 852 122 783 q 355 959 261 921 q 560 997 449 997 q 763 959 669 997 q 927 852 857 921 q 1036 691 997 783 q 1075 490 1075 599 q 1036 291 1075 383 q 928 130 997 199 q 765 22 858 61 q 563 -17 671 -17 m 560 182 q 713 221 647 182 q 815 330 779 260 q 851 492 851 400 q 831 617 851 561 q 771 715 810 674 q 678 777 732 756 q 560 799 625 799 q 406 760 472 799 q 304 653 340 722 q 268 492 268 585 q 289 365 268 422 q 348 267 310 308 q 440 204 386 226 q 560 182 494 182 m 633 1057 l 365 1201 l 482 1365 l 703 1158 l 633 1057 z "},"Ő":{"ha":1119,"x_min":44,"x_max":1075,"o":"m 563 -17 q 358 22 451 -17 q 193 131 264 61 q 83 292 122 200 q 44 492 44 385 q 83 692 44 600 q 192 852 122 783 q 355 959 261 921 q 560 997 449 997 q 763 959 669 997 q 927 852 857 921 q 1036 691 997 783 q 1075 490 1075 599 q 1036 291 1075 383 q 928 130 997 199 q 765 22 858 61 q 563 -17 671 -17 m 560 182 q 713 221 647 182 q 815 330 779 260 q 851 492 851 400 q 831 617 851 561 q 771 715 810 674 q 678 777 732 756 q 560 799 625 799 q 406 760 472 799 q 304 653 340 722 q 268 492 268 585 q 289 365 268 422 q 348 267 310 308 q 440 204 386 226 q 560 182 494 182 m 379 1065 l 272 1129 l 386 1410 l 561 1310 l 379 1065 m 696 1065 l 589 1129 l 703 1410 l 878 1310 l 696 1065 z "},"Ō":{"ha":1119,"x_min":44,"x_max":1075,"o":"m 563 -17 q 358 22 451 -17 q 193 131 264 61 q 83 292 122 200 q 44 492 44 385 q 83 692 44 600 q 192 852 122 783 q 355 959 261 921 q 560 997 449 997 q 763 959 669 997 q 927 852 857 921 q 1036 691 997 783 q 1075 490 1075 599 q 1036 291 1075 383 q 928 130 997 199 q 765 22 858 61 q 563 -17 671 -17 m 560 182 q 713 221 647 182 q 815 330 779 260 q 851 492 851 400 q 831 617 851 561 q 771 715 810 674 q 678 777 732 756 q 560 799 625 799 q 406 760 472 799 q 304 653 340 722 q 268 492 268 585 q 289 365 268 422 q 348 267 310 308 q 440 204 386 226 q 560 182 494 182 m 293 1264 l 826 1264 l 826 1107 l 293 1107 l 293 1264 z "},"Ø":{"ha":1119,"x_min":38,"x_max":1083,"o":"m 946 1014 l 1083 876 l 174 -32 l 38 104 l 946 1014 m 563 -17 q 358 22 451 -17 q 193 131 264 61 q 83 292 122 200 q 44 492 44 385 q 83 692 44 600 q 192 852 122 783 q 355 959 261 921 q 560 997 449 997 q 763 959 669 997 q 927 852 857 921 q 1036 691 997 783 q 1075 490 1075 599 q 1036 291 1075 383 q 928 130 997 199 q 765 22 858 61 q 563 -17 671 -17 m 560 182 q 713 221 647 182 q 815 330 779 260 q 851 492 851 400 q 831 617 851 561 q 771 715 810 674 q 678 777 732 756 q 560 799 625 799 q 406 760 472 799 q 304 653 340 722 q 268 492 268 585 q 289 365 268 422 q 348 267 310 308 q 440 204 386 226 q 560 182 494 182 z "},"Õ":{"ha":1119,"x_min":44,"x_max":1075,"o":"m 563 -17 q 358 22 451 -17 q 193 131 264 61 q 83 292 122 200 q 44 492 44 385 q 83 692 44 600 q 192 852 122 783 q 355 959 261 921 q 560 997 449 997 q 763 959 669 997 q 927 852 857 921 q 1036 691 997 783 q 1075 490 1075 599 q 1036 291 1075 383 q 928 130 997 199 q 765 22 858 61 q 563 -17 671 -17 m 560 182 q 713 221 647 182 q 815 330 779 260 q 851 492 851 400 q 831 617 851 561 q 771 715 810 674 q 678 777 732 756 q 560 799 625 799 q 406 760 472 799 q 304 653 340 722 q 268 492 268 585 q 289 365 268 422 q 348 267 310 308 q 440 204 386 226 q 560 182 494 182 m 661 1058 q 584 1074 617 1058 q 524 1104 551 1089 q 465 1119 497 1119 q 411 1106 433 1119 q 369 1067 389 1093 l 268 1167 q 353 1256 308 1226 q 458 1285 399 1285 q 535 1269 503 1285 q 596 1238 568 1254 q 654 1222 624 1222 q 710 1235 688 1222 q 750 1276 732 1249 l 851 1175 q 766 1088 811 1117 q 661 1058 721 1058 z "},"Œ":{"ha":1611,"x_min":44,"x_max":1557,"o":"m 556 -17 q 355 22 447 -17 q 192 131 263 61 q 83 292 122 200 q 44 492 44 385 q 83 692 44 600 q 191 852 122 783 q 352 959 260 921 q 553 997 444 997 q 744 959 663 997 q 882 852 826 921 q 965 691 938 783 q 992 490 992 599 q 965 291 992 383 q 883 130 938 199 q 746 22 828 61 q 556 -17 664 -17 m 560 182 q 713 221 647 182 q 815 330 779 260 q 851 492 851 400 q 815 653 851 583 q 713 760 778 722 q 560 799 647 799 q 406 760 472 799 q 304 653 340 722 q 268 492 268 585 q 289 365 268 422 q 348 267 310 308 q 440 204 386 226 q 560 182 494 182 m 851 0 l 851 981 l 1071 981 l 1071 0 l 851 0 m 1019 0 l 1019 189 l 1557 189 l 1557 0 l 1019 0 m 1019 410 l 1019 592 l 1507 592 l 1507 410 l 1019 410 m 1019 793 l 1019 981 l 1549 981 l 1549 793 l 1019 793 z "},"P":{"ha":872,"x_min":94,"x_max":835,"o":"m 261 357 l 261 526 l 472 526 q 546 543 513 526 q 599 592 579 560 q 618 669 618 624 q 599 746 618 714 q 546 794 579 778 q 472 811 513 811 l 261 811 l 261 981 l 504 981 q 672 943 597 981 q 791 835 747 906 q 835 669 835 765 q 791 503 835 574 q 672 395 747 433 q 504 357 597 357 l 261 357 m 94 0 l 94 981 l 313 981 l 313 0 l 94 0 z "},"Þ":{"ha":872,"x_min":94,"x_max":835,"o":"m 261 188 l 261 357 l 472 357 q 546 374 513 357 q 599 422 579 390 q 618 500 618 454 q 599 576 618 544 q 546 625 579 608 q 472 642 513 642 l 261 642 l 261 811 l 504 811 q 672 774 597 811 q 791 666 747 736 q 835 500 835 596 q 791 334 835 404 q 672 226 747 264 q 504 188 597 188 l 261 188 m 94 0 l 94 981 l 313 981 l 313 0 l 94 0 z "},"Q":{"ha":1138,"x_min":44,"x_max":1126,"o":"m 563 -17 q 358 22 453 -17 q 194 131 264 61 q 84 292 124 200 q 44 492 44 385 q 83 692 44 600 q 192 852 122 783 q 356 959 263 921 q 560 997 450 997 q 765 959 671 997 q 928 852 858 921 q 1038 691 999 783 q 1076 490 1076 599 q 1038 291 1076 383 q 928 130 999 199 q 765 22 858 61 q 563 -17 672 -17 m 1000 -78 l 542 381 l 668 507 l 1126 49 l 1000 -78 m 560 182 q 714 221 649 182 q 816 330 779 260 q 853 492 853 400 q 832 617 853 561 q 772 715 811 674 q 680 777 733 756 q 560 799 626 799 q 407 760 472 799 q 305 653 342 722 q 268 492 268 585 q 289 365 268 422 q 349 267 310 308 q 441 204 388 226 q 560 182 494 182 z "},"R":{"ha":906,"x_min":94,"x_max":886,"o":"m 261 404 l 261 565 l 468 565 q 569 599 533 565 q 604 689 604 632 q 569 776 604 742 q 469 811 535 811 l 261 811 l 261 981 l 494 981 q 665 944 592 981 q 781 842 739 907 q 822 692 822 776 q 781 541 822 606 q 664 440 739 476 q 488 404 589 404 l 261 404 m 94 0 l 94 981 l 313 981 l 313 0 l 94 0 m 628 0 l 322 422 l 522 476 l 886 0 l 628 0 z "},"Ŕ":{"ha":906,"x_min":94,"x_max":886,"o":"m 261 404 l 261 565 l 468 565 q 569 599 533 565 q 604 689 604 632 q 569 776 604 742 q 469 811 535 811 l 261 811 l 261 981 l 494 981 q 665 944 592 981 q 781 842 739 907 q 822 692 822 776 q 781 541 822 606 q 664 440 739 476 q 488 404 589 404 l 261 404 m 94 0 l 94 981 l 313 981 l 313 0 l 94 0 m 628 0 l 322 422 l 522 476 l 886 0 l 628 0 m 314 1057 l 244 1158 l 465 1365 l 582 1201 l 314 1057 z "},"Ř":{"ha":906,"x_min":94,"x_max":886,"o":"m 261 404 l 261 565 l 468 565 q 569 599 533 565 q 604 689 604 632 q 569 776 604 742 q 469 811 535 811 l 261 811 l 261 981 l 494 981 q 665 944 592 981 q 781 842 739 907 q 822 692 822 776 q 781 541 822 606 q 664 440 739 476 q 488 404 589 404 l 261 404 m 94 0 l 94 981 l 313 981 l 313 0 l 94 0 m 628 0 l 322 422 l 522 476 l 886 0 l 628 0 m 608 1344 l 678 1253 l 475 1051 l 353 1051 l 150 1253 l 219 1344 l 493 1175 l 332 1176 l 608 1344 z "},"Ŗ":{"ha":906,"x_min":94,"x_max":886,"o":"m 261 404 l 261 565 l 468 565 q 569 599 533 565 q 604 689 604 632 q 569 776 604 742 q 469 811 535 811 l 261 811 l 261 981 l 494 981 q 665 944 592 981 q 781 842 739 907 q 822 692 822 776 q 781 541 822 606 q 664 440 739 476 q 488 404 589 404 l 261 404 m 94 0 l 94 981 l 313 981 l 313 0 l 94 0 m 628 0 l 322 422 l 522 476 l 886 0 l 628 0 m 358 -551 l 265 -481 l 390 -308 l 456 -301 q 427 -331 443 -319 q 393 -339 411 -342 q 327 -295 354 -333 q 307 -207 300 -257 q 357 -122 315 -154 q 453 -99 399 -90 q 535 -150 503 -107 q 557 -247 567 -193 q 541 -296 554 -268 q 496 -365 528 -324 l 358 -551 z "},"S":{"ha":810,"x_min":22,"x_max":765,"o":"m 389 -15 q 181 24 268 -15 q 22 144 94 64 l 164 285 q 269 201 211 231 q 403 171 326 171 q 510 196 472 171 q 549 265 549 221 q 524 331 549 306 q 458 374 499 356 q 367 408 417 392 q 269 447 318 425 q 180 501 221 468 q 114 583 139 533 q 89 707 89 632 q 133 863 89 797 q 254 962 176 928 q 433 996 332 996 q 622 960 536 996 q 763 861 707 924 l 621 721 q 531 789 576 767 q 429 811 486 811 q 339 790 372 811 q 306 728 306 768 q 331 667 306 690 q 397 628 356 644 q 487 594 438 611 q 585 556 536 578 q 674 499 633 533 q 740 413 715 465 q 765 285 765 361 q 665 65 765 144 q 389 -15 565 -15 z "},"Ś":{"ha":810,"x_min":22,"x_max":765,"o":"m 389 -15 q 181 24 268 -15 q 22 144 94 64 l 164 285 q 269 201 211 231 q 403 171 326 171 q 510 196 472 171 q 549 265 549 221 q 524 331 549 306 q 458 374 499 356 q 367 408 417 392 q 269 447 318 425 q 180 501 221 468 q 114 583 139 533 q 89 707 89 632 q 133 863 89 797 q 254 962 176 928 q 433 996 332 996 q 622 960 536 996 q 763 861 707 924 l 621 721 q 531 789 576 767 q 429 811 486 811 q 339 790 372 811 q 306 728 306 768 q 331 667 306 690 q 397 628 356 644 q 487 594 438 611 q 585 556 536 578 q 674 499 633 533 q 740 413 715 465 q 765 285 765 361 q 665 65 765 144 q 389 -15 565 -15 m 333 1057 l 264 1158 l 485 1365 l 601 1201 l 333 1057 z "},"Š":{"ha":810,"x_min":22,"x_max":765,"o":"m 389 -15 q 181 24 268 -15 q 22 144 94 64 l 164 285 q 269 201 211 231 q 403 171 326 171 q 510 196 472 171 q 549 265 549 221 q 524 331 549 306 q 458 374 499 356 q 367 408 417 392 q 269 447 318 425 q 180 501 221 468 q 114 583 139 533 q 89 707 89 632 q 133 863 89 797 q 254 962 176 928 q 433 996 332 996 q 622 960 536 996 q 763 861 707 924 l 621 721 q 531 789 576 767 q 429 811 486 811 q 339 790 372 811 q 306 728 306 768 q 331 667 306 690 q 397 628 356 644 q 487 594 438 611 q 585 556 536 578 q 674 499 633 533 q 740 413 715 465 q 765 285 765 361 q 665 65 765 144 q 389 -15 565 -15 m 626 1344 l 696 1253 l 493 1051 l 371 1051 l 168 1253 l 238 1344 l 513 1175 l 351 1176 l 626 1344 z "},"Ş":{"ha":810,"x_min":22,"x_max":765,"o":"m 389 -15 q 181 24 268 -15 q 22 144 94 64 l 164 285 q 269 201 211 231 q 403 171 326 171 q 510 196 472 171 q 549 265 549 221 q 524 331 549 306 q 458 374 499 356 q 367 408 417 392 q 269 447 318 425 q 180 501 221 468 q 114 583 139 533 q 89 707 89 632 q 133 863 89 797 q 254 962 176 928 q 433 996 332 996 q 622 960 536 996 q 763 861 707 924 l 621 721 q 531 789 576 767 q 429 811 486 811 q 339 790 372 811 q 306 728 306 768 q 331 667 306 690 q 397 628 356 644 q 487 594 438 611 q 585 556 536 578 q 674 499 633 533 q 740 413 715 465 q 765 285 765 361 q 665 65 765 144 q 389 -15 565 -15 m 364 -299 q 269 -285 308 -299 q 190 -249 229 -272 l 256 -162 q 295 -184 274 -176 q 343 -192 317 -192 q 385 -183 372 -192 q 397 -161 397 -174 q 382 -139 397 -149 q 335 -129 367 -129 l 290 -129 l 338 18 l 457 18 l 421 -83 l 360 -35 q 502 -70 451 -33 q 553 -167 553 -107 q 501 -260 553 -222 q 364 -299 450 -299 z "},"Ș":{"ha":810,"x_min":22,"x_max":765,"o":"m 389 -15 q 181 24 268 -15 q 22 144 94 64 l 164 285 q 269 201 211 231 q 403 171 326 171 q 510 196 472 171 q 549 265 549 221 q 524 331 549 306 q 458 374 499 356 q 367 408 417 392 q 269 447 318 425 q 180 501 221 468 q 114 583 139 533 q 89 707 89 632 q 133 863 89 797 q 254 962 176 928 q 433 996 332 996 q 622 960 536 996 q 763 861 707 924 l 621 721 q 531 789 576 767 q 429 811 486 811 q 339 790 372 811 q 306 728 306 768 q 331 667 306 690 q 397 628 356 644 q 487 594 438 611 q 585 556 536 578 q 674 499 633 533 q 740 413 715 465 q 765 285 765 361 q 665 65 765 144 q 389 -15 565 -15 m 328 -551 l 235 -481 l 360 -308 l 425 -301 q 397 -331 413 -319 q 363 -339 381 -342 q 297 -295 324 -333 q 276 -207 269 -257 q 326 -122 285 -154 q 422 -99 368 -90 q 504 -150 472 -107 q 526 -247 536 -193 q 510 -296 524 -268 q 465 -365 497 -324 l 328 -551 z "},"ẞ":{"ha":1028,"x_min":94,"x_max":983,"o":"m 482 586 l 731 843 l 907 789 l 717 585 l 482 464 l 482 586 m 601 -7 q 490 1 536 -7 q 413 31 444 10 l 413 269 q 490 207 439 231 q 597 183 540 183 q 686 201 649 183 q 745 253 724 219 q 767 331 767 286 q 745 410 767 378 q 683 460 724 443 q 585 478 642 478 q 530 474 558 478 q 482 464 501 471 l 578 585 q 652 603 617 596 q 718 611 688 611 q 853 576 793 611 q 948 476 913 540 q 983 324 983 411 q 935 151 983 225 q 802 35 888 76 q 601 -7 717 -7 m 532 1015 q 667 1002 600 1015 q 788 972 733 989 q 874 943 842 956 q 907 931 907 931 l 907 789 q 880 793 907 789 q 810 803 853 797 q 716 816 767 810 q 617 826 665 822 q 533 831 568 831 q 409 802 460 831 q 333 727 358 774 q 307 625 307 681 l 307 0 l 94 0 l 94 679 q 149 856 94 781 q 301 973 203 931 q 532 1015 400 1015 z "},"T":{"ha":888,"x_min":28,"x_max":860,"o":"m 335 0 l 335 967 l 553 967 l 553 0 l 335 0 m 28 790 l 28 981 l 860 981 l 860 790 l 28 790 z "},"Ť":{"ha":888,"x_min":28,"x_max":860,"o":"m 335 0 l 335 967 l 553 967 l 553 0 l 335 0 m 28 790 l 28 981 l 860 981 l 860 790 l 28 790 m 638 1344 l 707 1253 l 504 1051 l 382 1051 l 179 1253 l 249 1344 l 524 1175 l 363 1176 l 638 1344 z "},"Ț":{"ha":888,"x_min":28,"x_max":860,"o":"m 335 0 l 335 967 l 553 967 l 553 0 l 335 0 m 28 790 l 28 981 l 860 981 l 860 790 l 28 790 m 378 -551 l 285 -481 l 410 -308 l 475 -301 q 447 -331 463 -319 q 413 -339 431 -342 q 347 -295 374 -333 q 326 -207 319 -257 q 376 -122 335 -154 q 472 -99 418 -90 q 554 -150 522 -107 q 576 -247 586 -193 q 560 -296 574 -268 q 515 -365 547 -324 l 378 -551 z "},"U":{"ha":975,"x_min":79,"x_max":896,"o":"m 489 -15 q 276 36 368 -15 q 131 178 183 88 q 79 386 79 269 l 79 981 l 299 981 l 299 374 q 324 272 299 315 q 392 206 349 229 q 489 183 436 183 q 586 206 544 183 q 652 272 628 229 q 676 372 676 314 l 676 981 l 896 981 l 896 385 q 844 178 896 268 q 701 36 793 88 q 489 -15 610 -15 z "},"Ú":{"ha":975,"x_min":79,"x_max":896,"o":"m 489 -15 q 276 36 368 -15 q 131 178 183 88 q 79 386 79 269 l 79 981 l 299 981 l 299 374 q 324 272 299 315 q 392 206 349 229 q 489 183 436 183 q 586 206 544 183 q 652 272 628 229 q 676 372 676 314 l 676 981 l 896 981 l 896 385 q 844 178 896 268 q 701 36 793 88 q 489 -15 610 -15 m 388 1057 l 318 1158 l 539 1365 l 656 1201 l 388 1057 z "},"Ŭ":{"ha":975,"x_min":79,"x_max":896,"o":"m 489 -15 q 276 36 368 -15 q 131 178 183 88 q 79 386 79 269 l 79 981 l 299 981 l 299 374 q 324 272 299 315 q 392 206 349 229 q 489 183 436 183 q 586 206 544 183 q 652 272 628 229 q 676 372 676 314 l 676 981 l 896 981 l 896 385 q 844 178 896 268 q 701 36 793 88 q 489 -15 610 -15 m 751 1307 q 717 1174 751 1233 q 623 1081 682 1115 q 489 1046 564 1046 q 354 1081 414 1046 q 259 1174 294 1115 q 224 1307 224 1233 l 390 1307 q 417 1235 390 1264 q 490 1206 444 1206 q 539 1219 518 1206 q 573 1255 560 1232 q 586 1307 586 1278 l 751 1307 z "},"Û":{"ha":975,"x_min":79,"x_max":896,"o":"m 489 -15 q 276 36 368 -15 q 131 178 183 88 q 79 386 79 269 l 79 981 l 299 981 l 299 374 q 324 272 299 315 q 392 206 349 229 q 489 183 436 183 q 586 206 544 183 q 652 272 628 229 q 676 372 676 314 l 676 981 l 896 981 l 896 385 q 844 178 896 268 q 701 36 793 88 q 489 -15 610 -15 m 293 1051 l 224 1143 l 426 1344 l 549 1344 l 751 1143 l 682 1051 l 408 1221 l 569 1221 l 293 1051 z "},"Ü":{"ha":975,"x_min":79,"x_max":896,"o":"m 489 -15 q 276 36 368 -15 q 131 178 183 88 q 79 386 79 269 l 79 981 l 299 981 l 299 374 q 324 272 299 315 q 392 206 349 229 q 489 183 436 183 q 586 206 544 183 q 652 272 628 229 q 676 372 676 314 l 676 981 l 896 981 l 896 385 q 844 178 896 268 q 701 36 793 88 q 489 -15 610 -15 m 336 1067 q 253 1101 286 1067 q 221 1183 221 1135 q 253 1267 221 1233 q 336 1300 286 1300 q 418 1267 386 1300 q 450 1183 450 1233 q 418 1101 450 1135 q 336 1067 386 1067 m 642 1067 q 559 1101 592 1067 q 526 1183 526 1135 q 559 1267 526 1233 q 642 1300 592 1300 q 724 1267 692 1300 q 756 1183 756 1233 q 724 1101 756 1135 q 642 1067 692 1067 z "},"Ù":{"ha":975,"x_min":79,"x_max":896,"o":"m 489 -15 q 276 36 368 -15 q 131 178 183 88 q 79 386 79 269 l 79 981 l 299 981 l 299 374 q 324 272 299 315 q 392 206 349 229 q 489 183 436 183 q 586 206 544 183 q 652 272 628 229 q 676 372 676 314 l 676 981 l 896 981 l 896 385 q 844 178 896 268 q 701 36 793 88 q 489 -15 610 -15 m 561 1057 l 293 1201 l 410 1365 l 631 1158 l 561 1057 z "},"Ű":{"ha":975,"x_min":79,"x_max":896,"o":"m 489 -15 q 276 36 368 -15 q 131 178 183 88 q 79 386 79 269 l 79 981 l 299 981 l 299 374 q 324 272 299 315 q 392 206 349 229 q 489 183 436 183 q 586 206 544 183 q 652 272 628 229 q 676 372 676 314 l 676 981 l 896 981 l 896 385 q 844 178 896 268 q 701 36 793 88 q 489 -15 610 -15 m 307 1065 l 200 1129 l 314 1410 l 489 1310 l 307 1065 m 624 1065 l 517 1129 l 631 1410 l 806 1310 l 624 1065 z "},"Ū":{"ha":975,"x_min":79,"x_max":896,"o":"m 489 -15 q 276 36 368 -15 q 131 178 183 88 q 79 386 79 269 l 79 981 l 299 981 l 299 374 q 324 272 299 315 q 392 206 349 229 q 489 183 436 183 q 586 206 544 183 q 652 272 628 229 q 676 372 676 314 l 676 981 l 896 981 l 896 385 q 844 178 896 268 q 701 36 793 88 q 489 -15 610 -15 m 221 1264 l 754 1264 l 754 1107 l 221 1107 l 221 1264 z "},"Ų":{"ha":975,"x_min":79,"x_max":896,"o":"m 489 -15 q 276 36 368 -15 q 131 178 183 88 q 79 386 79 269 l 79 981 l 299 981 l 299 374 q 324 272 299 315 q 392 206 349 229 q 489 183 436 183 q 586 206 544 183 q 652 272 628 229 q 676 372 676 314 l 676 981 l 896 981 l 896 385 q 844 178 896 268 q 701 36 793 88 q 489 -15 610 -15 m 544 -285 q 401 -247 457 -285 q 344 -131 344 -208 q 393 -9 344 -58 q 524 58 442 40 l 651 14 q 566 -34 597 -6 q 535 -104 535 -62 q 548 -142 535 -128 q 586 -156 561 -156 q 617 -150 603 -156 q 643 -137 631 -144 l 688 -249 q 626 -274 661 -264 q 544 -285 590 -285 z "},"Ů":{"ha":975,"x_min":79,"x_max":896,"o":"m 489 -15 q 276 36 368 -15 q 131 178 183 88 q 79 386 79 269 l 79 981 l 299 981 l 299 374 q 324 272 299 315 q 392 206 349 229 q 489 183 436 183 q 586 206 544 183 q 652 272 628 229 q 676 372 676 314 l 676 981 l 896 981 l 896 385 q 844 178 896 268 q 701 36 793 88 q 489 -15 610 -15 m 489 1046 q 395 1069 436 1046 q 330 1133 354 1093 q 306 1225 306 1174 q 330 1317 306 1276 q 395 1381 354 1357 q 489 1406 436 1406 q 581 1381 540 1406 q 646 1317 622 1357 q 669 1225 669 1276 q 646 1133 669 1174 q 581 1069 622 1093 q 489 1046 540 1046 m 489 1163 q 531 1181 514 1163 q 549 1225 549 1199 q 531 1270 549 1253 q 489 1288 514 1288 q 444 1269 461 1288 q 428 1225 428 1251 q 444 1181 428 1199 q 489 1163 461 1163 z "},"V":{"ha":990,"x_min":22,"x_max":969,"o":"m 400 0 l 22 981 l 256 981 l 543 188 l 447 188 l 739 981 l 969 981 l 588 0 l 400 0 z "},"W":{"ha":1392,"x_min":24,"x_max":1368,"o":"m 339 0 l 24 981 l 240 981 l 471 226 l 386 226 l 611 981 l 782 981 l 1007 226 l 924 226 l 1153 981 l 1368 981 l 1053 0 l 882 0 l 656 754 l 736 754 l 510 0 l 339 0 z "},"Ẃ":{"ha":1392,"x_min":24,"x_max":1368,"o":"m 339 0 l 24 981 l 240 981 l 471 226 l 386 226 l 611 981 l 782 981 l 1007 226 l 924 226 l 1153 981 l 1368 981 l 1053 0 l 882 0 l 656 754 l 736 754 l 510 0 l 339 0 m 596 1057 l 526 1158 l 747 1365 l 864 1201 l 596 1057 z "},"Ŵ":{"ha":1392,"x_min":24,"x_max":1368,"o":"m 339 0 l 24 981 l 240 981 l 471 226 l 386 226 l 611 981 l 782 981 l 1007 226 l 924 226 l 1153 981 l 1368 981 l 1053 0 l 882 0 l 656 754 l 736 754 l 510 0 l 339 0 m 501 1051 l 432 1143 l 635 1344 l 757 1344 l 960 1143 l 890 1051 l 617 1221 l 778 1221 l 501 1051 z "},"Ẅ":{"ha":1392,"x_min":24,"x_max":1368,"o":"m 339 0 l 24 981 l 240 981 l 471 226 l 386 226 l 611 981 l 782 981 l 1007 226 l 924 226 l 1153 981 l 1368 981 l 1053 0 l 882 0 l 656 754 l 736 754 l 510 0 l 339 0 m 544 1067 q 462 1101 494 1067 q 429 1183 429 1135 q 462 1267 429 1233 q 544 1300 494 1300 q 626 1267 594 1300 q 658 1183 658 1233 q 626 1101 658 1135 q 544 1067 594 1067 m 850 1067 q 767 1101 800 1067 q 735 1183 735 1135 q 767 1267 735 1233 q 850 1300 800 1300 q 932 1267 900 1300 q 964 1183 964 1233 q 932 1101 964 1135 q 850 1067 900 1067 z "},"Ẁ":{"ha":1392,"x_min":24,"x_max":1368,"o":"m 339 0 l 24 981 l 240 981 l 471 226 l 386 226 l 611 981 l 782 981 l 1007 226 l 924 226 l 1153 981 l 1368 981 l 1053 0 l 882 0 l 656 754 l 736 754 l 510 0 l 339 0 m 769 1057 l 501 1201 l 618 1365 l 839 1158 l 769 1057 z "},"X":{"ha":993,"x_min":21,"x_max":972,"o":"m 717 0 l 443 438 l 417 438 l 39 981 l 299 981 l 568 569 l 594 569 l 972 0 l 717 0 m 21 0 l 383 525 l 551 431 l 269 0 l 21 0 m 603 463 l 435 557 l 707 981 l 956 981 l 603 463 z "},"Y":{"ha":954,"x_min":18,"x_max":936,"o":"m 396 365 l 18 981 l 271 981 l 561 483 l 399 483 l 689 981 l 936 981 l 556 365 l 396 365 m 369 0 l 369 465 l 588 465 l 588 0 l 369 0 z "},"Ý":{"ha":954,"x_min":18,"x_max":936,"o":"m 396 365 l 18 981 l 271 981 l 561 483 l 399 483 l 689 981 l 936 981 l 556 365 l 396 365 m 369 0 l 369 465 l 588 465 l 588 0 l 369 0 m 378 1057 l 308 1158 l 529 1365 l 646 1201 l 378 1057 z "},"Ŷ":{"ha":954,"x_min":18,"x_max":936,"o":"m 396 365 l 18 981 l 271 981 l 561 483 l 399 483 l 689 981 l 936 981 l 556 365 l 396 365 m 369 0 l 369 465 l 588 465 l 588 0 l 369 0 m 282 1051 l 213 1143 l 415 1344 l 538 1344 l 740 1143 l 671 1051 l 397 1221 l 558 1221 l 282 1051 z "},"Ÿ":{"ha":954,"x_min":18,"x_max":936,"o":"m 396 365 l 18 981 l 271 981 l 561 483 l 399 483 l 689 981 l 936 981 l 556 365 l 396 365 m 369 0 l 369 465 l 588 465 l 588 0 l 369 0 m 325 1067 q 242 1101 275 1067 q 210 1183 210 1135 q 242 1267 210 1233 q 325 1300 275 1300 q 407 1267 375 1300 q 439 1183 439 1233 q 407 1101 439 1135 q 325 1067 375 1067 m 631 1067 q 548 1101 581 1067 q 515 1183 515 1135 q 548 1267 515 1233 q 631 1300 581 1300 q 713 1267 681 1300 q 744 1183 744 1233 q 713 1101 744 1135 q 631 1067 681 1067 z "},"Ỳ":{"ha":954,"x_min":18,"x_max":936,"o":"m 396 365 l 18 981 l 271 981 l 561 483 l 399 483 l 689 981 l 936 981 l 556 365 l 396 365 m 369 0 l 369 465 l 588 465 l 588 0 l 369 0 m 551 1057 l 283 1201 l 400 1365 l 621 1158 l 551 1057 z "},"Z":{"ha":844,"x_min":42,"x_max":799,"o":"m 42 153 l 535 829 l 799 829 l 304 153 l 42 153 m 42 0 l 42 153 l 186 188 l 786 188 l 786 0 l 42 0 m 69 793 l 69 981 l 799 981 l 799 829 l 651 793 l 69 793 z "},"Ź":{"ha":844,"x_min":42,"x_max":799,"o":"m 42 153 l 535 829 l 799 829 l 304 153 l 42 153 m 42 0 l 42 153 l 186 188 l 786 188 l 786 0 l 42 0 m 69 793 l 69 981 l 799 981 l 799 829 l 651 793 l 69 793 m 325 1057 l 256 1158 l 476 1365 l 593 1201 l 325 1057 z "},"Ž":{"ha":844,"x_min":42,"x_max":799,"o":"m 42 153 l 535 829 l 799 829 l 304 153 l 42 153 m 42 0 l 42 153 l 186 188 l 786 188 l 786 0 l 42 0 m 69 793 l 69 981 l 799 981 l 799 829 l 651 793 l 69 793 m 619 1344 l 689 1253 l 486 1051 l 364 1051 l 161 1253 l 231 1344 l 504 1175 l 343 1176 l 619 1344 z "},"Ż":{"ha":844,"x_min":42,"x_max":799,"o":"m 42 153 l 535 829 l 799 829 l 304 153 l 42 153 m 42 0 l 42 153 l 186 188 l 786 188 l 786 0 l 42 0 m 69 793 l 69 981 l 799 981 l 799 829 l 651 793 l 69 793 m 426 1067 q 344 1101 376 1067 q 311 1183 311 1135 q 344 1267 311 1233 q 426 1300 376 1300 q 508 1267 476 1300 q 540 1183 540 1233 q 508 1101 540 1135 q 426 1067 476 1067 z "},"a":{"ha":826,"x_min":33,"x_max":751,"o":"m 357 -14 q 191 32 264 -14 q 76 157 118 78 q 33 338 33 236 q 76 518 33 439 q 191 643 118 597 q 357 689 264 689 q 480 663 425 689 q 569 590 535 636 q 608 483 604 543 l 608 192 q 570 85 604 132 q 481 13 536 39 q 357 -14 425 -14 m 400 178 q 510 223 468 178 q 551 338 551 268 q 533 421 551 385 q 480 477 514 457 q 401 497 446 497 q 323 477 357 497 q 269 421 289 457 q 249 338 249 385 q 268 256 249 292 q 322 199 288 219 q 400 178 357 178 m 543 0 l 543 182 l 575 346 l 543 510 l 543 675 l 751 675 l 751 0 l 543 0 z "},"á":{"ha":826,"x_min":33,"x_max":751,"o":"m 357 -14 q 191 32 264 -14 q 76 157 118 78 q 33 338 33 236 q 76 518 33 439 q 191 643 118 597 q 357 689 264 689 q 480 663 425 689 q 569 590 535 636 q 608 483 604 543 l 608 192 q 570 85 604 132 q 481 13 536 39 q 357 -14 425 -14 m 400 178 q 510 223 468 178 q 551 338 551 268 q 533 421 551 385 q 480 477 514 457 q 401 497 446 497 q 323 477 357 497 q 269 421 289 457 q 249 338 249 385 q 268 256 249 292 q 322 199 288 219 q 400 178 357 178 m 543 0 l 543 182 l 575 346 l 543 510 l 543 675 l 751 675 l 751 0 l 543 0 m 321 751 l 251 853 l 472 1060 l 589 896 l 321 751 z "},"ă":{"ha":826,"x_min":33,"x_max":751,"o":"m 357 -14 q 191 32 264 -14 q 76 157 118 78 q 33 338 33 236 q 76 518 33 439 q 191 643 118 597 q 357 689 264 689 q 480 663 425 689 q 569 590 535 636 q 608 483 604 543 l 608 192 q 570 85 604 132 q 481 13 536 39 q 357 -14 425 -14 m 400 178 q 510 223 468 178 q 551 338 551 268 q 533 421 551 385 q 480 477 514 457 q 401 497 446 497 q 323 477 357 497 q 269 421 289 457 q 249 338 249 385 q 268 256 249 292 q 322 199 288 219 q 400 178 357 178 m 543 0 l 543 182 l 575 346 l 543 510 l 543 675 l 751 675 l 751 0 l 543 0 m 683 1001 q 649 869 683 928 q 555 775 614 810 q 421 740 496 740 q 286 775 346 740 q 191 869 226 810 q 156 1001 156 928 l 322 1001 q 349 929 322 958 q 422 900 376 900 q 471 913 450 900 q 505 949 492 926 q 518 1001 518 972 l 683 1001 z "},"ǎ":{"ha":826,"x_min":33,"x_max":751,"o":"m 357 -14 q 191 32 264 -14 q 76 157 118 78 q 33 338 33 236 q 76 518 33 439 q 191 643 118 597 q 357 689 264 689 q 480 663 425 689 q 569 590 535 636 q 608 483 604 543 l 608 192 q 570 85 604 132 q 481 13 536 39 q 357 -14 425 -14 m 400 178 q 510 223 468 178 q 551 338 551 268 q 533 421 551 385 q 480 477 514 457 q 401 497 446 497 q 323 477 357 497 q 269 421 289 457 q 249 338 249 385 q 268 256 249 292 q 322 199 288 219 q 400 178 357 178 m 543 0 l 543 182 l 575 346 l 543 510 l 543 675 l 751 675 l 751 0 l 543 0 m 614 1039 l 683 947 l 481 746 l 358 746 l 156 947 l 225 1039 l 500 869 l 339 871 l 614 1039 z "},"â":{"ha":826,"x_min":33,"x_max":751,"o":"m 357 -14 q 191 32 264 -14 q 76 157 118 78 q 33 338 33 236 q 76 518 33 439 q 191 643 118 597 q 357 689 264 689 q 480 663 425 689 q 569 590 535 636 q 608 483 604 543 l 608 192 q 570 85 604 132 q 481 13 536 39 q 357 -14 425 -14 m 400 178 q 510 223 468 178 q 551 338 551 268 q 533 421 551 385 q 480 477 514 457 q 401 497 446 497 q 323 477 357 497 q 269 421 289 457 q 249 338 249 385 q 268 256 249 292 q 322 199 288 219 q 400 178 357 178 m 543 0 l 543 182 l 575 346 l 543 510 l 543 675 l 751 675 l 751 0 l 543 0 m 225 746 l 156 838 l 358 1039 l 481 1039 l 683 838 l 614 746 l 340 915 l 501 915 l 225 746 z "},"ä":{"ha":826,"x_min":33,"x_max":751,"o":"m 357 -14 q 191 32 264 -14 q 76 157 118 78 q 33 338 33 236 q 76 518 33 439 q 191 643 118 597 q 357 689 264 689 q 480 663 425 689 q 569 590 535 636 q 608 483 604 543 l 608 192 q 570 85 604 132 q 481 13 536 39 q 357 -14 425 -14 m 400 178 q 510 223 468 178 q 551 338 551 268 q 533 421 551 385 q 480 477 514 457 q 401 497 446 497 q 323 477 357 497 q 269 421 289 457 q 249 338 249 385 q 268 256 249 292 q 322 199 288 219 q 400 178 357 178 m 543 0 l 543 182 l 575 346 l 543 510 l 543 675 l 751 675 l 751 0 l 543 0 m 268 761 q 185 795 218 761 q 153 878 153 829 q 185 961 153 928 q 268 994 218 994 q 350 961 318 994 q 382 878 382 928 q 350 795 382 829 q 268 761 318 761 m 574 761 q 491 795 524 761 q 458 878 458 829 q 491 961 458 928 q 574 994 524 994 q 656 961 624 994 q 688 878 688 928 q 656 795 688 829 q 574 761 624 761 z "},"à":{"ha":826,"x_min":33,"x_max":751,"o":"m 357 -14 q 191 32 264 -14 q 76 157 118 78 q 33 338 33 236 q 76 518 33 439 q 191 643 118 597 q 357 689 264 689 q 480 663 425 689 q 569 590 535 636 q 608 483 604 543 l 608 192 q 570 85 604 132 q 481 13 536 39 q 357 -14 425 -14 m 400 178 q 510 223 468 178 q 551 338 551 268 q 533 421 551 385 q 480 477 514 457 q 401 497 446 497 q 323 477 357 497 q 269 421 289 457 q 249 338 249 385 q 268 256 249 292 q 322 199 288 219 q 400 178 357 178 m 543 0 l 543 182 l 575 346 l 543 510 l 543 675 l 751 675 l 751 0 l 543 0 m 494 751 l 226 896 l 343 1060 l 564 853 l 494 751 z "},"ā":{"ha":826,"x_min":33,"x_max":751,"o":"m 357 -14 q 191 32 264 -14 q 76 157 118 78 q 33 338 33 236 q 76 518 33 439 q 191 643 118 597 q 357 689 264 689 q 480 663 425 689 q 569 590 535 636 q 608 483 604 543 l 608 192 q 570 85 604 132 q 481 13 536 39 q 357 -14 425 -14 m 400 178 q 510 223 468 178 q 551 338 551 268 q 533 421 551 385 q 480 477 514 457 q 401 497 446 497 q 323 477 357 497 q 269 421 289 457 q 249 338 249 385 q 268 256 249 292 q 322 199 288 219 q 400 178 357 178 m 543 0 l 543 182 l 575 346 l 543 510 l 543 675 l 751 675 l 751 0 l 543 0 m 154 958 l 688 958 l 688 801 l 154 801 l 154 958 z "},"ą":{"ha":826,"x_min":33,"x_max":788,"o":"m 357 -14 q 191 32 264 -14 q 76 157 118 78 q 33 338 33 236 q 76 518 33 439 q 191 643 118 597 q 357 689 264 689 q 480 663 425 689 q 569 590 535 636 q 608 483 604 543 l 608 192 q 570 85 604 132 q 481 13 536 39 q 357 -14 425 -14 m 400 178 q 510 223 468 178 q 551 338 551 268 q 533 421 551 385 q 480 477 514 457 q 401 497 446 497 q 323 477 357 497 q 269 421 289 457 q 249 338 249 385 q 268 256 249 292 q 322 199 288 219 q 400 178 357 178 m 543 0 l 543 182 l 575 346 l 543 510 l 543 675 l 751 675 l 751 0 l 543 0 m 644 -299 q 501 -260 557 -299 q 444 -144 444 -222 q 493 -23 444 -72 q 624 44 542 26 l 751 0 q 666 -48 697 -19 q 635 -118 635 -76 q 648 -156 635 -142 q 686 -169 661 -169 q 717 -164 703 -169 q 743 -151 731 -158 l 788 -262 q 726 -288 761 -278 q 644 -299 690 -299 z "},"å":{"ha":826,"x_min":33,"x_max":751,"o":"m 357 -14 q 191 32 264 -14 q 76 157 118 78 q 33 338 33 236 q 76 518 33 439 q 191 643 118 597 q 357 689 264 689 q 480 663 425 689 q 569 590 535 636 q 608 483 604 543 l 608 192 q 570 85 604 132 q 481 13 536 39 q 357 -14 425 -14 m 400 178 q 510 223 468 178 q 551 338 551 268 q 533 421 551 385 q 480 477 514 457 q 401 497 446 497 q 323 477 357 497 q 269 421 289 457 q 249 338 249 385 q 268 256 249 292 q 322 199 288 219 q 400 178 357 178 m 543 0 l 543 182 l 575 346 l 543 510 l 543 675 l 751 675 l 751 0 l 543 0 m 421 740 q 327 764 368 740 q 262 828 286 788 q 238 919 238 868 q 262 1011 238 971 q 327 1076 286 1051 q 421 1100 368 1100 q 513 1076 472 1100 q 578 1011 554 1051 q 601 919 601 971 q 578 828 601 868 q 513 764 554 788 q 421 740 472 740 m 421 857 q 463 875 446 857 q 481 919 481 893 q 463 965 481 947 q 421 982 446 982 q 376 964 393 982 q 360 919 360 946 q 376 875 360 893 q 421 857 393 857 z "},"ã":{"ha":826,"x_min":33,"x_max":751,"o":"m 357 -14 q 191 32 264 -14 q 76 157 118 78 q 33 338 33 236 q 76 518 33 439 q 191 643 118 597 q 357 689 264 689 q 480 663 425 689 q 569 590 535 636 q 608 483 604 543 l 608 192 q 570 85 604 132 q 481 13 536 39 q 357 -14 425 -14 m 400 178 q 510 223 468 178 q 551 338 551 268 q 533 421 551 385 q 480 477 514 457 q 401 497 446 497 q 323 477 357 497 q 269 421 289 457 q 249 338 249 385 q 268 256 249 292 q 322 199 288 219 q 400 178 357 178 m 543 0 l 543 182 l 575 346 l 543 510 l 543 675 l 751 675 l 751 0 l 543 0 m 522 753 q 445 768 478 753 q 385 799 413 783 q 326 814 358 814 q 272 801 294 814 q 231 761 250 788 l 129 861 q 215 950 169 921 q 319 979 260 979 q 397 964 364 979 q 457 933 429 949 q 515 917 485 917 q 571 930 549 917 q 611 971 593 943 l 713 869 q 627 782 672 811 q 522 753 582 753 z "},"æ":{"ha":1299,"x_min":33,"x_max":1271,"o":"m 946 -15 q 751 30 836 -15 q 617 156 665 75 q 568 338 568 236 q 616 519 568 439 q 746 644 664 599 q 931 690 828 690 q 1107 647 1031 690 q 1227 528 1183 604 q 1271 353 1271 451 q 1269 315 1271 335 q 1261 268 1267 294 l 679 267 l 679 413 l 1171 414 l 1079 353 q 1061 449 1078 411 q 1012 508 1044 488 q 932 528 979 528 q 845 505 882 528 q 788 440 808 482 q 768 339 768 399 q 790 237 768 279 q 851 172 811 194 q 944 149 890 149 q 1035 166 994 149 q 1106 218 1075 183 l 1222 101 q 1101 14 1172 43 q 946 -15 1031 -15 m 357 -14 q 191 32 264 -14 q 76 157 118 78 q 33 338 33 236 q 76 518 33 439 q 191 643 118 597 q 357 689 264 689 q 480 663 425 689 q 569 590 535 636 q 608 483 604 543 l 608 192 q 570 85 604 132 q 481 13 536 39 q 357 -14 425 -14 m 400 178 q 510 223 468 178 q 551 338 551 268 q 533 421 551 385 q 480 477 514 457 q 401 497 446 497 q 323 477 357 497 q 269 421 289 457 q 249 338 249 385 q 268 256 249 292 q 322 199 288 219 q 400 178 357 178 m 543 0 l 543 182 l 575 346 l 543 510 l 543 675 l 751 675 l 751 0 l 543 0 z "},"b":{"ha":826,"x_min":75,"x_max":793,"o":"m 464 -14 q 339 15 396 -14 q 246 91 282 43 q 204 199 210 139 l 204 483 q 246 590 210 543 q 339 663 282 636 q 464 689 396 689 q 634 643 560 689 q 751 518 708 597 q 793 338 793 439 q 751 157 793 236 q 634 32 708 78 q 464 -14 560 -14 m 75 0 l 75 1008 l 288 1008 l 288 510 l 253 346 l 285 182 l 285 0 l 75 0 m 426 178 q 505 199 471 178 q 558 256 539 219 q 578 338 578 292 q 558 421 578 385 q 505 477 539 457 q 426 497 471 497 q 347 477 382 497 q 294 421 313 457 q 275 338 275 385 q 294 254 275 290 q 348 198 314 218 q 426 178 382 178 z "},"c":{"ha":689,"x_min":31,"x_max":669,"o":"m 401 -15 q 213 31 297 -15 q 79 157 128 76 q 31 338 31 238 q 80 519 31 439 q 214 644 129 599 q 404 690 299 690 q 549 663 483 690 q 667 582 615 636 l 531 446 q 476 485 507 472 q 404 497 444 497 q 323 477 358 497 q 267 422 288 457 q 247 339 247 386 q 267 256 247 292 q 324 199 288 219 q 404 178 360 178 q 478 192 446 178 q 535 233 511 207 l 669 97 q 550 13 617 42 q 401 -15 483 -15 z "},"ć":{"ha":689,"x_min":31,"x_max":669,"o":"m 401 -15 q 213 31 297 -15 q 79 157 128 76 q 31 338 31 238 q 80 519 31 439 q 214 644 129 599 q 404 690 299 690 q 549 663 483 690 q 667 582 615 636 l 531 446 q 476 485 507 472 q 404 497 444 497 q 323 477 358 497 q 267 422 288 457 q 247 339 247 386 q 267 256 247 292 q 324 199 288 219 q 404 178 360 178 q 478 192 446 178 q 535 233 511 207 l 669 97 q 550 13 617 42 q 401 -15 483 -15 m 296 751 l 226 853 l 447 1060 l 564 896 l 296 751 z "},"č":{"ha":689,"x_min":31,"x_max":669,"o":"m 401 -15 q 213 31 297 -15 q 79 157 128 76 q 31 338 31 238 q 80 519 31 439 q 214 644 129 599 q 404 690 299 690 q 549 663 483 690 q 667 582 615 636 l 531 446 q 476 485 507 472 q 404 497 444 497 q 323 477 358 497 q 267 422 288 457 q 247 339 247 386 q 267 256 247 292 q 324 199 288 219 q 404 178 360 178 q 478 192 446 178 q 535 233 511 207 l 669 97 q 550 13 617 42 q 401 -15 483 -15 m 590 1039 l 660 947 l 457 746 l 335 746 l 132 947 l 201 1039 l 475 869 l 314 871 l 590 1039 z "},"ç":{"ha":689,"x_min":31,"x_max":669,"o":"m 401 -15 q 213 31 297 -15 q 79 157 128 76 q 31 338 31 238 q 80 519 31 439 q 214 644 129 599 q 404 690 299 690 q 549 663 483 690 q 667 582 615 636 l 531 446 q 476 485 507 472 q 404 497 444 497 q 323 477 358 497 q 267 422 288 457 q 247 339 247 386 q 267 256 247 292 q 324 199 288 219 q 404 178 360 178 q 478 192 446 178 q 535 233 511 207 l 669 97 q 550 13 617 42 q 401 -15 483 -15 m 351 -299 q 256 -285 296 -299 q 178 -249 217 -272 l 243 -162 q 283 -184 261 -176 q 331 -192 304 -192 q 372 -183 360 -192 q 385 -161 385 -174 q 369 -139 385 -149 q 322 -129 354 -129 l 278 -129 l 325 18 l 444 18 l 408 -83 l 347 -35 q 490 -70 439 -33 q 540 -167 540 -107 q 489 -260 540 -222 q 351 -299 438 -299 z "},"ċ":{"ha":689,"x_min":31,"x_max":669,"o":"m 401 -15 q 213 31 297 -15 q 79 157 128 76 q 31 338 31 238 q 80 519 31 439 q 214 644 129 599 q 404 690 299 690 q 549 663 483 690 q 667 582 615 636 l 531 446 q 476 485 507 472 q 404 497 444 497 q 323 477 358 497 q 267 422 288 457 q 247 339 247 386 q 267 256 247 292 q 324 199 288 219 q 404 178 360 178 q 478 192 446 178 q 535 233 511 207 l 669 97 q 550 13 617 42 q 401 -15 483 -15 m 397 761 q 315 795 347 761 q 282 878 282 829 q 315 961 282 928 q 397 994 347 994 q 479 961 447 994 q 511 878 511 928 q 479 795 511 829 q 397 761 447 761 z "},"d":{"ha":826,"x_min":33,"x_max":751,"o":"m 363 -14 q 192 32 267 -14 q 76 157 118 78 q 33 338 33 236 q 76 518 33 439 q 192 643 118 597 q 363 689 267 689 q 488 663 432 689 q 581 590 544 636 q 622 483 618 543 l 622 199 q 582 91 618 139 q 489 15 546 43 q 363 -14 432 -14 m 400 178 q 479 198 446 178 q 532 254 513 218 q 551 338 551 290 q 533 420 551 385 q 480 476 514 456 q 401 497 446 497 q 323 476 357 497 q 269 419 289 456 q 249 338 249 383 q 268 256 249 292 q 322 199 288 219 q 400 178 357 178 m 751 0 l 543 0 l 543 182 l 575 346 l 539 510 l 539 1008 l 751 1008 l 751 0 z "},"ð":{"ha":796,"x_min":35,"x_max":763,"o":"m 399 -15 q 215 31 297 -15 q 83 155 132 76 q 35 329 35 233 q 79 497 35 424 q 197 612 124 569 q 361 654 271 654 q 447 641 414 654 q 501 603 479 628 q 542 546 522 579 l 460 553 l 153 981 l 399 981 l 675 579 q 763 326 763 451 q 715 153 763 231 q 585 31 667 76 q 399 -15 503 -15 m 399 175 q 477 196 443 175 q 531 253 511 217 q 550 333 550 289 q 531 415 550 379 q 477 470 511 450 q 399 490 443 490 q 321 470 356 490 q 267 415 286 450 q 247 333 247 379 q 267 253 247 289 q 321 196 286 217 q 399 175 356 175 m 136 667 l 89 786 l 617 981 l 663 861 l 136 667 z "},"ď":{"ha":1133,"x_min":33,"x_max":1072,"o":"m 363 -14 q 192 32 267 -14 q 76 157 118 78 q 33 338 33 236 q 76 518 33 439 q 192 643 118 597 q 363 689 267 689 q 488 663 432 689 q 581 590 544 636 q 622 483 618 543 l 622 199 q 582 91 618 139 q 489 15 546 43 q 363 -14 432 -14 m 400 178 q 479 198 446 178 q 532 254 513 218 q 551 338 551 290 q 533 420 551 385 q 480 476 514 456 q 401 497 446 497 q 323 476 357 497 q 269 419 289 456 q 249 338 249 383 q 268 256 249 292 q 322 199 288 219 q 400 178 357 178 m 751 0 l 543 0 l 543 182 l 575 346 l 539 510 l 539 1008 l 751 1008 l 751 0 m 918 517 l 815 572 l 917 763 l 979 779 q 956 746 969 760 q 924 732 942 732 q 850 765 883 732 q 817 850 817 799 q 853 942 817 904 q 944 981 890 981 q 1034 942 996 981 q 1072 850 1072 904 q 1064 798 1072 828 q 1031 722 1056 768 l 918 517 z "},"đ":{"ha":833,"x_min":33,"x_max":833,"o":"m 342 750 l 342 936 l 833 936 l 833 750 l 342 750 m 363 -14 q 192 32 267 -14 q 76 157 118 78 q 33 338 33 236 q 76 518 33 439 q 192 643 118 597 q 363 689 267 689 q 488 663 432 689 q 581 590 544 636 q 622 483 618 543 l 622 199 q 582 91 618 139 q 489 15 546 43 q 363 -14 432 -14 m 400 178 q 479 198 446 178 q 532 254 513 218 q 551 338 551 290 q 533 420 551 385 q 480 476 514 456 q 401 497 446 497 q 323 476 357 497 q 269 419 289 456 q 249 338 249 383 q 268 256 249 292 q 322 199 288 219 q 400 178 357 178 m 751 0 l 543 0 l 543 182 l 575 346 l 539 510 l 539 1008 l 751 1008 l 751 0 z "},"e":{"ha":761,"x_min":31,"x_max":733,"o":"m 408 -15 q 213 30 299 -15 q 79 156 128 75 q 31 338 31 236 q 78 519 31 439 q 208 644 126 599 q 393 690 290 690 q 569 647 493 690 q 690 528 646 604 q 733 353 733 451 q 731 315 733 335 q 724 268 729 294 l 142 267 l 142 413 l 633 414 l 542 353 q 524 449 540 411 q 474 508 507 488 q 394 528 442 528 q 308 505 344 528 q 251 440 271 482 q 231 339 231 399 q 252 237 231 279 q 313 172 274 194 q 407 149 353 149 q 497 166 457 149 q 568 218 538 183 l 685 101 q 564 14 635 43 q 408 -15 493 -15 z "},"é":{"ha":761,"x_min":31,"x_max":733,"o":"m 408 -15 q 213 30 299 -15 q 79 156 128 75 q 31 338 31 236 q 78 519 31 439 q 208 644 126 599 q 393 690 290 690 q 569 647 493 690 q 690 528 646 604 q 733 353 733 451 q 731 315 733 335 q 724 268 729 294 l 142 267 l 142 413 l 633 414 l 542 353 q 524 449 540 411 q 474 508 507 488 q 394 528 442 528 q 308 505 344 528 q 251 440 271 482 q 231 339 231 399 q 252 237 231 279 q 313 172 274 194 q 407 149 353 149 q 497 166 457 149 q 568 218 538 183 l 685 101 q 564 14 635 43 q 408 -15 493 -15 m 293 751 l 224 853 l 444 1060 l 561 896 l 293 751 z "},"ě":{"ha":761,"x_min":31,"x_max":733,"o":"m 408 -15 q 213 30 299 -15 q 79 156 128 75 q 31 338 31 236 q 78 519 31 439 q 208 644 126 599 q 393 690 290 690 q 569 647 493 690 q 690 528 646 604 q 733 353 733 451 q 731 315 733 335 q 724 268 729 294 l 142 267 l 142 413 l 633 414 l 542 353 q 524 449 540 411 q 474 508 507 488 q 394 528 442 528 q 308 505 344 528 q 251 440 271 482 q 231 339 231 399 q 252 237 231 279 q 313 172 274 194 q 407 149 353 149 q 497 166 457 149 q 568 218 538 183 l 685 101 q 564 14 635 43 q 408 -15 493 -15 m 588 1039 l 657 947 l 454 746 l 332 746 l 129 947 l 199 1039 l 472 869 l 311 871 l 588 1039 z "},"ê":{"ha":761,"x_min":31,"x_max":733,"o":"m 408 -15 q 213 30 299 -15 q 79 156 128 75 q 31 338 31 236 q 78 519 31 439 q 208 644 126 599 q 393 690 290 690 q 569 647 493 690 q 690 528 646 604 q 733 353 733 451 q 731 315 733 335 q 724 268 729 294 l 142 267 l 142 413 l 633 414 l 542 353 q 524 449 540 411 q 474 508 507 488 q 394 528 442 528 q 308 505 344 528 q 251 440 271 482 q 231 339 231 399 q 252 237 231 279 q 313 172 274 194 q 407 149 353 149 q 497 166 457 149 q 568 218 538 183 l 685 101 q 564 14 635 43 q 408 -15 493 -15 m 199 746 l 129 838 l 332 1039 l 454 1039 l 657 838 l 588 746 l 314 915 l 475 915 l 199 746 z "},"ë":{"ha":761,"x_min":31,"x_max":733,"o":"m 408 -15 q 213 30 299 -15 q 79 156 128 75 q 31 338 31 236 q 78 519 31 439 q 208 644 126 599 q 393 690 290 690 q 569 647 493 690 q 690 528 646 604 q 733 353 733 451 q 731 315 733 335 q 724 268 729 294 l 142 267 l 142 413 l 633 414 l 542 353 q 524 449 540 411 q 474 508 507 488 q 394 528 442 528 q 308 505 344 528 q 251 440 271 482 q 231 339 231 399 q 252 237 231 279 q 313 172 274 194 q 407 149 353 149 q 497 166 457 149 q 568 218 538 183 l 685 101 q 564 14 635 43 q 408 -15 493 -15 m 242 761 q 159 795 192 761 q 126 878 126 829 q 159 961 126 928 q 242 994 192 994 q 324 961 292 994 q 356 878 356 928 q 324 795 356 829 q 242 761 292 761 m 547 761 q 465 795 497 761 q 432 878 432 829 q 465 961 432 928 q 547 994 497 994 q 629 961 597 994 q 661 878 661 928 q 629 795 661 829 q 547 761 597 761 z "},"ė":{"ha":761,"x_min":31,"x_max":733,"o":"m 408 -15 q 213 30 299 -15 q 79 156 128 75 q 31 338 31 236 q 78 519 31 439 q 208 644 126 599 q 393 690 290 690 q 569 647 493 690 q 690 528 646 604 q 733 353 733 451 q 731 315 733 335 q 724 268 729 294 l 142 267 l 142 413 l 633 414 l 542 353 q 524 449 540 411 q 474 508 507 488 q 394 528 442 528 q 308 505 344 528 q 251 440 271 482 q 231 339 231 399 q 252 237 231 279 q 313 172 274 194 q 407 149 353 149 q 497 166 457 149 q 568 218 538 183 l 685 101 q 564 14 635 43 q 408 -15 493 -15 m 394 761 q 312 795 344 761 q 279 878 279 829 q 312 961 279 928 q 394 994 344 994 q 476 961 444 994 q 508 878 508 928 q 476 795 508 829 q 394 761 444 761 z "},"è":{"ha":761,"x_min":31,"x_max":733,"o":"m 408 -15 q 213 30 299 -15 q 79 156 128 75 q 31 338 31 236 q 78 519 31 439 q 208 644 126 599 q 393 690 290 690 q 569 647 493 690 q 690 528 646 604 q 733 353 733 451 q 731 315 733 335 q 724 268 729 294 l 142 267 l 142 413 l 633 414 l 542 353 q 524 449 540 411 q 474 508 507 488 q 394 528 442 528 q 308 505 344 528 q 251 440 271 482 q 231 339 231 399 q 252 237 231 279 q 313 172 274 194 q 407 149 353 149 q 497 166 457 149 q 568 218 538 183 l 685 101 q 564 14 635 43 q 408 -15 493 -15 m 467 751 l 199 896 l 315 1060 l 536 853 l 467 751 z "},"ē":{"ha":761,"x_min":31,"x_max":733,"o":"m 408 -15 q 213 30 299 -15 q 79 156 128 75 q 31 338 31 236 q 78 519 31 439 q 208 644 126 599 q 393 690 290 690 q 569 647 493 690 q 690 528 646 604 q 733 353 733 451 q 731 315 733 335 q 724 268 729 294 l 142 267 l 142 413 l 633 414 l 542 353 q 524 449 540 411 q 474 508 507 488 q 394 528 442 528 q 308 505 344 528 q 251 440 271 482 q 231 339 231 399 q 252 237 231 279 q 313 172 274 194 q 407 149 353 149 q 497 166 457 149 q 568 218 538 183 l 685 101 q 564 14 635 43 q 408 -15 493 -15 m 126 958 l 660 958 l 660 801 l 126 801 l 126 958 z "},"ę":{"ha":761,"x_min":31,"x_max":733,"o":"m 408 -15 q 213 30 299 -15 q 79 156 128 75 q 31 338 31 236 q 78 519 31 439 q 208 644 126 599 q 393 690 290 690 q 569 647 493 690 q 690 528 646 604 q 733 353 733 451 q 731 315 733 335 q 724 268 729 294 l 142 267 l 142 413 l 633 414 l 542 353 q 524 449 540 411 q 474 508 507 488 q 394 528 442 528 q 308 505 344 528 q 251 440 271 482 q 231 339 231 399 q 252 237 231 279 q 313 172 274 194 q 407 149 353 149 q 497 166 457 149 q 568 218 538 183 l 685 101 q 564 14 635 43 q 408 -15 493 -15 m 454 -285 q 310 -247 367 -285 q 254 -131 254 -208 q 303 -9 254 -58 q 433 58 351 40 l 561 14 q 476 -34 507 -6 q 444 -104 444 -62 q 458 -142 444 -128 q 496 -156 471 -156 q 526 -150 513 -156 q 553 -137 540 -144 l 597 -249 q 535 -274 571 -264 q 454 -285 500 -285 z "},"f":{"ha":606,"x_min":13,"x_max":672,"o":"m 161 0 l 161 733 q 198 881 161 815 q 301 985 235 947 q 460 1024 368 1024 q 581 1001 529 1024 q 672 938 633 978 l 539 804 q 508 826 525 818 q 467 833 490 833 q 399 808 424 833 q 374 740 374 783 l 374 0 l 161 0 m 13 494 l 13 675 l 568 675 l 568 494 l 13 494 z "},"g":{"ha":811,"x_min":31,"x_max":736,"o":"m 361 -303 q 166 -265 250 -303 q 33 -157 82 -226 l 164 -26 q 245 -92 200 -69 q 354 -114 290 -114 q 478 -75 433 -114 q 524 35 524 -36 l 524 207 l 560 354 l 528 501 l 528 675 l 736 675 l 736 40 q 688 -140 736 -64 q 554 -260 639 -217 q 361 -303 469 -303 m 351 21 q 186 65 258 21 q 72 186 114 110 q 31 356 31 263 q 72 526 31 450 q 186 645 114 601 q 351 689 258 689 q 476 663 421 689 q 565 591 531 638 q 603 483 599 544 l 603 226 q 565 120 599 167 q 475 47 531 74 q 351 21 419 21 m 392 210 q 469 229 436 210 q 519 281 501 249 q 536 356 536 314 q 519 431 536 397 q 469 483 501 464 q 392 503 436 503 q 315 483 349 503 q 264 431 282 464 q 246 356 246 397 q 264 283 246 317 q 315 229 282 249 q 392 210 347 210 z "},"ğ":{"ha":811,"x_min":31,"x_max":736,"o":"m 361 -303 q 166 -265 250 -303 q 33 -157 82 -226 l 164 -26 q 245 -92 200 -69 q 354 -114 290 -114 q 478 -75 433 -114 q 524 35 524 -36 l 524 207 l 560 354 l 528 501 l 528 675 l 736 675 l 736 40 q 688 -140 736 -64 q 554 -260 639 -217 q 361 -303 469 -303 m 351 21 q 186 65 258 21 q 72 186 114 110 q 31 356 31 263 q 72 526 31 450 q 186 645 114 601 q 351 689 258 689 q 476 663 421 689 q 565 591 531 638 q 603 483 599 544 l 603 226 q 565 120 599 167 q 475 47 531 74 q 351 21 419 21 m 392 210 q 469 229 436 210 q 519 281 501 249 q 536 356 536 314 q 519 431 536 397 q 469 483 501 464 q 392 503 436 503 q 315 483 349 503 q 264 431 282 464 q 246 356 246 397 q 264 283 246 317 q 315 229 282 249 q 392 210 347 210 m 683 1001 q 649 869 683 928 q 555 775 614 810 q 421 740 496 740 q 286 775 346 740 q 191 869 226 810 q 156 1001 156 928 l 322 1001 q 349 929 322 958 q 422 900 376 900 q 471 913 450 900 q 505 949 492 926 q 518 1001 518 972 l 683 1001 z "},"ģ":{"ha":811,"x_min":31,"x_max":736,"o":"m 361 -303 q 166 -265 250 -303 q 33 -157 82 -226 l 164 -26 q 245 -92 200 -69 q 354 -114 290 -114 q 478 -75 433 -114 q 524 35 524 -36 l 524 207 l 560 354 l 528 501 l 528 675 l 736 675 l 736 40 q 688 -140 736 -64 q 554 -260 639 -217 q 361 -303 469 -303 m 351 21 q 186 65 258 21 q 72 186 114 110 q 31 356 31 263 q 72 526 31 450 q 186 645 114 601 q 351 689 258 689 q 476 663 421 689 q 565 591 531 638 q 603 483 599 544 l 603 226 q 565 120 599 167 q 475 47 531 74 q 351 21 419 21 m 392 210 q 469 229 436 210 q 519 281 501 249 q 536 356 536 314 q 519 431 536 397 q 469 483 501 464 q 392 503 436 503 q 315 483 349 503 q 264 431 282 464 q 246 356 246 397 q 264 283 246 317 q 315 229 282 249 q 392 210 347 210 m 571 1115 l 444 943 l 379 935 q 409 965 393 954 q 442 974 425 975 q 509 929 482 967 q 528 842 536 892 q 478 756 519 789 q 383 732 438 724 q 301 783 332 740 q 278 881 269 826 q 294 931 282 903 q 339 1000 307 958 l 478 1186 l 571 1115 z "},"ġ":{"ha":811,"x_min":31,"x_max":736,"o":"m 361 -303 q 166 -265 250 -303 q 33 -157 82 -226 l 164 -26 q 245 -92 200 -69 q 354 -114 290 -114 q 478 -75 433 -114 q 524 35 524 -36 l 524 207 l 560 354 l 528 501 l 528 675 l 736 675 l 736 40 q 688 -140 736 -64 q 554 -260 639 -217 q 361 -303 469 -303 m 351 21 q 186 65 258 21 q 72 186 114 110 q 31 356 31 263 q 72 526 31 450 q 186 645 114 601 q 351 689 258 689 q 476 663 421 689 q 565 591 531 638 q 603 483 599 544 l 603 226 q 565 120 599 167 q 475 47 531 74 q 351 21 419 21 m 392 210 q 469 229 436 210 q 519 281 501 249 q 536 356 536 314 q 519 431 536 397 q 469 483 501 464 q 392 503 436 503 q 315 483 349 503 q 264 431 282 464 q 246 356 246 397 q 264 283 246 317 q 315 229 282 249 q 392 210 347 210 m 421 761 q 338 795 371 761 q 306 878 306 829 q 338 961 306 928 q 421 994 371 994 q 503 961 471 994 q 535 878 535 928 q 503 795 535 829 q 421 761 471 761 z "},"h":{"ha":794,"x_min":75,"x_max":733,"o":"m 521 0 l 521 385 q 488 470 521 438 q 406 503 456 503 q 344 488 371 503 q 303 447 318 474 q 288 385 288 419 l 206 425 q 239 564 206 504 q 332 656 272 624 q 469 689 392 689 q 608 656 549 689 q 701 566 668 624 q 733 432 733 508 l 733 0 l 521 0 m 75 0 l 75 1008 l 288 1008 l 288 0 l 75 0 z "},"ħ":{"ha":794,"x_min":0,"x_max":733,"o":"m 0 750 l 0 936 l 492 936 l 492 750 l 0 750 m 521 0 l 521 385 q 488 470 521 438 q 406 503 456 503 q 344 488 371 503 q 303 447 318 474 q 288 385 288 419 l 206 425 q 239 564 206 504 q 332 656 272 624 q 469 689 392 689 q 608 656 549 689 q 701 566 668 624 q 733 432 733 508 l 733 0 l 521 0 m 75 0 l 75 1008 l 288 1008 l 288 0 l 75 0 z "},"i":{"ha":363,"x_min":67,"x_max":296,"o":"m 75 0 l 75 675 l 288 675 l 288 0 l 75 0 m 182 768 q 99 802 132 768 q 67 885 67 836 q 99 968 67 935 q 182 1001 132 1001 q 264 968 232 1001 q 296 885 296 935 q 264 802 296 836 q 182 768 232 768 z "},"ı":{"ha":363,"x_min":75,"x_max":288,"o":"m 75 0 l 75 675 l 288 675 l 288 0 l 75 0 z "},"í":{"ha":363,"x_min":13,"x_max":350,"o":"m 75 0 l 75 675 l 288 675 l 288 0 l 75 0 m 82 751 l 13 853 l 233 1060 l 350 896 l 82 751 z "},"î":{"ha":363,"x_min":-83,"x_max":444,"o":"m 75 0 l 75 675 l 288 675 l 288 0 l 75 0 m -14 746 l -83 838 l 119 1039 l 242 1039 l 444 838 l 375 746 l 101 915 l 263 915 l -14 746 z "},"ï":{"ha":363,"x_min":-86,"x_max":449,"o":"m 75 0 l 75 675 l 288 675 l 288 0 l 75 0 m 29 761 q -53 795 -21 761 q -86 878 -86 829 q -53 961 -86 928 q 29 994 -21 994 q 111 961 79 994 q 143 878 143 928 q 111 795 143 829 q 29 761 79 761 m 335 761 q 252 795 285 761 q 219 878 219 829 q 252 961 219 928 q 335 994 285 994 q 417 961 385 994 q 449 878 449 928 q 417 795 449 829 q 335 761 385 761 z "},"ì":{"ha":363,"x_min":-12,"x_max":325,"o":"m 75 0 l 75 675 l 288 675 l 288 0 l 75 0 m 256 751 l -12 896 l 104 1060 l 325 853 l 256 751 z "},"ĳ":{"ha":742,"x_min":67,"x_max":676,"o":"m 75 0 l 75 675 l 288 675 l 288 0 l 75 0 m 182 768 q 99 802 132 768 q 67 885 67 836 q 99 968 67 935 q 182 1001 132 1001 q 264 968 232 1001 q 296 885 296 935 q 264 802 296 836 q 182 768 232 768 m 399 -303 q 274 -278 325 -303 q 183 -210 222 -254 l 315 -78 q 347 -103 331 -96 q 383 -111 363 -111 q 434 -93 414 -111 q 454 -37 454 -75 l 454 675 l 667 675 l 667 -35 q 632 -176 667 -117 q 537 -269 597 -236 q 399 -303 476 -303 m 563 768 q 480 802 513 768 q 447 885 447 836 q 480 968 447 935 q 563 1001 513 1001 q 644 968 613 1001 q 676 885 676 935 q 644 802 676 836 q 563 768 613 768 z "},"ī":{"ha":363,"x_min":-72,"x_max":436,"o":"m -72 958 l 436 958 l 436 801 l -72 801 l -72 958 m 75 0 l 75 675 l 288 675 l 288 0 l 75 0 z "},"į":{"ha":363,"x_min":-19,"x_max":324,"o":"m 75 0 l 75 675 l 288 675 l 288 0 l 75 0 m 182 768 q 99 802 132 768 q 67 885 67 836 q 99 968 67 935 q 182 1001 132 1001 q 264 968 232 1001 q 296 885 296 935 q 264 802 296 836 q 182 768 232 768 m 181 -299 q 37 -260 93 -299 q -19 -144 -19 -222 q 29 -23 -19 -72 q 160 44 78 26 l 288 0 q 202 -48 233 -19 q 171 -118 171 -76 q 184 -156 171 -142 q 222 -169 197 -169 q 253 -164 239 -169 q 279 -151 267 -158 l 324 -262 q 262 -288 297 -278 q 181 -299 226 -299 z "},"j":{"ha":379,"x_min":-179,"x_max":314,"o":"m 36 -303 q -89 -278 -37 -303 q -179 -210 -140 -254 l -47 -78 q -16 -103 -32 -96 q 21 -111 0 -111 q 72 -93 51 -111 q 92 -37 92 -75 l 92 675 l 304 675 l 304 -35 q 269 -176 304 -117 q 174 -269 235 -236 q 36 -303 114 -303 m 200 768 q 117 802 150 768 q 85 885 85 836 q 117 968 85 935 q 200 1001 150 1001 q 282 968 250 1001 q 314 885 314 935 q 282 802 314 836 q 200 768 250 768 z "},"ȷ":{"ha":379,"x_min":-179,"x_max":304,"o":"m 36 -303 q -89 -278 -37 -303 q -179 -210 -140 -254 l -47 -78 q -16 -103 -32 -96 q 21 -111 0 -111 q 72 -93 51 -111 q 92 -37 92 -75 l 92 675 l 304 675 l 304 -35 q 269 -176 304 -117 q 174 -269 235 -236 q 36 -303 114 -303 z "},"k":{"ha":758,"x_min":75,"x_max":757,"o":"m 507 0 l 271 350 l 506 675 l 743 675 l 460 310 l 467 397 l 757 0 l 507 0 m 75 0 l 75 1008 l 288 1008 l 288 0 l 75 0 z "},"ķ":{"ha":758,"x_min":75,"x_max":757,"o":"m 507 0 l 271 350 l 506 675 l 743 675 l 460 310 l 467 397 l 757 0 l 507 0 m 75 0 l 75 1008 l 288 1008 l 288 0 l 75 0 m 328 -551 l 235 -481 l 360 -308 l 425 -301 q 397 -331 413 -319 q 363 -339 381 -342 q 297 -295 324 -333 q 276 -207 269 -257 q 326 -122 285 -154 q 422 -99 368 -90 q 504 -150 472 -107 q 526 -247 536 -193 q 510 -296 524 -268 q 465 -365 497 -324 l 328 -551 z "},"l":{"ha":363,"x_min":75,"x_max":288,"o":"m 75 0 l 75 1008 l 288 1008 l 288 0 l 75 0 z "},"ĺ":{"ha":363,"x_min":75,"x_max":419,"o":"m 75 0 l 75 1008 l 288 1008 l 288 0 l 75 0 m 151 1057 l 82 1158 l 303 1365 l 419 1201 l 151 1057 z "},"ľ":{"ha":669,"x_min":75,"x_max":608,"o":"m 75 0 l 75 1008 l 288 1008 l 288 0 l 75 0 m 454 517 l 351 572 l 453 763 l 515 779 q 492 746 506 760 q 460 732 478 732 q 386 765 419 732 q 353 850 353 799 q 390 942 353 904 q 481 981 426 981 q 570 942 532 981 q 608 850 608 904 q 600 798 608 828 q 567 722 592 768 l 454 517 z "},"ļ":{"ha":363,"x_min":21,"x_max":322,"o":"m 75 0 l 75 1008 l 288 1008 l 288 0 l 75 0 m 115 -551 l 22 -481 l 147 -308 l 213 -301 q 184 -331 200 -319 q 150 -339 168 -342 q 84 -295 111 -333 q 64 -207 57 -257 q 114 -122 72 -154 q 210 -99 156 -90 q 292 -150 260 -107 q 314 -247 324 -193 q 298 -296 311 -268 q 253 -365 285 -324 l 115 -551 z "},"ł":{"ha":533,"x_min":75,"x_max":458,"o":"m 75 486 l 458 707 l 458 525 l 75 304 l 75 486 m 160 0 l 160 1008 l 372 1008 l 372 0 l 160 0 z "},"m":{"ha":1213,"x_min":75,"x_max":1151,"o":"m 75 0 l 75 675 l 288 675 l 288 0 l 75 0 m 507 0 l 507 394 q 476 474 507 446 q 399 503 444 503 q 342 490 367 503 q 302 453 317 476 q 288 394 288 429 l 206 431 q 240 569 206 511 q 335 658 275 626 q 469 689 394 689 q 597 657 540 689 q 686 568 653 625 q 719 432 719 511 l 719 0 l 507 0 m 939 0 l 939 394 q 908 474 939 446 q 831 503 876 503 q 774 490 799 503 q 734 453 749 476 q 719 394 719 429 l 597 411 q 638 559 600 497 q 740 655 676 621 q 882 689 803 689 q 1020 656 960 689 q 1116 563 1081 624 q 1151 418 1151 503 l 1151 0 l 939 0 z "},"n":{"ha":794,"x_min":75,"x_max":733,"o":"m 521 0 l 521 385 q 488 470 521 438 q 406 503 456 503 q 344 488 371 503 q 303 447 318 474 q 288 385 288 419 l 206 425 q 240 564 206 504 q 337 656 275 624 q 476 689 399 689 q 609 653 551 689 q 700 560 667 618 q 733 432 733 501 l 733 0 l 521 0 m 75 0 l 75 675 l 288 675 l 288 0 l 75 0 z "},"ń":{"ha":794,"x_min":75,"x_max":733,"o":"m 521 0 l 521 385 q 488 470 521 438 q 406 503 456 503 q 344 488 371 503 q 303 447 318 474 q 288 385 288 419 l 206 425 q 240 564 206 504 q 337 656 275 624 q 476 689 399 689 q 609 653 551 689 q 700 560 667 618 q 733 432 733 501 l 733 0 l 521 0 m 75 0 l 75 675 l 288 675 l 288 0 l 75 0 m 299 751 l 229 853 l 450 1060 l 567 896 l 299 751 z "},"ň":{"ha":794,"x_min":75,"x_max":733,"o":"m 521 0 l 521 385 q 488 470 521 438 q 406 503 456 503 q 344 488 371 503 q 303 447 318 474 q 288 385 288 419 l 206 425 q 240 564 206 504 q 337 656 275 624 q 476 689 399 689 q 609 653 551 689 q 700 560 667 618 q 733 432 733 501 l 733 0 l 521 0 m 75 0 l 75 675 l 288 675 l 288 0 l 75 0 m 592 1039 l 661 947 l 458 746 l 336 746 l 133 947 l 203 1039 l 478 869 l 317 871 l 592 1039 z "},"ņ":{"ha":794,"x_min":75,"x_max":733,"o":"m 521 0 l 521 385 q 488 470 521 438 q 406 503 456 503 q 344 488 371 503 q 303 447 318 474 q 288 385 288 419 l 206 425 q 240 564 206 504 q 337 656 275 624 q 476 689 399 689 q 609 653 551 689 q 700 560 667 618 q 733 432 733 501 l 733 0 l 521 0 m 75 0 l 75 675 l 288 675 l 288 0 l 75 0 m 332 -551 l 239 -481 l 364 -308 l 429 -301 q 401 -331 417 -319 q 367 -339 385 -342 q 301 -295 328 -333 q 281 -207 274 -257 q 331 -122 289 -154 q 426 -99 372 -90 q 508 -150 476 -107 q 531 -247 540 -193 q 515 -296 528 -268 q 469 -365 501 -324 l 332 -551 z "},"ñ":{"ha":794,"x_min":75,"x_max":733,"o":"m 521 0 l 521 385 q 488 470 521 438 q 406 503 456 503 q 344 488 371 503 q 303 447 318 474 q 288 385 288 419 l 206 425 q 240 564 206 504 q 337 656 275 624 q 476 689 399 689 q 609 653 551 689 q 700 560 667 618 q 733 432 733 501 l 733 0 l 521 0 m 75 0 l 75 675 l 288 675 l 288 0 l 75 0 m 500 753 q 423 768 456 753 q 363 799 390 783 q 304 814 336 814 q 250 801 272 814 q 208 761 228 788 l 107 861 q 192 950 147 921 q 297 979 238 979 q 374 964 342 979 q 435 933 407 949 q 493 917 463 917 q 549 930 526 917 q 589 971 571 943 l 690 869 q 605 782 650 811 q 500 753 560 753 z "},"ŋ":{"ha":794,"x_min":75,"x_max":733,"o":"m 465 -303 q 340 -278 392 -303 q 250 -210 289 -254 l 382 -78 q 413 -103 397 -96 q 450 -111 429 -111 q 501 -93 481 -111 q 521 -37 521 -75 l 521 199 l 733 199 l 733 -35 q 699 -176 733 -117 q 603 -269 664 -236 q 465 -303 543 -303 m 521 0 l 521 385 q 488 470 521 438 q 406 503 456 503 q 344 488 371 503 q 303 447 318 474 q 288 385 288 419 l 206 425 q 240 564 206 504 q 337 656 275 624 q 476 689 399 689 q 609 653 551 689 q 700 560 667 618 q 733 432 733 501 l 733 0 l 521 0 m 75 0 l 75 675 l 288 675 l 288 0 l 75 0 z "},"o":{"ha":800,"x_min":31,"x_max":769,"o":"m 400 -15 q 212 31 296 -15 q 79 158 128 78 q 31 339 31 239 q 79 518 31 439 q 211 644 128 597 q 400 690 294 690 q 589 644 506 690 q 721 519 672 599 q 769 339 769 439 q 721 158 769 239 q 589 31 672 78 q 400 -15 506 -15 m 400 178 q 481 198 446 178 q 534 255 515 218 q 553 339 553 292 q 533 422 553 386 q 480 477 514 457 q 400 497 446 497 q 321 477 356 497 q 267 421 286 457 q 247 338 247 385 q 267 255 247 292 q 321 198 286 218 q 400 178 356 178 z "},"ó":{"ha":800,"x_min":31,"x_max":769,"o":"m 400 -15 q 212 31 296 -15 q 79 158 128 78 q 31 339 31 239 q 79 518 31 439 q 211 644 128 597 q 400 690 294 690 q 589 644 506 690 q 721 519 672 599 q 769 339 769 439 q 721 158 769 239 q 589 31 672 78 q 400 -15 506 -15 m 400 178 q 481 198 446 178 q 534 255 515 218 q 553 339 553 292 q 533 422 553 386 q 480 477 514 457 q 400 497 446 497 q 321 477 356 497 q 267 421 286 457 q 247 338 247 385 q 267 255 247 292 q 321 198 286 218 q 400 178 356 178 m 300 751 l 231 853 l 451 1060 l 568 896 l 300 751 z "},"ô":{"ha":800,"x_min":31,"x_max":769,"o":"m 400 -15 q 212 31 296 -15 q 79 158 128 78 q 31 339 31 239 q 79 518 31 439 q 211 644 128 597 q 400 690 294 690 q 589 644 506 690 q 721 519 672 599 q 769 339 769 439 q 721 158 769 239 q 589 31 672 78 q 400 -15 506 -15 m 400 178 q 481 198 446 178 q 534 255 515 218 q 553 339 553 292 q 533 422 553 386 q 480 477 514 457 q 400 497 446 497 q 321 477 356 497 q 267 421 286 457 q 247 338 247 385 q 267 255 247 292 q 321 198 286 218 q 400 178 356 178 m 206 746 l 136 838 l 339 1039 l 461 1039 l 664 838 l 594 746 l 321 915 l 482 915 l 206 746 z "},"ö":{"ha":800,"x_min":31,"x_max":769,"o":"m 400 -15 q 212 31 296 -15 q 79 158 128 78 q 31 339 31 239 q 79 518 31 439 q 211 644 128 597 q 400 690 294 690 q 589 644 506 690 q 721 519 672 599 q 769 339 769 439 q 721 158 769 239 q 589 31 672 78 q 400 -15 506 -15 m 400 178 q 481 198 446 178 q 534 255 515 218 q 553 339 553 292 q 533 422 553 386 q 480 477 514 457 q 400 497 446 497 q 321 477 356 497 q 267 421 286 457 q 247 338 247 385 q 267 255 247 292 q 321 198 286 218 q 400 178 356 178 m 249 761 q 166 795 199 761 q 133 878 133 829 q 166 961 133 928 q 249 994 199 994 q 331 961 299 994 q 363 878 363 928 q 331 795 363 829 q 249 761 299 761 m 554 761 q 472 795 504 761 q 439 878 439 829 q 472 961 439 928 q 554 994 504 994 q 636 961 604 994 q 668 878 668 928 q 636 795 668 829 q 554 761 604 761 z "},"ò":{"ha":800,"x_min":31,"x_max":769,"o":"m 400 -15 q 212 31 296 -15 q 79 158 128 78 q 31 339 31 239 q 79 518 31 439 q 211 644 128 597 q 400 690 294 690 q 589 644 506 690 q 721 519 672 599 q 769 339 769 439 q 721 158 769 239 q 589 31 672 78 q 400 -15 506 -15 m 400 178 q 481 198 446 178 q 534 255 515 218 q 553 339 553 292 q 533 422 553 386 q 480 477 514 457 q 400 497 446 497 q 321 477 356 497 q 267 421 286 457 q 247 338 247 385 q 267 255 247 292 q 321 198 286 218 q 400 178 356 178 m 474 751 l 206 896 l 322 1060 l 543 853 l 474 751 z "},"ő":{"ha":800,"x_min":31,"x_max":769,"o":"m 400 -15 q 212 31 296 -15 q 79 158 128 78 q 31 339 31 239 q 79 518 31 439 q 211 644 128 597 q 400 690 294 690 q 589 644 506 690 q 721 519 672 599 q 769 339 769 439 q 721 158 769 239 q 589 31 672 78 q 400 -15 506 -15 m 400 178 q 481 198 446 178 q 534 255 515 218 q 553 339 553 292 q 533 422 553 386 q 480 477 514 457 q 400 497 446 497 q 321 477 356 497 q 267 421 286 457 q 247 338 247 385 q 267 255 247 292 q 321 198 286 218 q 400 178 356 178 m 219 760 l 113 824 l 226 1104 l 401 1004 l 219 760 m 536 760 l 429 824 l 543 1104 l 718 1004 l 536 760 z "},"ō":{"ha":800,"x_min":31,"x_max":769,"o":"m 400 -15 q 212 31 296 -15 q 79 158 128 78 q 31 339 31 239 q 79 518 31 439 q 211 644 128 597 q 400 690 294 690 q 589 644 506 690 q 721 519 672 599 q 769 339 769 439 q 721 158 769 239 q 589 31 672 78 q 400 -15 506 -15 m 400 178 q 481 198 446 178 q 534 255 515 218 q 553 339 553 292 q 533 422 553 386 q 480 477 514 457 q 400 497 446 497 q 321 477 356 497 q 267 421 286 457 q 247 338 247 385 q 267 255 247 292 q 321 198 286 218 q 400 178 356 178 m 133 958 l 667 958 l 667 801 l 133 801 l 133 958 z "},"ø":{"ha":800,"x_min":22,"x_max":778,"o":"m 122 -42 l 22 58 l 678 715 l 778 615 l 122 -42 m 399 -15 q 211 31 294 -15 q 79 158 128 78 q 31 339 31 239 q 79 518 31 439 q 211 644 128 597 q 400 690 294 690 q 589 644 506 690 q 721 519 672 599 q 769 339 769 439 q 721 158 769 239 q 588 31 672 78 q 399 -15 504 -15 m 399 157 q 490 180 451 157 q 551 244 529 203 q 574 338 574 285 q 551 433 574 392 q 490 497 529 474 q 399 519 451 519 q 309 497 349 519 q 247 433 269 474 q 225 339 225 393 q 247 244 225 285 q 308 180 269 203 q 399 157 347 157 z "},"õ":{"ha":800,"x_min":31,"x_max":769,"o":"m 400 -15 q 212 31 296 -15 q 79 158 128 78 q 31 339 31 239 q 79 518 31 439 q 211 644 128 597 q 400 690 294 690 q 589 644 506 690 q 721 519 672 599 q 769 339 769 439 q 721 158 769 239 q 589 31 672 78 q 400 -15 506 -15 m 400 178 q 481 198 446 178 q 534 255 515 218 q 553 339 553 292 q 533 422 553 386 q 480 477 514 457 q 400 497 446 497 q 321 477 356 497 q 267 421 286 457 q 247 338 247 385 q 267 255 247 292 q 321 198 286 218 q 400 178 356 178 m 501 753 q 424 768 457 753 q 365 799 392 783 q 306 814 338 814 q 251 801 274 814 q 210 761 229 788 l 108 861 q 194 950 149 921 q 299 979 239 979 q 376 964 343 979 q 436 933 408 949 q 494 917 464 917 q 550 930 528 917 q 590 971 572 943 l 692 869 q 606 782 651 811 q 501 753 561 753 z "},"œ":{"ha":1299,"x_min":31,"x_max":1271,"o":"m 400 -15 q 212 31 296 -15 q 79 158 128 78 q 31 339 31 239 q 79 518 31 439 q 211 644 128 597 q 400 690 294 690 q 589 644 506 690 q 721 519 672 599 q 769 339 769 439 q 721 158 769 239 q 589 31 672 78 q 400 -15 506 -15 m 400 178 q 481 198 446 178 q 534 255 515 218 q 553 339 553 292 q 533 422 553 386 q 480 477 514 457 q 400 497 446 497 q 321 477 356 497 q 267 421 286 457 q 247 338 247 385 q 267 255 247 292 q 321 198 286 218 q 400 178 356 178 m 946 -15 q 751 30 836 -15 q 617 156 665 75 q 568 338 568 236 q 616 519 568 439 q 746 644 664 599 q 931 690 828 690 q 1107 647 1031 690 q 1227 528 1183 604 q 1271 353 1271 451 q 1269 315 1271 335 q 1261 268 1267 294 l 679 267 l 679 413 l 1171 414 l 1079 353 q 1061 449 1078 411 q 1012 508 1044 488 q 932 528 979 528 q 845 505 882 528 q 788 440 808 482 q 768 339 768 399 q 790 237 768 279 q 851 172 811 194 q 944 149 890 149 q 1035 166 994 149 q 1106 218 1075 183 l 1222 101 q 1101 14 1172 43 q 946 -15 1031 -15 z "},"p":{"ha":826,"x_min":75,"x_max":793,"o":"m 464 -14 q 339 13 396 -14 q 246 85 282 39 q 204 192 210 132 l 204 476 q 246 585 210 536 q 339 661 282 633 q 464 689 396 689 q 634 643 560 689 q 751 518 708 597 q 793 338 793 439 q 751 157 793 236 q 634 32 708 78 q 464 -14 560 -14 m 75 -285 l 75 675 l 288 675 l 288 501 l 253 338 l 285 174 l 285 -285 l 75 -285 m 425 178 q 505 199 471 178 q 558 256 539 219 q 578 338 578 292 q 558 421 578 385 q 505 477 539 457 q 426 497 471 497 q 348 477 382 497 q 294 421 314 457 q 275 338 275 385 q 294 256 275 292 q 347 199 313 219 q 425 178 382 178 z "},"þ":{"ha":826,"x_min":75,"x_max":793,"o":"m 464 -14 q 339 13 396 -14 q 246 85 282 39 q 204 192 210 132 l 204 476 q 246 585 210 536 q 339 661 282 633 q 464 689 396 689 q 634 643 560 689 q 751 518 708 597 q 793 338 793 439 q 751 157 793 236 q 634 32 708 78 q 464 -14 560 -14 m 75 -285 l 75 1008 l 288 1008 l 288 501 l 253 338 l 285 174 l 285 -285 l 75 -285 m 426 178 q 505 198 471 178 q 558 254 539 218 q 578 338 578 290 q 558 421 578 385 q 505 477 539 457 q 426 497 471 497 q 348 477 382 497 q 294 421 314 457 q 275 338 275 385 q 294 256 275 292 q 347 199 313 219 q 426 178 381 178 z "},"q":{"ha":826,"x_min":33,"x_max":751,"o":"m 357 -14 q 191 32 264 -14 q 76 157 118 78 q 33 338 33 236 q 76 518 33 439 q 191 643 118 597 q 357 689 264 689 q 480 663 425 689 q 569 590 535 636 q 608 483 604 543 l 608 192 q 570 85 604 132 q 481 13 536 39 q 357 -14 425 -14 m 400 178 q 510 223 468 178 q 551 338 551 268 q 533 421 551 385 q 480 477 514 457 q 401 497 446 497 q 323 477 357 497 q 269 421 289 457 q 249 338 249 385 q 268 256 249 292 q 322 199 288 219 q 400 178 357 178 m 543 -285 l 543 174 l 575 338 l 543 501 l 543 675 l 751 675 l 751 -285 l 543 -285 z "},"r":{"ha":617,"x_min":75,"x_max":611,"o":"m 75 0 l 75 675 l 288 675 l 288 0 l 75 0 m 288 371 l 199 440 q 288 624 225 558 q 461 689 350 689 q 547 674 510 689 q 611 629 583 660 l 485 469 q 450 493 471 485 q 403 501 429 501 q 319 469 350 501 q 288 371 288 436 z "},"ŕ":{"ha":617,"x_min":75,"x_max":611,"o":"m 75 0 l 75 675 l 288 675 l 288 0 l 75 0 m 288 371 l 199 440 q 288 624 225 558 q 461 689 350 689 q 547 674 510 689 q 611 629 583 660 l 485 469 q 450 493 471 485 q 403 501 429 501 q 319 469 350 501 q 288 371 288 436 m 218 751 l 149 853 l 369 1060 l 486 896 l 218 751 z "},"ř":{"ha":617,"x_min":54,"x_max":611,"o":"m 75 0 l 75 675 l 288 675 l 288 0 l 75 0 m 288 371 l 199 440 q 288 624 225 558 q 461 689 351 689 q 547 674 510 689 q 611 629 583 660 l 485 469 q 451 493 471 485 q 403 501 431 501 q 319 469 350 501 q 288 371 288 436 m 513 1039 l 582 947 l 379 746 l 257 746 l 54 947 l 124 1039 l 397 869 l 236 871 l 513 1039 z "},"ŗ":{"ha":617,"x_min":21,"x_max":611,"o":"m 75 0 l 75 675 l 288 675 l 288 0 l 75 0 m 288 371 l 199 440 q 288 624 225 558 q 461 689 350 689 q 547 674 510 689 q 611 629 583 660 l 485 469 q 450 493 471 485 q 403 501 429 501 q 319 469 350 501 q 288 371 288 436 m 115 -551 l 22 -481 l 147 -308 l 213 -301 q 184 -331 200 -319 q 150 -339 168 -342 q 84 -295 111 -333 q 64 -207 57 -257 q 114 -122 72 -154 q 210 -99 156 -90 q 292 -150 260 -107 q 314 -247 324 -193 q 298 -296 311 -268 q 253 -365 285 -324 l 115 -551 z "},"s":{"ha":636,"x_min":13,"x_max":610,"o":"m 321 -17 q 203 -1 261 -17 q 97 42 146 14 q 13 108 47 71 l 133 231 q 213 174 167 194 q 313 154 258 154 q 370 165 350 154 q 390 196 390 176 q 366 234 390 221 q 304 258 342 247 q 225 281 267 268 q 146 315 183 293 q 85 377 108 338 q 61 478 61 417 q 94 591 61 543 q 189 667 128 639 q 332 694 250 694 q 491 665 418 694 q 610 576 564 635 l 489 454 q 417 507 457 492 q 340 522 378 522 q 286 512 304 522 q 268 482 268 501 q 292 449 268 461 q 353 426 315 436 q 432 403 390 417 q 511 365 474 389 q 572 302 549 342 q 596 199 596 263 q 522 42 596 100 q 321 -17 447 -17 z "},"ś":{"ha":636,"x_min":13,"x_max":610,"o":"m 321 -17 q 203 -1 261 -17 q 97 42 146 14 q 13 108 47 71 l 133 231 q 213 174 167 194 q 313 154 258 154 q 370 165 350 154 q 390 196 390 176 q 366 234 390 221 q 304 258 342 247 q 225 281 267 268 q 146 315 183 293 q 85 377 108 338 q 61 478 61 417 q 94 591 61 543 q 189 667 128 639 q 332 694 250 694 q 491 665 418 694 q 610 576 564 635 l 489 454 q 417 507 457 492 q 340 522 378 522 q 286 512 304 522 q 268 482 268 501 q 292 449 268 461 q 353 426 315 436 q 432 403 390 417 q 511 365 474 389 q 572 302 549 342 q 596 199 596 263 q 522 42 596 100 q 321 -17 447 -17 m 232 751 l 163 853 l 383 1060 l 500 896 l 232 751 z "},"š":{"ha":636,"x_min":13,"x_max":610,"o":"m 321 -17 q 203 -1 261 -17 q 97 42 146 14 q 13 108 47 71 l 133 231 q 213 174 167 194 q 313 154 258 154 q 370 165 350 154 q 390 196 390 176 q 366 234 390 221 q 304 258 342 247 q 225 281 267 268 q 146 315 183 293 q 85 377 108 338 q 61 478 61 417 q 94 591 61 543 q 189 667 128 639 q 332 694 250 694 q 491 665 418 694 q 610 576 564 635 l 489 454 q 417 507 457 492 q 340 522 378 522 q 286 512 304 522 q 268 482 268 501 q 292 449 268 461 q 353 426 315 436 q 432 403 390 417 q 511 365 474 389 q 572 302 549 342 q 596 199 596 263 q 522 42 596 100 q 321 -17 447 -17 m 526 1039 l 596 947 l 393 746 l 271 746 l 68 947 l 138 1039 l 411 869 l 250 871 l 526 1039 z "},"ş":{"ha":636,"x_min":13,"x_max":610,"o":"m 321 -17 q 203 -1 261 -17 q 97 42 146 14 q 13 108 47 71 l 133 231 q 213 174 167 194 q 313 154 258 154 q 370 165 350 154 q 390 196 390 176 q 366 234 390 221 q 304 258 342 247 q 225 281 267 268 q 146 315 183 293 q 85 377 108 338 q 61 478 61 417 q 94 591 61 543 q 189 667 128 639 q 332 694 250 694 q 491 665 418 694 q 610 576 564 635 l 489 454 q 417 507 457 492 q 340 522 378 522 q 286 512 304 522 q 268 482 268 501 q 292 449 268 461 q 353 426 315 436 q 432 403 390 417 q 511 365 474 389 q 572 302 549 342 q 596 199 596 263 q 522 42 596 100 q 321 -17 447 -17 m 293 -299 q 198 -285 238 -299 q 119 -249 158 -272 l 185 -162 q 224 -184 203 -176 q 272 -192 246 -192 q 314 -183 301 -192 q 326 -161 326 -174 q 311 -139 326 -149 q 264 -129 296 -129 l 219 -129 l 267 18 l 386 18 l 350 -83 l 289 -35 q 431 -70 381 -33 q 482 -167 482 -107 q 431 -260 482 -222 q 293 -299 379 -299 z "},"ș":{"ha":636,"x_min":13,"x_max":610,"o":"m 321 -17 q 203 -1 261 -17 q 97 42 146 14 q 13 108 47 71 l 133 231 q 213 174 167 194 q 313 154 258 154 q 370 165 350 154 q 390 196 390 176 q 366 234 390 221 q 304 258 342 247 q 225 281 267 268 q 146 315 183 293 q 85 377 108 338 q 61 478 61 417 q 94 591 61 543 q 189 667 128 639 q 332 694 250 694 q 491 665 418 694 q 610 576 564 635 l 489 454 q 417 507 457 492 q 340 522 378 522 q 286 512 304 522 q 268 482 268 501 q 292 449 268 461 q 353 426 315 436 q 432 403 390 417 q 511 365 474 389 q 572 302 549 342 q 596 199 596 263 q 522 42 596 100 q 321 -17 447 -17 m 257 -551 l 164 -481 l 289 -308 l 354 -301 q 326 -331 342 -319 q 292 -339 310 -342 q 226 -295 253 -333 q 206 -207 199 -257 q 256 -122 214 -154 q 351 -99 297 -90 q 433 -150 401 -107 q 456 -247 465 -193 q 440 -296 453 -268 q 394 -365 426 -324 l 257 -551 z "},"ß":{"ha":822,"x_min":75,"x_max":793,"o":"m 468 -12 q 379 -1 415 -12 q 314 33 343 11 l 385 192 q 413 177 397 183 q 453 171 428 171 q 515 187 488 171 q 560 233 543 203 q 576 301 576 263 q 558 370 576 340 q 506 418 539 400 q 432 436 474 436 l 371 436 l 371 608 l 407 608 q 463 622 439 608 q 501 663 488 636 q 514 724 514 689 q 501 782 514 757 q 463 822 488 807 q 403 836 438 836 q 317 804 350 836 q 283 715 283 772 l 283 0 l 75 0 l 75 707 q 115 865 75 794 q 230 978 156 936 q 407 1021 304 1021 q 575 981 506 1021 q 682 877 644 940 q 719 740 719 814 q 683 607 719 664 q 579 519 647 550 l 571 574 q 693 517 643 557 q 768 421 743 478 q 793 292 793 364 q 770 177 793 232 q 704 79 747 122 q 601 12 661 36 q 468 -12 542 -12 z "},"t":{"ha":554,"x_min":18,"x_max":536,"o":"m 171 0 l 171 954 l 383 954 l 383 0 l 171 0 m 18 494 l 18 675 l 536 675 l 536 494 l 18 494 z "},"ť":{"ha":742,"x_min":18,"x_max":681,"o":"m 171 0 l 171 954 l 383 954 l 383 0 l 171 0 m 18 494 l 18 675 l 536 675 l 536 494 l 18 494 m 526 718 l 424 774 l 525 964 l 588 981 q 564 947 578 961 q 532 933 550 933 q 458 967 492 933 q 425 1051 425 1000 q 462 1144 425 1106 q 553 1182 499 1182 q 642 1144 604 1182 q 681 1051 681 1106 q 672 999 681 1029 q 639 924 664 969 l 526 718 z "},"ț":{"ha":554,"x_min":18,"x_max":536,"o":"m 171 0 l 171 954 l 383 954 l 383 0 l 171 0 m 18 494 l 18 675 l 536 675 l 536 494 l 18 494 m 211 -551 l 118 -481 l 243 -308 l 308 -301 q 280 -331 296 -319 q 246 -339 264 -342 q 180 -295 207 -333 q 160 -207 153 -257 q 210 -122 168 -154 q 306 -99 251 -90 q 388 -150 356 -107 q 410 -247 419 -193 q 394 -296 407 -268 q 349 -365 381 -324 l 211 -551 z "},"u":{"ha":749,"x_min":58,"x_max":690,"o":"m 375 -15 q 210 23 282 -15 q 99 128 139 61 q 58 283 58 196 l 58 675 l 271 675 l 271 286 q 283 226 271 251 q 318 188 294 201 q 375 174 342 174 q 450 203 422 174 q 478 286 478 233 l 478 675 l 690 675 l 690 285 q 650 128 690 196 q 539 23 610 61 q 375 -15 468 -15 z "},"ú":{"ha":749,"x_min":58,"x_max":690,"o":"m 375 -15 q 210 23 282 -15 q 99 128 139 61 q 58 283 58 196 l 58 675 l 271 675 l 271 286 q 283 226 271 251 q 318 188 294 201 q 375 174 342 174 q 450 203 422 174 q 478 286 478 233 l 478 675 l 690 675 l 690 285 q 650 128 690 196 q 539 23 610 61 q 375 -15 468 -15 m 275 751 l 206 853 l 426 1060 l 543 896 l 275 751 z "},"ŭ":{"ha":749,"x_min":58,"x_max":690,"o":"m 375 -15 q 210 23 282 -15 q 99 128 139 61 q 58 283 58 196 l 58 675 l 271 675 l 271 286 q 283 226 271 251 q 318 188 294 201 q 375 174 342 174 q 450 203 422 174 q 478 286 478 233 l 478 675 l 690 675 l 690 285 q 650 128 690 196 q 539 23 610 61 q 375 -15 468 -15 m 639 1001 q 604 869 639 928 q 510 775 569 810 q 376 740 451 740 q 242 775 301 740 q 147 869 182 810 q 111 1001 111 928 l 278 1001 q 305 929 278 958 q 378 900 332 900 q 426 913 406 900 q 460 949 447 926 q 474 1001 474 972 l 639 1001 z "},"û":{"ha":749,"x_min":58,"x_max":690,"o":"m 375 -15 q 210 23 282 -15 q 99 128 139 61 q 58 283 58 196 l 58 675 l 271 675 l 271 286 q 283 226 271 251 q 318 188 294 201 q 375 174 342 174 q 450 203 422 174 q 478 286 478 233 l 478 675 l 690 675 l 690 285 q 650 128 690 196 q 539 23 610 61 q 375 -15 468 -15 m 181 746 l 111 838 l 314 1039 l 436 1039 l 639 838 l 569 746 l 296 915 l 457 915 l 181 746 z "},"ü":{"ha":749,"x_min":58,"x_max":690,"o":"m 375 -15 q 210 23 282 -15 q 99 128 139 61 q 58 283 58 196 l 58 675 l 271 675 l 271 286 q 283 226 271 251 q 318 188 294 201 q 375 174 342 174 q 450 203 422 174 q 478 286 478 233 l 478 675 l 690 675 l 690 285 q 650 128 690 196 q 539 23 610 61 q 375 -15 468 -15 m 224 761 q 141 795 174 761 q 108 878 108 829 q 141 961 108 928 q 224 994 174 994 q 306 961 274 994 q 338 878 338 928 q 306 795 338 829 q 224 761 274 761 m 529 761 q 447 795 479 761 q 414 878 414 829 q 447 961 414 928 q 529 994 479 994 q 611 961 579 994 q 643 878 643 928 q 611 795 643 829 q 529 761 579 761 z "},"ù":{"ha":749,"x_min":58,"x_max":690,"o":"m 375 -15 q 210 23 282 -15 q 99 128 139 61 q 58 283 58 196 l 58 675 l 271 675 l 271 286 q 283 226 271 251 q 318 188 294 201 q 375 174 342 174 q 450 203 422 174 q 478 286 478 233 l 478 675 l 690 675 l 690 285 q 650 128 690 196 q 539 23 610 61 q 375 -15 468 -15 m 449 751 l 181 896 l 297 1060 l 518 853 l 449 751 z "},"ű":{"ha":749,"x_min":58,"x_max":693,"o":"m 375 -15 q 210 23 282 -15 q 99 129 139 61 q 58 285 58 197 l 58 675 l 271 675 l 271 286 q 283 226 271 251 q 319 188 296 201 q 375 174 343 174 q 450 203 422 174 q 478 286 478 233 l 478 675 l 690 675 l 690 285 q 650 128 690 196 q 539 23 610 61 q 375 -15 468 -15 m 194 760 l 88 824 l 201 1104 l 376 1004 l 194 760 m 511 760 l 404 824 l 518 1104 l 693 1004 l 511 760 z "},"ū":{"ha":749,"x_min":58,"x_max":690,"o":"m 375 -15 q 210 23 282 -15 q 99 128 139 61 q 58 283 58 196 l 58 675 l 271 675 l 271 286 q 283 226 271 251 q 318 188 294 201 q 375 174 342 174 q 450 203 422 174 q 478 286 478 233 l 478 675 l 690 675 l 690 285 q 650 128 690 196 q 539 23 610 61 q 375 -15 468 -15 m 108 958 l 642 958 l 642 801 l 108 801 l 108 958 z "},"ų":{"ha":749,"x_min":58,"x_max":690,"o":"m 375 -15 q 210 23 282 -15 q 99 128 139 61 q 58 283 58 196 l 58 675 l 271 675 l 271 286 q 283 226 271 251 q 318 188 294 201 q 375 174 342 174 q 450 203 422 174 q 478 286 478 233 l 478 675 l 690 675 l 690 285 q 650 128 690 196 q 539 23 610 61 q 375 -15 468 -15 m 413 -285 q 269 -247 325 -285 q 213 -131 213 -208 q 261 -9 213 -58 q 392 58 310 40 l 519 14 q 434 -34 465 -6 q 403 -104 403 -62 q 416 -142 403 -128 q 454 -156 429 -156 q 485 -150 471 -156 q 511 -137 499 -144 l 556 -249 q 494 -274 529 -264 q 413 -285 458 -285 z "},"ů":{"ha":749,"x_min":58,"x_max":690,"o":"m 375 -15 q 210 23 282 -15 q 99 128 139 61 q 58 283 58 196 l 58 675 l 271 675 l 271 286 q 283 226 271 251 q 318 188 294 201 q 375 174 342 174 q 450 203 422 174 q 478 286 478 233 l 478 675 l 690 675 l 690 285 q 650 128 690 196 q 539 23 610 61 q 375 -15 468 -15 m 376 740 q 283 764 324 740 q 217 828 242 788 q 193 919 193 868 q 217 1011 193 971 q 283 1076 242 1051 q 376 1100 324 1100 q 469 1076 428 1100 q 533 1011 510 1051 q 557 919 557 971 q 533 828 557 868 q 469 764 510 788 q 376 740 428 740 m 376 857 q 419 875 401 857 q 436 919 436 893 q 419 965 436 947 q 376 982 401 982 q 332 964 349 982 q 315 919 315 946 q 332 875 315 893 q 376 857 349 857 z "},"v":{"ha":746,"x_min":1,"x_max":744,"o":"m 288 0 l 1 675 l 231 675 l 425 113 l 325 113 l 519 675 l 744 675 l 458 0 l 288 0 z "},"w":{"ha":1090,"x_min":7,"x_max":1083,"o":"m 240 0 l 7 675 l 215 675 l 360 185 l 299 183 l 458 675 l 631 675 l 792 183 l 729 185 l 875 675 l 1083 675 l 850 0 l 676 0 l 519 467 l 572 467 l 413 0 l 240 0 z "},"ẃ":{"ha":1090,"x_min":7,"x_max":1083,"o":"m 240 0 l 7 675 l 215 675 l 360 185 l 299 183 l 458 675 l 631 675 l 792 183 l 729 185 l 875 675 l 1083 675 l 850 0 l 676 0 l 519 467 l 572 467 l 413 0 l 240 0 m 446 751 l 376 853 l 597 1060 l 714 896 l 446 751 z "},"ŵ":{"ha":1090,"x_min":7,"x_max":1083,"o":"m 240 0 l 7 675 l 215 675 l 360 185 l 299 183 l 458 675 l 631 675 l 792 183 l 729 185 l 875 675 l 1083 675 l 850 0 l 676 0 l 519 467 l 572 467 l 413 0 l 240 0 m 350 746 l 281 838 l 483 1039 l 606 1039 l 808 838 l 739 746 l 465 915 l 626 915 l 350 746 z "},"ẅ":{"ha":1090,"x_min":7,"x_max":1083,"o":"m 240 0 l 7 675 l 215 675 l 360 185 l 299 183 l 458 675 l 631 675 l 792 183 l 729 185 l 875 675 l 1083 675 l 850 0 l 676 0 l 519 467 l 572 467 l 413 0 l 240 0 m 393 761 q 310 795 343 761 q 278 878 278 829 q 310 961 278 928 q 393 994 343 994 q 475 961 443 994 q 507 878 507 928 q 475 795 507 829 q 393 761 443 761 m 699 761 q 616 795 649 761 q 583 878 583 829 q 616 961 583 928 q 699 994 649 994 q 781 961 749 994 q 813 878 813 928 q 781 795 813 829 q 699 761 749 761 z "},"ẁ":{"ha":1090,"x_min":7,"x_max":1083,"o":"m 240 0 l 7 675 l 215 675 l 360 185 l 299 183 l 458 675 l 631 675 l 792 183 l 729 185 l 875 675 l 1083 675 l 850 0 l 676 0 l 519 467 l 572 467 l 413 0 l 240 0 m 619 751 l 351 896 l 468 1060 l 689 853 l 619 751 z "},"x":{"ha":744,"x_min":7,"x_max":739,"o":"m 493 0 l 331 263 l 285 292 l 19 675 l 268 675 l 419 429 l 464 401 l 739 0 l 493 0 m 7 0 l 283 393 l 404 257 l 239 0 l 7 0 m 463 293 l 342 429 l 494 675 l 725 675 l 463 293 z "},"y":{"ha":742,"x_min":6,"x_max":736,"o":"m 283 -3 l 6 675 l 235 675 l 411 138 l 326 138 l 507 675 l 736 675 l 447 -3 l 283 -3 m 110 -285 l 313 153 l 447 -3 l 328 -285 l 110 -285 z "},"ý":{"ha":742,"x_min":6,"x_max":736,"o":"m 283 -3 l 6 675 l 235 675 l 411 138 l 326 138 l 507 675 l 736 675 l 447 -3 l 283 -3 m 110 -285 l 313 153 l 447 -3 l 328 -285 l 110 -285 m 271 751 l 201 853 l 422 1060 l 539 896 l 271 751 z "},"ŷ":{"ha":742,"x_min":6,"x_max":736,"o":"m 283 -3 l 6 675 l 235 675 l 411 138 l 326 138 l 507 675 l 736 675 l 447 -3 l 283 -3 m 110 -285 l 313 153 l 447 -3 l 328 -285 l 110 -285 m 176 746 l 107 838 l 310 1039 l 432 1039 l 635 838 l 565 746 l 292 915 l 453 915 l 176 746 z "},"ÿ":{"ha":742,"x_min":6,"x_max":736,"o":"m 283 -3 l 6 675 l 235 675 l 411 138 l 326 138 l 507 675 l 736 675 l 447 -3 l 283 -3 m 110 -285 l 313 153 l 447 -3 l 328 -285 l 110 -285 m 219 761 q 137 795 169 761 q 104 878 104 829 q 137 961 104 928 q 219 994 169 994 q 301 961 269 994 q 333 878 333 928 q 301 795 333 829 q 219 761 269 761 m 525 761 q 442 795 475 761 q 410 878 410 829 q 442 961 410 928 q 525 994 475 994 q 607 961 575 994 q 639 878 639 928 q 607 795 639 829 q 525 761 575 761 z "},"ỳ":{"ha":742,"x_min":6,"x_max":736,"o":"m 283 -3 l 6 675 l 235 675 l 411 138 l 326 138 l 507 675 l 736 675 l 447 -3 l 283 -3 m 110 -285 l 313 153 l 447 -3 l 328 -285 l 110 -285 m 444 751 l 176 896 l 293 1060 l 514 853 l 444 751 z "},"z":{"ha":668,"x_min":32,"x_max":629,"o":"m 32 125 l 371 551 l 629 551 l 290 125 l 32 125 m 32 0 l 32 125 l 183 178 l 621 178 l 621 0 l 32 0 m 57 497 l 57 675 l 629 675 l 629 551 l 479 497 l 57 497 z "},"ź":{"ha":668,"x_min":32,"x_max":629,"o":"m 32 125 l 371 551 l 629 551 l 290 125 l 32 125 m 32 0 l 32 125 l 183 178 l 621 178 l 621 0 l 32 0 m 57 497 l 57 675 l 629 675 l 629 551 l 479 497 l 57 497 m 251 751 l 182 853 l 403 1060 l 519 896 l 251 751 z "},"ž":{"ha":668,"x_min":32,"x_max":629,"o":"m 32 125 l 371 551 l 629 551 l 290 125 l 32 125 m 32 0 l 32 125 l 183 178 l 621 178 l 621 0 l 32 0 m 57 497 l 57 675 l 629 675 l 629 551 l 479 497 l 57 497 m 544 1039 l 614 947 l 411 746 l 289 746 l 86 947 l 156 1039 l 431 869 l 269 871 l 544 1039 z "},"ż":{"ha":668,"x_min":32,"x_max":629,"o":"m 32 125 l 371 551 l 629 551 l 290 125 l 32 125 m 32 0 l 32 125 l 183 178 l 621 178 l 621 0 l 32 0 m 57 497 l 57 675 l 629 675 l 629 551 l 479 497 l 57 497 m 351 761 q 269 795 301 761 q 236 878 236 829 q 269 961 236 928 q 351 994 301 994 q 433 961 401 994 q 465 878 465 928 q 433 795 465 829 q 351 761 401 761 z "},"ﬁ":{"ha":889,"x_min":13,"x_max":819,"o":"m 161 0 l 161 747 q 196 888 161 825 q 294 987 231 950 q 444 1024 357 1024 q 531 1011 492 1024 q 606 971 569 999 l 500 815 q 473 829 486 825 q 444 833 460 833 q 392 813 410 833 q 374 758 374 793 l 374 0 l 161 0 m 13 494 l 13 675 l 692 675 l 692 494 l 13 494 m 603 0 l 603 675 l 815 675 l 815 0 l 603 0 m 710 724 q 631 756 663 724 q 600 836 600 789 q 631 915 600 883 q 710 947 663 947 q 789 915 758 947 q 819 836 819 883 q 789 756 819 789 q 710 724 758 724 z "},"ﬂ":{"ha":876,"x_min":13,"x_max":801,"o":"m 161 0 l 161 726 q 198 874 161 807 q 305 983 235 942 q 472 1024 375 1024 l 472 833 q 400 804 426 833 q 374 733 374 775 l 374 0 l 161 0 m 13 494 l 13 675 l 681 675 l 681 494 l 13 494 m 589 0 l 589 1008 l 801 1008 l 801 0 l 589 0 z "},"ª":{"ha":501,"x_min":18,"x_max":460,"o":"m 213 565 q 113 592 157 565 q 43 667 68 619 q 18 776 18 715 q 43 885 18 838 q 113 961 68 933 q 213 989 157 989 q 313 957 271 989 q 360 878 354 925 l 360 676 q 313 597 354 629 q 213 565 272 565 m 243 693 q 301 717 279 693 q 324 778 324 740 q 301 838 324 814 q 244 861 279 861 q 185 838 208 861 q 163 778 163 814 q 185 717 163 740 q 243 693 208 693 m 318 574 l 318 682 l 339 782 l 318 881 l 318 981 l 460 981 l 460 574 l 318 574 z "},"º":{"ha":485,"x_min":15,"x_max":469,"o":"m 243 563 q 127 590 179 563 q 45 667 75 618 q 15 776 15 715 q 45 885 15 838 q 126 961 75 933 q 243 989 178 989 q 359 961 308 989 q 440 885 410 933 q 469 776 469 838 q 440 667 469 715 q 359 590 410 618 q 243 563 308 563 m 243 692 q 301 715 279 692 q 324 776 324 739 q 301 837 324 814 q 242 860 278 860 q 183 836 206 860 q 161 775 161 813 q 184 715 161 738 q 243 692 207 692 z "},"⁄":{"ha":961,"x_min":26,"x_max":917,"o":"m 393 440 l 472 357 l 167 -18 l 26 122 l 393 440 m 550 543 l 471 626 l 776 1001 l 917 861 l 550 543 z "},"½":{"ha":961,"x_min":26,"x_max":917,"o":"m 386 433 l 465 357 l 167 -18 l 26 122 l 386 433 m 550 550 l 471 626 l 776 1001 l 917 861 l 550 550 m 183 482 l 183 981 l 342 981 l 342 482 l 183 482 m 92 850 l 92 981 l 335 981 l 335 850 l 92 850 m 510 82 l 713 283 q 728 305 724 294 q 733 325 733 315 q 720 357 733 344 q 685 369 707 369 q 647 356 664 369 q 606 310 629 342 l 501 403 q 585 478 533 454 q 699 503 636 503 q 840 458 789 503 q 890 332 890 413 q 874 255 890 292 q 818 183 857 218 l 700 74 l 510 82 m 510 -4 l 510 82 l 643 126 l 900 126 l 900 -4 l 510 -4 z "},"¼":{"ha":965,"x_min":26,"x_max":922,"o":"m 393 433 l 472 357 l 167 -18 l 26 122 l 393 433 m 550 550 l 471 626 l 776 1001 l 917 861 l 550 550 m 183 482 l 183 981 l 342 981 l 342 482 l 183 482 m 92 850 l 92 981 l 335 981 l 335 850 l 92 850 m 503 164 l 643 494 l 806 494 l 663 164 l 503 164 m 503 79 l 503 164 l 543 210 l 922 210 l 922 79 l 503 79 m 740 -4 l 740 283 l 890 283 l 890 -4 l 740 -4 z "},"¾":{"ha":958,"x_min":26,"x_max":924,"o":"m 365 444 l 444 371 l 167 -18 l 26 122 l 365 444 m 592 540 l 513 613 l 783 1001 l 924 861 l 592 540 m 242 474 q 140 492 188 474 q 60 542 93 510 l 160 639 q 194 615 171 625 q 239 606 217 606 q 283 618 265 606 q 301 653 301 631 q 282 688 301 675 q 229 700 263 700 q 198 698 214 700 q 175 693 182 696 l 246 779 q 297 790 278 786 q 328 793 315 793 q 420 755 383 793 q 457 649 457 717 q 399 522 457 571 q 242 474 340 474 m 175 693 l 175 778 l 274 896 l 443 896 l 340 779 l 175 693 m 100 850 l 100 981 l 443 981 l 443 896 l 328 850 l 100 850 m 475 164 l 617 494 l 779 494 l 635 164 l 475 164 m 475 79 l 475 164 l 517 210 l 896 210 l 896 79 l 475 79 m 713 -4 l 713 283 l 863 283 l 863 -4 l 713 -4 z "},"¹":{"ha":369,"x_min":28,"x_max":278,"o":"m 118 482 l 118 981 l 278 981 l 278 482 l 118 482 m 28 850 l 28 981 l 271 981 l 271 850 l 28 850 z "},"²":{"ha":472,"x_min":29,"x_max":428,"o":"m 36 568 l 239 769 q 256 791 251 781 q 260 811 260 801 q 247 843 260 831 q 211 856 235 856 q 174 842 192 856 q 132 796 156 828 l 29 889 q 113 965 61 940 q 226 989 164 989 q 367 944 315 989 q 418 818 418 899 q 401 741 418 778 q 346 669 383 704 l 226 560 l 36 568 m 36 482 l 36 568 l 169 613 l 428 613 l 428 482 l 36 482 z "},"³":{"ha":464,"x_min":22,"x_max":419,"o":"m 204 474 q 103 492 150 474 q 22 542 56 510 l 122 639 q 156 615 133 625 q 201 606 179 606 q 246 618 228 606 q 264 653 264 631 q 244 688 264 675 q 192 700 225 700 q 160 698 176 700 q 138 693 144 696 l 208 779 q 259 790 240 786 q 290 793 278 793 q 383 755 346 793 q 419 649 419 717 q 361 522 419 571 q 204 474 303 474 m 138 693 l 138 778 l 236 896 l 406 896 l 303 779 l 138 693 m 63 850 l 63 981 l 406 981 l 406 896 l 290 850 l 63 850 z "},"⁴":{"ha":481,"x_min":29,"x_max":450,"o":"m 29 650 l 171 981 l 333 981 l 189 650 l 29 650 m 29 565 l 29 650 l 71 696 l 450 696 l 450 565 l 29 565 m 267 482 l 267 769 l 417 769 l 417 482 l 267 482 z "},"\r":{"ha":833,"x_min":0,"x_max":0,"o":""}," ":{"ha":264,"x_min":0,"x_max":0,"o":""}," ":{"ha":264,"x_min":0,"x_max":0,"o":""},".":{"ha":417,"x_min":82,"x_max":335,"o":"m 208 -15 q 118 22 154 -15 q 82 113 82 60 q 118 205 82 168 q 208 242 154 242 q 299 205 264 242 q 335 113 335 168 q 299 22 335 60 q 208 -15 264 -15 z "},",":{"ha":393,"x_min":75,"x_max":332,"o":"m 75 -167 l 176 22 l 239 40 q 215 6 229 19 q 183 -7 201 -7 q 110 26 143 -7 q 76 110 76 60 q 113 203 76 164 q 204 242 150 242 q 294 203 256 242 q 332 110 332 165 q 324 58 332 88 q 290 -18 315 29 l 178 -224 l 75 -167 z "},":":{"ha":403,"x_min":75,"x_max":328,"o":"m 201 -15 q 111 22 147 -15 q 75 113 75 60 q 111 205 75 168 q 201 242 147 242 q 292 205 257 242 q 328 113 328 168 q 292 22 328 60 q 201 -15 257 -15 m 201 396 q 111 433 147 396 q 75 524 75 471 q 111 616 75 579 q 201 653 147 653 q 292 616 257 653 q 328 524 328 579 q 292 433 328 471 q 201 396 257 396 z "},";":{"ha":389,"x_min":69,"x_max":328,"o":"m 69 -167 l 171 22 l 235 40 q 210 6 224 19 q 178 -7 196 -7 q 106 26 139 -7 q 72 110 72 60 q 109 203 72 164 q 200 242 146 242 q 290 203 251 242 q 328 110 328 165 q 319 58 328 88 q 285 -18 310 29 l 174 -224 l 69 -167 m 197 396 q 106 433 142 396 q 71 524 71 471 q 106 616 71 579 q 197 653 142 653 q 287 616 251 653 q 322 524 322 579 q 287 433 322 471 q 197 396 251 396 z "},"…":{"ha":1167,"x_min":82,"x_max":1085,"o":"m 583 -15 q 493 22 529 -15 q 457 113 457 60 q 493 205 457 168 q 583 242 529 242 q 674 205 639 242 q 710 113 710 168 q 674 22 710 60 q 583 -15 639 -15 m 958 -15 q 868 22 904 -15 q 832 113 832 60 q 868 205 832 168 q 958 242 904 242 q 1049 205 1014 242 q 1085 113 1085 168 q 1049 22 1085 60 q 958 -15 1014 -15 m 208 -15 q 118 22 154 -15 q 82 113 82 60 q 118 205 82 168 q 208 242 154 242 q 299 205 264 242 q 335 113 335 168 q 299 22 335 60 q 208 -15 264 -15 z "},"!":{"ha":397,"x_min":69,"x_max":322,"o":"m 117 358 l 82 1008 l 311 1008 l 276 358 l 117 358 m 196 -15 q 106 22 142 -15 q 69 113 69 60 q 106 205 69 168 q 196 242 142 242 q 287 205 251 242 q 322 113 322 168 q 287 22 322 60 q 196 -15 251 -15 z "},"¡":{"ha":399,"x_min":74,"x_max":325,"o":"m 85 -285 l 119 317 l 279 317 l 314 -285 l 85 -285 m 200 433 q 109 471 144 433 q 74 561 74 508 q 109 653 74 617 q 200 689 144 689 q 290 653 254 689 q 325 561 325 617 q 290 471 325 508 q 200 433 254 433 z "},"?":{"ha":693,"x_min":32,"x_max":647,"o":"m 278 354 l 267 621 l 326 621 q 387 633 361 621 q 427 669 413 646 q 442 724 442 692 q 428 777 442 754 q 389 812 414 800 q 331 824 364 824 q 237 794 279 824 q 168 713 194 764 l 32 840 q 153 973 74 922 q 340 1024 232 1024 q 500 986 431 1024 q 608 884 569 949 q 647 739 647 819 q 614 599 647 657 q 524 503 581 540 q 394 451 467 467 l 457 533 l 444 354 l 278 354 m 361 -15 q 270 22 306 -15 q 235 113 235 60 q 270 205 235 168 q 361 242 306 242 q 451 205 415 242 q 486 113 486 168 q 451 22 486 60 q 361 -15 415 -15 z "},"¿":{"ha":678,"x_min":47,"x_max":660,"o":"m 350 -300 q 194 -265 263 -300 q 86 -167 125 -229 q 47 -24 47 -104 q 81 110 47 53 q 173 206 114 168 q 307 260 232 244 l 238 190 l 250 319 l 417 319 l 428 104 l 368 104 q 285 76 317 104 q 253 1 253 49 q 267 -52 253 -29 q 305 -87 281 -75 q 361 -100 329 -100 q 455 -69 413 -100 q 524 11 497 -39 l 660 -115 q 539 -249 618 -197 q 350 -300 460 -300 m 333 433 q 244 471 279 433 q 208 561 208 508 q 244 653 208 617 q 333 689 279 689 q 424 653 389 689 q 460 561 460 617 q 424 471 460 508 q 333 433 389 433 z "},"·":{"ha":253,"x_min":0,"x_max":253,"o":"m 126 385 q 36 422 72 385 q 0 513 0 460 q 36 605 0 568 q 126 642 72 642 q 217 605 182 642 q 253 513 253 568 q 217 422 253 460 q 126 385 182 385 z "},"•":{"ha":488,"x_min":75,"x_max":413,"o":"m 244 344 q 156 367 194 344 q 97 428 118 389 q 75 514 75 467 q 97 599 75 560 q 156 660 118 638 q 244 683 194 683 q 331 660 293 683 q 391 599 369 638 q 413 514 413 560 q 391 428 413 467 q 331 367 369 389 q 244 344 293 344 z "},"*":{"ha":681,"x_min":44,"x_max":629,"o":"m 294 431 l 293 649 l 122 525 l 44 676 l 243 744 l 78 867 l 199 989 l 319 821 l 386 1022 l 539 943 l 415 769 l 629 768 l 601 599 l 400 665 l 465 458 l 294 431 z "},"#":{"ha":919,"x_min":49,"x_max":871,"o":"m 444 0 l 607 981 l 781 981 l 617 0 l 444 0 m 49 281 l 49 432 l 825 432 l 825 281 l 49 281 m 132 0 l 294 981 l 467 981 l 304 0 l 132 0 m 96 571 l 96 721 l 871 721 l 871 571 l 96 571 z "},"/":{"ha":533,"x_min":4,"x_max":529,"o":"m 4 -76 l 344 1049 l 529 1049 l 189 -76 l 4 -76 z "},"\\":{"ha":533,"x_min":4,"x_max":529,"o":"m 344 -76 l 4 1049 l 189 1049 l 529 -76 l 344 -76 z "},"-":{"ha":642,"x_min":75,"x_max":567,"o":"m 75 261 l 75 447 l 567 447 l 567 261 l 75 261 z "},"–":{"ha":789,"x_min":75,"x_max":714,"o":"m 75 268 l 75 440 l 714 440 l 714 268 l 75 268 z "},"—":{"ha":1204,"x_min":75,"x_max":1124,"o":"m 75 269 l 75 439 l 1124 439 l 1124 269 l 75 269 z "},"_":{"ha":701,"x_min":0,"x_max":701,"o":"m 0 -221 l 0 -54 l 701 -54 l 701 -221 l 0 -221 z "},"(":{"ha":431,"x_min":44,"x_max":410,"o":"m 293 -176 q 158 -12 214 -108 q 74 197 103 83 q 44 436 44 311 q 74 675 44 561 q 158 885 103 789 q 293 1049 214 981 l 410 936 q 274 724 321 850 q 226 436 226 597 q 274 149 226 276 q 410 -65 321 22 l 293 -176 z "},")":{"ha":431,"x_min":21,"x_max":386,"o":"m 138 -176 l 21 -65 q 157 149 110 22 q 204 436 204 276 q 157 724 204 597 q 21 936 110 850 l 138 1049 q 272 885 217 981 q 357 675 328 789 q 386 436 386 561 q 357 197 386 311 q 272 -12 328 83 q 138 -176 217 -108 z "},"{":{"ha":475,"x_min":25,"x_max":431,"o":"m 346 -133 q 163 -71 225 -133 q 113 117 101 -8 l 128 285 q 117 346 132 328 q 64 364 103 364 l 25 364 l 25 517 l 64 517 q 117 535 103 517 q 128 596 132 553 l 113 758 q 163 945 100 882 q 346 1008 225 1008 l 431 1008 l 431 853 l 378 853 q 300 829 319 853 q 286 757 281 806 l 297 619 q 292 521 303 561 q 247 454 282 481 q 144 411 211 428 l 144 464 q 247 424 211 450 q 292 358 282 399 q 297 260 303 318 l 286 118 q 301 47 282 71 q 378 22 319 22 l 431 22 l 431 -133 l 346 -133 z "},"}":{"ha":475,"x_min":38,"x_max":443,"o":"m 122 -133 l 38 -133 l 38 22 l 90 22 q 167 47 149 22 q 182 118 186 71 l 171 260 q 176 358 165 318 q 222 424 186 399 q 324 464 257 450 l 324 411 q 222 454 257 428 q 176 521 186 481 q 171 619 165 561 l 182 757 q 168 829 188 806 q 90 853 149 853 l 38 853 l 38 1008 l 122 1008 q 306 945 243 1008 q 356 758 368 882 l 340 596 q 351 535 336 553 q 404 517 365 517 l 443 517 l 443 364 l 404 364 q 351 346 365 364 q 340 285 336 328 l 356 117 q 306 -71 368 -8 q 122 -133 243 -133 z "},"[":{"ha":485,"x_min":90,"x_max":440,"o":"m 90 -133 l 90 1008 l 261 1008 l 261 -133 l 90 -133 m 175 -133 l 175 22 l 440 22 l 440 -133 l 175 -133 m 175 853 l 175 1008 l 440 1008 l 440 853 l 175 853 z "},"]":{"ha":485,"x_min":44,"x_max":394,"o":"m 224 -133 l 224 1008 l 394 1008 l 394 -133 l 224 -133 m 44 -133 l 44 22 l 310 22 l 310 -133 l 44 -133 m 44 853 l 44 1008 l 310 1008 l 310 853 l 44 853 z "},"‚":{"ha":393,"x_min":75,"x_max":332,"o":"m 75 -167 l 176 22 l 239 40 q 215 6 229 19 q 183 -7 201 -7 q 110 26 143 -7 q 76 110 76 60 q 113 203 76 164 q 204 242 150 242 q 294 203 256 242 q 332 110 332 165 q 324 58 332 88 q 290 -18 315 29 l 178 -224 l 75 -167 z "},"„":{"ha":707,"x_min":75,"x_max":646,"o":"m 388 -167 l 489 24 l 553 40 q 528 7 542 21 q 496 -7 514 -7 q 424 26 457 -7 q 390 111 390 60 q 427 203 390 165 q 518 242 464 242 q 608 203 569 242 q 646 111 646 165 q 637 59 646 89 q 603 -17 628 29 l 492 -222 l 388 -167 m 75 -167 l 176 24 l 239 40 q 215 7 229 21 q 183 -7 201 -7 q 110 26 143 -7 q 76 111 76 60 q 113 203 76 165 q 204 242 150 242 q 294 203 256 242 q 332 111 332 165 q 324 59 332 89 q 290 -17 315 29 l 178 -222 l 75 -167 z "},"“":{"ha":676,"x_min":46,"x_max":617,"o":"m 304 965 l 203 776 l 139 758 q 164 792 150 779 q 196 806 178 806 q 269 773 236 806 q 301 689 301 740 q 265 596 301 635 q 174 557 228 557 q 84 595 122 557 q 46 689 46 633 q 55 740 46 711 q 89 817 64 769 l 200 1022 l 304 965 m 617 965 l 515 776 l 453 758 q 477 792 463 779 q 508 806 492 806 q 582 773 549 806 q 615 689 615 740 q 578 596 615 635 q 488 557 542 557 q 398 595 436 557 q 360 689 360 633 q 368 740 360 711 q 401 817 376 769 l 514 1022 l 617 965 z "},"”":{"ha":676,"x_min":60,"x_max":631,"o":"m 372 586 l 474 776 l 538 793 q 513 760 526 774 q 481 746 499 746 q 408 779 442 746 q 375 864 375 813 q 412 956 375 918 q 503 994 449 994 q 592 956 554 994 q 631 864 631 918 q 622 812 631 842 q 588 736 613 782 l 476 531 l 372 586 m 60 586 l 161 776 l 224 793 q 200 760 214 774 q 168 746 186 746 q 94 779 128 746 q 61 864 61 813 q 98 956 61 918 q 189 994 135 994 q 278 956 240 994 q 317 864 317 918 q 308 812 317 842 q 275 736 300 782 l 163 531 l 60 586 z "},"‘":{"ha":363,"x_min":46,"x_max":304,"o":"m 304 965 l 203 776 l 139 758 q 164 792 150 779 q 196 806 178 806 q 269 773 236 806 q 301 689 301 740 q 265 596 301 635 q 174 557 228 557 q 84 595 122 557 q 46 689 46 633 q 55 740 46 711 q 89 817 64 769 l 200 1022 l 304 965 z "},"’":{"ha":363,"x_min":60,"x_max":317,"o":"m 60 586 l 161 776 l 224 793 q 200 760 214 774 q 168 746 186 746 q 94 779 128 746 q 61 864 61 813 q 98 956 61 918 q 189 994 135 994 q 278 956 240 994 q 317 864 317 918 q 308 812 317 842 q 275 736 300 782 l 163 531 l 60 586 z "},"«":{"ha":708,"x_min":33,"x_max":678,"o":"m 175 100 l 33 340 l 175 581 l 372 581 l 224 340 l 372 100 l 175 100 m 479 100 l 338 340 l 479 581 l 678 581 l 529 340 l 678 100 l 479 100 z "},"»":{"ha":708,"x_min":32,"x_max":676,"o":"m 336 100 l 485 340 l 336 581 l 535 581 l 676 340 l 535 100 l 336 100 m 32 100 l 181 340 l 32 581 l 229 581 l 371 340 l 229 100 l 32 100 z "},"‹":{"ha":404,"x_min":33,"x_max":372,"o":"m 175 100 l 33 340 l 175 581 l 372 581 l 224 340 l 372 100 l 175 100 z "},"›":{"ha":404,"x_min":32,"x_max":371,"o":"m 32 100 l 181 340 l 32 581 l 229 581 l 371 340 l 229 100 l 32 100 z "},"\"":{"ha":633,"x_min":74,"x_max":561,"o":"m 394 596 l 356 1008 l 561 1008 l 522 596 l 394 596 m 113 596 l 74 1008 l 279 1008 l 239 596 l 113 596 z "},"'":{"ha":347,"x_min":71,"x_max":276,"o":"m 110 596 l 71 1008 l 276 1008 l 238 596 l 110 596 z "},"✓":{"ha":1164,"x_min":25,"x_max":1139,"o":"m 376 88 l 25 435 l 160 568 l 486 244 l 403 242 l 1003 921 l 1139 785 l 503 88 l 376 88 z "},"@":{"ha":1050,"x_min":53,"x_max":997,"o":"m 531 -154 q 344 -118 431 -154 q 192 -19 257 -82 q 90 131 126 44 q 53 317 53 217 q 90 503 53 417 q 194 653 128 589 q 349 753 260 717 q 539 789 438 789 q 778 730 675 789 q 939 567 881 671 q 997 326 997 464 q 984 208 997 261 q 943 113 971 156 l 782 115 q 818 175 804 142 q 839 248 832 208 q 846 332 846 288 q 809 503 846 433 q 705 608 772 572 q 543 643 638 643 q 372 604 446 643 q 256 492 297 565 q 214 315 214 419 q 253 142 214 214 q 365 31 293 69 q 529 -8 436 -8 q 647 10 594 -8 q 742 63 699 28 l 843 -42 q 701 -126 781 -97 q 531 -154 621 -154 m 503 107 q 404 135 450 107 q 331 210 358 163 q 303 317 303 258 q 331 425 303 376 q 404 502 358 474 q 503 531 450 531 q 608 501 568 531 q 647 400 647 471 l 647 235 q 608 137 647 167 q 503 107 569 107 m 513 236 q 569 260 549 236 q 589 318 589 283 q 569 376 589 353 q 513 399 549 399 q 458 376 479 399 q 438 318 438 353 q 458 259 438 282 q 513 236 479 236 m 674 113 l 674 232 l 943 232 l 943 113 l 674 113 m 607 113 l 607 224 l 624 322 l 607 421 l 607 519 l 738 519 l 738 113 l 607 113 z "},"&":{"ha":960,"x_min":54,"x_max":956,"o":"m 707 0 l 257 494 q 181 605 204 553 q 157 719 157 657 q 195 858 157 794 q 299 959 233 921 q 453 997 365 997 q 574 977 521 997 q 665 926 626 957 q 725 860 704 894 l 583 725 q 526 782 556 763 q 456 801 496 801 q 387 777 414 801 q 360 717 360 753 q 373 663 360 686 q 411 610 386 639 l 956 0 l 707 0 m 385 -15 q 210 24 285 -15 q 95 133 136 64 q 54 286 54 201 q 103 449 54 378 q 249 565 151 521 l 339 428 q 276 376 297 408 q 256 300 256 344 q 272 237 256 264 q 318 194 288 210 q 390 179 349 179 q 472 199 438 179 q 529 256 506 219 l 672 108 q 605 49 649 78 q 505 3 561 21 q 385 -15 449 -15 z "},"¶":{"ha":997,"x_min":54,"x_max":951,"o":"m 551 357 l 385 357 q 217 394 292 357 q 98 502 142 432 q 54 668 54 572 q 98 835 54 765 q 217 942 142 904 q 385 981 292 981 l 951 981 l 951 811 l 396 811 q 322 794 356 811 q 269 746 289 778 q 250 668 250 714 q 269 592 250 624 q 322 543 289 560 q 396 526 356 526 l 551 526 l 551 357 m 600 -139 l 431 -139 l 431 981 l 600 981 l 600 -139 m 850 -139 l 681 -139 l 681 981 l 850 981 l 850 -139 z "},"§":{"ha":747,"x_min":57,"x_max":692,"o":"m 383 200 l 376 336 q 447 353 422 336 q 472 401 472 369 q 446 456 472 436 q 378 488 419 475 q 289 516 336 500 q 200 558 242 532 q 131 628 158 583 q 104 747 104 674 q 140 877 104 821 q 241 964 175 933 q 394 994 307 994 q 565 960 486 994 q 692 857 643 925 l 568 731 q 489 795 533 775 q 400 815 444 815 q 335 799 357 815 q 313 754 313 782 q 339 706 313 724 q 407 674 365 688 q 495 645 449 661 q 583 603 542 629 q 651 535 625 578 q 678 422 678 492 q 640 306 678 357 q 537 228 603 256 q 383 200 471 200 m 353 -168 q 184 -133 263 -168 q 57 -31 106 -99 l 181 96 q 258 31 214 51 q 347 11 303 11 q 414 28 392 11 q 436 72 436 44 q 410 121 436 103 q 342 152 383 139 q 253 181 300 165 q 164 223 206 197 q 96 292 122 249 q 69 404 69 335 q 107 521 69 471 q 211 599 144 571 q 365 626 278 626 l 371 490 q 301 474 326 490 q 275 425 275 457 q 302 371 275 390 q 371 339 329 351 q 460 310 413 326 q 549 269 507 294 q 617 198 590 243 q 643 79 643 153 q 608 -50 643 6 q 508 -137 572 -106 q 353 -168 443 -168 z "},"©":{"ha":1126,"x_min":63,"x_max":1064,"o":"m 564 -14 q 363 25 454 -14 q 203 133 271 64 q 99 295 136 203 q 63 493 63 388 q 99 692 63 600 q 201 851 135 783 q 360 958 268 919 q 561 997 451 997 q 765 958 672 997 q 924 851 857 919 q 1027 692 990 783 q 1064 492 1064 600 q 1027 294 1064 386 q 924 132 990 201 q 765 24 857 63 q 564 -14 674 -14 m 581 208 q 427 245 496 208 q 318 346 358 282 q 278 492 278 410 q 318 638 278 574 q 428 739 358 701 q 583 776 497 776 q 700 755 647 776 q 794 692 753 733 l 675 571 q 636 598 658 589 q 583 607 614 607 q 525 592 551 607 q 484 552 499 578 q 469 493 469 526 q 485 433 469 458 q 526 392 500 407 q 583 378 553 378 q 638 388 615 378 q 678 418 661 399 l 799 297 q 699 230 753 251 q 581 208 644 208 m 561 61 q 783 118 688 61 q 932 274 878 175 q 986 494 986 372 q 933 711 986 614 q 783 865 879 808 q 561 922 688 922 q 341 866 436 922 q 193 713 246 810 q 140 494 140 615 q 194 274 140 372 q 342 118 247 175 q 561 61 438 61 z "},"®":{"ha":758,"x_min":71,"x_max":689,"o":"m 379 371 q 219 413 289 371 q 110 526 150 454 q 71 685 71 597 q 110 842 71 772 q 218 953 149 913 q 378 994 288 994 q 540 953 469 994 q 649 841 610 911 q 689 685 689 771 q 649 525 689 596 q 540 413 610 454 q 379 371 471 371 m 275 533 l 275 843 l 343 843 l 343 533 l 275 533 m 443 533 l 346 667 l 415 675 l 524 533 l 443 533 m 378 431 q 508 464 453 431 q 596 555 564 497 q 628 685 628 613 q 596 812 628 756 q 508 902 564 868 q 378 936 453 936 q 250 902 306 936 q 163 812 194 868 q 132 685 132 756 q 163 555 132 613 q 250 464 194 497 q 378 431 306 431 m 326 661 l 326 713 l 393 713 q 424 723 413 713 q 436 750 436 733 q 424 778 436 768 q 393 789 413 789 l 326 789 l 326 843 l 400 843 q 474 817 444 843 q 503 751 503 792 q 474 686 503 711 q 399 661 444 661 l 326 661 z "},"™":{"ha":1018,"x_min":33,"x_max":985,"o":"m 188 443 l 188 926 l 297 926 l 297 443 l 188 443 m 33 839 l 33 933 l 450 933 l 450 839 l 33 839 m 481 443 l 481 933 l 558 933 l 753 633 l 713 633 l 907 933 l 985 933 l 985 443 l 875 443 l 875 750 l 894 744 l 769 549 l 696 549 l 571 744 l 589 750 l 589 443 l 481 443 z "},"°":{"ha":550,"x_min":42,"x_max":508,"o":"m 275 538 q 154 567 207 538 q 72 649 101 597 q 42 764 42 700 q 72 882 42 831 q 154 964 101 933 q 275 994 207 994 q 395 964 343 994 q 478 882 447 933 q 508 764 508 831 q 478 649 508 700 q 396 567 449 597 q 275 538 343 538 m 275 688 q 330 710 308 688 q 351 765 351 732 q 330 822 351 799 q 275 844 308 844 q 220 822 242 844 q 199 765 199 799 q 220 710 199 732 q 275 688 242 688 z "},"|":{"ha":417,"x_min":113,"x_max":304,"o":"m 113 -181 l 113 1078 l 304 1078 l 304 -181 l 113 -181 z "},"¦":{"ha":417,"x_min":113,"x_max":304,"o":"m 113 550 l 113 1078 l 304 1078 l 304 550 l 113 550 m 113 -181 l 113 347 l 304 347 l 304 -181 l 113 -181 z "},"℠":{"ha":990,"x_min":33,"x_max":957,"o":"m 218 436 q 113 456 157 436 q 33 515 69 475 l 104 586 q 157 544 128 558 q 225 529 186 529 q 279 542 260 529 q 299 576 299 554 q 286 608 299 596 q 253 630 274 621 q 207 647 232 639 q 158 666 182 656 q 113 693 133 676 q 79 735 92 710 q 67 797 67 760 q 89 874 67 842 q 150 924 111 907 q 239 942 189 942 q 334 923 292 942 q 404 874 376 904 l 333 804 q 288 838 311 826 q 238 849 265 849 q 192 838 208 849 q 175 807 175 828 q 188 777 175 789 q 221 757 200 765 q 266 740 242 749 q 315 721 290 732 q 360 693 340 710 q 393 650 381 676 q 406 586 406 624 q 356 476 406 515 q 218 436 307 436 m 453 443 l 453 933 l 531 933 l 725 633 l 685 633 l 879 933 l 957 933 l 957 443 l 847 443 l 847 750 l 867 744 l 742 549 l 668 549 l 543 744 l 561 750 l 561 443 l 453 443 z "},"¢":{"ha":717,"x_min":43,"x_max":682,"o":"m 414 138 q 225 183 310 138 q 92 310 140 229 q 43 490 43 390 q 92 672 43 592 q 226 797 142 751 q 417 843 311 843 q 562 816 496 843 q 679 735 628 789 l 543 599 q 488 638 519 625 q 417 650 457 650 q 335 630 371 650 q 280 574 300 610 q 260 492 260 539 q 280 408 260 444 q 336 351 300 372 q 417 331 372 331 q 491 345 458 331 q 547 386 524 360 l 682 250 q 563 166 629 194 q 414 138 496 138 m 324 14 l 324 967 l 476 967 l 476 14 l 324 14 z "},"¤":{"ha":835,"x_min":72,"x_max":761,"o":"m 418 204 q 260 242 331 204 q 150 344 190 279 q 110 490 110 408 q 150 637 110 572 q 260 739 190 701 q 417 776 329 776 q 575 739 506 776 q 685 637 644 701 q 725 490 725 572 q 685 344 725 410 q 576 242 644 279 q 418 204 507 204 m 181 146 l 72 254 l 218 400 l 326 292 l 181 146 m 417 383 q 472 397 449 383 q 509 433 496 410 q 522 490 522 457 q 508 547 522 524 q 472 584 494 571 q 417 597 449 597 q 363 583 388 597 q 326 545 339 569 q 313 489 313 521 q 326 434 313 458 q 363 397 339 410 q 417 383 388 383 m 654 146 l 507 292 l 615 400 l 761 254 l 654 146 m 218 581 l 72 726 l 181 835 l 326 689 l 218 581 m 615 581 l 507 689 l 654 835 l 761 726 l 615 581 z "},"$":{"ha":838,"x_min":50,"x_max":772,"o":"m 403 -15 q 204 24 289 -15 q 50 144 119 64 l 188 285 q 289 198 233 229 q 417 167 344 167 q 522 192 485 167 q 560 265 560 218 q 535 331 560 306 q 471 374 511 356 q 382 408 431 392 q 285 447 333 425 q 197 501 238 468 q 132 583 157 533 q 107 707 107 632 q 151 863 107 797 q 271 962 194 928 q 446 996 347 996 q 625 960 542 996 q 761 861 708 924 l 624 721 q 537 791 581 767 q 442 815 493 815 q 349 793 382 815 q 315 728 315 771 q 340 667 315 690 q 406 628 365 644 q 495 594 447 611 q 592 556 543 578 q 681 499 640 533 q 747 413 722 465 q 772 285 772 361 q 674 65 772 144 q 403 -15 576 -15 m 357 -140 l 357 1121 l 510 1121 l 510 -140 l 357 -140 z "},"€":{"ha":992,"x_min":-4,"x_max":946,"o":"m 583 -15 q 387 23 476 -15 q 230 131 297 61 q 126 292 163 200 q 89 492 89 385 q 126 691 89 599 q 229 851 163 783 q 385 958 296 919 q 582 996 475 996 q 783 958 694 996 q 939 856 871 921 l 793 708 q 702 776 754 751 q 579 800 650 800 q 438 762 499 800 q 344 654 378 724 q 311 492 311 585 q 345 328 311 399 q 440 220 379 258 q 583 182 501 182 q 706 206 653 182 q 799 272 758 229 l 946 125 q 787 22 875 60 q 583 -15 699 -15 m -4 532 l -4 664 l 664 664 l 631 532 l -4 532 m -4 310 l -4 442 l 614 442 l 581 310 l -4 310 z "},"£":{"ha":874,"x_min":76,"x_max":815,"o":"m 208 0 l 208 682 q 251 854 208 781 q 369 968 293 928 q 539 1008 444 1008 q 705 971 635 1008 q 815 874 775 933 l 678 736 q 623 794 651 775 q 549 814 594 814 q 485 798 513 814 q 442 753 457 782 q 426 685 426 725 l 426 0 l 208 0 m 76 0 l 76 192 l 789 192 l 789 0 l 76 0 m 76 401 l 76 561 l 669 561 l 669 401 l 76 401 z "},"¥":{"ha":933,"x_min":64,"x_max":869,"o":"m 386 358 l 64 981 l 301 981 l 529 467 l 408 467 l 636 981 l 869 981 l 544 358 l 386 358 m 358 0 l 358 451 l 578 451 l 578 0 l 358 0 m 324 664 l 360 532 l 90 532 l 90 664 l 324 664 m 90 310 l 90 442 l 843 442 l 843 310 l 90 310 m 593 532 l 643 664 l 843 664 l 843 532 l 593 532 z "},"∕":{"ha":533,"x_min":4,"x_max":529,"o":"m 4 -76 l 344 1049 l 529 1049 l 189 -76 l 4 -76 z "},"+":{"ha":782,"x_min":68,"x_max":714,"o":"m 68 376 l 68 553 l 714 553 l 714 376 l 68 376 m 301 804 l 482 804 l 482 128 l 301 128 l 301 804 z "},"−":{"ha":782,"x_min":68,"x_max":714,"o":"m 68 376 l 68 553 l 714 553 l 714 376 l 68 376 z "},"×":{"ha":782,"x_min":67,"x_max":718,"o":"m 194 140 l 67 268 l 590 790 l 718 664 l 194 140 m 578 150 l 76 651 l 204 779 l 706 278 l 578 150 z "},"÷":{"ha":782,"x_min":68,"x_max":714,"o":"m 68 376 l 68 553 l 714 553 l 714 376 l 68 376 m 392 610 q 313 642 344 610 q 281 722 281 675 q 313 802 281 769 q 392 835 344 835 q 472 802 440 835 q 503 722 503 769 q 472 642 503 675 q 392 610 440 610 m 392 96 q 313 128 344 96 q 281 208 281 161 q 313 290 281 257 q 392 322 344 322 q 472 290 440 322 q 503 208 503 257 q 472 128 503 161 q 392 96 440 96 z "},"=":{"ha":782,"x_min":68,"x_max":714,"o":"m 68 540 l 68 717 l 714 717 l 714 540 l 68 540 m 68 207 l 68 383 l 714 383 l 714 207 l 68 207 z "},">":{"ha":782,"x_min":67,"x_max":715,"o":"m 67 618 l 67 811 l 715 539 l 715 393 l 67 121 l 67 313 l 560 507 l 560 424 l 67 618 z "},"<":{"ha":782,"x_min":67,"x_max":715,"o":"m 715 121 l 67 393 l 67 539 l 715 811 l 715 618 l 224 424 l 224 507 l 715 313 l 715 121 z "},"±":{"ha":782,"x_min":68,"x_max":714,"o":"m 68 481 l 68 657 l 714 657 l 714 481 l 68 481 m 301 804 l 482 804 l 482 336 l 301 336 l 301 804 m 68 113 l 68 289 l 714 289 l 714 113 l 68 113 z "},"~":{"ha":782,"x_min":44,"x_max":739,"o":"m 510 367 q 434 378 465 367 q 378 403 403 389 q 329 429 353 418 q 274 440 306 440 q 209 425 238 440 q 154 378 181 410 l 44 489 q 148 586 93 554 q 271 618 203 618 q 344 607 313 618 q 400 582 375 596 q 450 557 425 568 q 507 546 475 546 q 572 560 542 546 q 629 607 601 574 l 739 496 q 633 399 689 431 q 510 367 578 367 z "},"¬":{"ha":782,"x_min":68,"x_max":714,"o":"m 68 453 l 68 629 l 714 629 l 714 453 l 68 453 m 533 596 l 714 596 l 714 239 l 533 239 l 533 596 z "},"^":{"ha":647,"x_min":47,"x_max":601,"o":"m 438 628 l 285 918 l 364 918 l 211 628 l 47 628 l 258 1008 l 389 1008 l 601 628 l 438 628 z "},"µ":{"ha":824,"x_min":113,"x_max":746,"o":"m 113 -271 l 113 675 l 325 675 l 325 -271 l 113 -271 m 476 -14 q 296 63 356 -14 q 236 258 236 139 l 325 289 q 357 200 325 226 q 431 174 389 174 q 503 200 472 174 q 533 289 533 226 l 533 675 l 746 675 l 746 257 q 710 117 746 178 q 615 21 675 56 q 476 -14 554 -14 z "},"%":{"ha":951,"x_min":46,"x_max":906,"o":"m 85 0 l 672 981 l 867 981 l 279 0 l 85 0 m 699 -14 q 595 14 642 -14 q 521 88 549 42 q 493 192 493 135 q 521 295 493 250 q 594 368 549 340 q 697 396 640 396 q 803 368 757 396 q 878 295 850 340 q 906 192 906 250 q 878 88 906 135 q 803 13 850 40 q 699 -14 757 -14 m 699 131 q 742 147 725 131 q 758 192 758 164 q 742 234 758 217 q 699 251 725 251 q 657 234 674 251 q 640 192 640 217 q 657 147 640 164 q 699 131 674 131 m 251 586 q 148 613 194 586 q 74 687 101 640 q 46 792 46 733 q 74 894 46 849 q 147 967 101 940 q 250 994 193 994 q 356 967 310 994 q 431 894 403 940 q 458 792 458 849 q 431 687 458 733 q 356 613 403 640 q 251 586 310 586 m 251 731 q 294 747 278 731 q 311 790 311 764 q 294 833 311 817 q 251 850 278 850 q 210 833 226 850 q 193 790 193 817 q 210 747 193 764 q 251 731 226 731 z "},"↑":{"ha":914,"x_min":94,"x_max":821,"o":"m 364 667 l 550 667 l 550 38 l 364 38 l 364 667 m 821 278 l 457 642 l 94 278 l 94 539 l 457 903 l 821 539 l 821 278 z "},"↗":{"ha":914,"x_min":94,"x_max":821,"o":"m 589 731 l 719 600 l 228 107 l 94 238 l 589 731 m 640 138 l 638 649 l 126 651 l 307 833 l 821 833 l 821 319 l 640 138 z "},"→":{"ha":914,"x_min":25,"x_max":890,"o":"m 654 563 l 654 376 l 25 376 l 25 563 l 654 563 m 265 107 l 629 469 l 265 833 l 526 833 l 890 469 l 526 107 l 265 107 z "},"↘":{"ha":914,"x_min":94,"x_max":821,"o":"m 719 339 l 588 208 l 94 700 l 226 833 l 719 339 m 126 288 l 636 290 l 639 801 l 821 621 l 821 107 l 307 107 l 126 288 z "},"↓":{"ha":914,"x_min":94,"x_max":821,"o":"m 550 274 l 364 274 l 364 901 l 550 901 l 550 274 m 94 661 l 457 299 l 821 661 l 821 400 l 457 38 l 94 400 l 94 661 z "},"↙":{"ha":914,"x_min":94,"x_max":821,"o":"m 328 208 l 196 340 l 689 833 l 821 701 l 328 208 m 275 801 l 279 292 l 790 289 l 608 107 l 94 107 l 94 621 l 275 801 z "},"←":{"ha":914,"x_min":25,"x_max":889,"o":"m 261 376 l 261 563 l 889 563 l 889 376 l 261 376 m 649 833 l 286 469 l 649 107 l 388 107 l 25 469 l 388 833 l 649 833 z "},"↖":{"ha":914,"x_min":94,"x_max":821,"o":"m 197 600 l 328 732 l 821 239 l 690 107 l 197 600 m 790 653 l 279 649 l 276 138 l 94 319 l 94 833 l 608 833 l 790 653 z "},"̈":{"ha":0,"x_min":76,"x_max":611,"o":"m 192 761 q 109 795 142 761 q 76 878 76 829 q 109 961 76 928 q 192 994 142 994 q 274 961 242 994 q 306 878 306 928 q 274 795 306 829 q 192 761 242 761 m 497 761 q 415 795 447 761 q 382 878 382 829 q 415 961 382 928 q 497 994 447 994 q 579 961 547 994 q 611 878 611 928 q 579 795 611 829 q 497 761 547 761 z "},"̇":{"ha":0,"x_min":125,"x_max":354,"o":"m 240 761 q 158 795 190 761 q 125 878 125 829 q 158 961 125 928 q 240 994 190 994 q 322 961 290 994 q 354 878 354 928 q 322 795 354 829 q 240 761 290 761 z "},"̀":{"ha":0,"x_min":56,"x_max":393,"o":"m 324 751 l 56 896 l 172 1060 l 393 853 l 324 751 z "},"́":{"ha":0,"x_min":56,"x_max":393,"o":"m 125 751 l 56 853 l 276 1060 l 393 896 l 125 751 z "},"̋":{"ha":0,"x_min":56,"x_max":661,"o":"m 163 724 l 56 788 l 169 1068 l 344 968 l 163 724 m 479 724 l 372 788 l 486 1068 l 661 968 l 479 724 z "},"̂":{"ha":0,"x_min":56,"x_max":583,"o":"m 125 746 l 56 838 l 258 1039 l 381 1039 l 583 838 l 514 746 l 240 915 l 401 915 l 125 746 z "},"̌":{"ha":0,"x_min":56,"x_max":583,"o":"m 514 1039 l 583 947 l 381 746 l 258 746 l 56 947 l 125 1039 l 400 869 l 239 871 l 514 1039 z "},"̆":{"ha":0,"x_min":56,"x_max":583,"o":"m 583 1001 q 549 869 583 928 q 455 775 514 810 q 321 740 396 740 q 186 775 246 740 q 91 869 126 810 q 56 1001 56 928 l 222 1001 q 249 929 222 958 q 322 900 276 900 q 371 913 350 900 q 405 949 392 926 q 418 1001 418 972 l 583 1001 z "},"̊":{"ha":0,"x_min":56,"x_max":419,"o":"m 239 740 q 145 764 186 740 q 80 828 104 788 q 56 919 56 868 q 80 1011 56 971 q 145 1076 104 1051 q 239 1100 186 1100 q 331 1076 290 1100 q 396 1011 372 1051 q 419 919 419 971 q 396 828 419 868 q 331 764 372 788 q 239 740 290 740 m 239 857 q 281 875 264 857 q 299 919 299 893 q 281 965 299 947 q 239 982 264 982 q 194 964 211 982 q 178 919 178 946 q 194 875 178 893 q 239 857 211 857 z "},"̃":{"ha":0,"x_min":56,"x_max":639,"o":"m 449 753 q 372 768 404 753 q 312 799 339 783 q 253 814 285 814 q 199 801 221 814 q 157 761 176 788 l 56 861 q 141 950 96 921 q 246 979 186 979 q 323 964 290 979 q 383 933 356 949 q 442 917 411 917 q 497 930 475 917 q 538 971 519 943 l 639 869 q 553 782 599 811 q 449 753 508 753 z "},"̄":{"ha":0,"x_min":56,"x_max":589,"o":"m 56 958 l 589 958 l 589 801 l 56 801 l 56 958 z "},"̒":{"ha":0,"x_min":36,"x_max":338,"o":"m 338 1115 l 211 943 l 146 935 q 176 965 160 954 q 208 974 192 975 q 276 929 249 967 q 294 842 303 892 q 245 756 286 789 q 150 732 204 724 q 67 783 99 740 q 44 881 36 826 q 61 931 49 903 q 106 1000 74 958 l 244 1186 l 338 1115 z "},"̦":{"ha":0,"x_min":38,"x_max":339,"o":"m 131 -551 l 38 -481 l 163 -308 l 228 -301 q 199 -331 215 -319 q 165 -339 183 -342 q 99 -295 126 -333 q 79 -207 72 -257 q 129 -122 88 -154 q 225 -99 171 -90 q 307 -150 275 -107 q 329 -247 339 -193 q 313 -296 326 -268 q 268 -365 300 -324 l 131 -551 z "},"̧":{"ha":0,"x_min":28,"x_max":390,"o":"m 201 -299 q 106 -285 146 -299 q 28 -249 67 -272 l 93 -162 q 133 -184 111 -176 q 181 -192 154 -192 q 222 -183 210 -192 q 235 -161 235 -174 q 219 -139 235 -149 q 172 -129 204 -129 l 128 -129 l 175 18 l 294 18 l 258 -83 l 197 -35 q 340 -70 289 -33 q 390 -167 390 -107 q 339 -260 390 -222 q 201 -299 288 -299 z "},"̨":{"ha":0,"x_min":56,"x_max":399,"o":"m 256 -299 q 112 -260 168 -299 q 56 -144 56 -222 q 104 -23 56 -72 q 235 44 153 26 l 363 0 q 277 -48 308 -19 q 246 -118 246 -76 q 259 -156 246 -142 q 297 -169 272 -169 q 328 -164 314 -169 q 354 -151 342 -158 l 399 -262 q 337 -288 372 -278 q 256 -299 301 -299 z "},"¨":{"ha":688,"x_min":76,"x_max":611,"o":"m 192 761 q 109 795 142 761 q 76 878 76 829 q 109 961 76 928 q 192 994 142 994 q 274 961 242 994 q 306 878 306 928 q 274 795 306 829 q 192 761 242 761 m 497 761 q 415 795 447 761 q 382 878 382 829 q 415 961 382 928 q 497 994 447 994 q 579 961 547 994 q 611 878 611 928 q 579 795 611 829 q 497 761 547 761 z "},"˙":{"ha":479,"x_min":125,"x_max":354,"o":"m 240 761 q 158 795 190 761 q 125 878 125 829 q 158 961 125 928 q 240 994 190 994 q 322 961 290 994 q 354 878 354 928 q 322 795 354 829 q 240 761 290 761 z "},"`":{"ha":449,"x_min":56,"x_max":393,"o":"m 324 751 l 56 896 l 172 1060 l 393 853 l 324 751 z "},"´":{"ha":449,"x_min":56,"x_max":393,"o":"m 125 751 l 56 853 l 276 1060 l 393 896 l 125 751 z "},"˝":{"ha":717,"x_min":56,"x_max":661,"o":"m 163 724 l 56 788 l 169 1068 l 344 968 l 163 724 m 479 724 l 372 788 l 486 1068 l 661 968 l 479 724 z "},"ˆ":{"ha":639,"x_min":56,"x_max":583,"o":"m 125 746 l 56 838 l 258 1039 l 381 1039 l 583 838 l 514 746 l 240 915 l 401 915 l 125 746 z "},"ˇ":{"ha":639,"x_min":56,"x_max":583,"o":"m 514 1039 l 583 947 l 381 746 l 258 746 l 56 947 l 125 1039 l 400 869 l 239 871 l 514 1039 z "},"˘":{"ha":639,"x_min":56,"x_max":583,"o":"m 583 1001 q 549 869 583 928 q 455 775 514 810 q 321 740 396 740 q 186 775 246 740 q 91 869 126 810 q 56 1001 56 928 l 222 1001 q 249 929 222 958 q 322 900 276 900 q 371 913 350 900 q 405 949 392 926 q 418 1001 418 972 l 583 1001 z "},"˚":{"ha":475,"x_min":56,"x_max":419,"o":"m 239 740 q 145 764 186 740 q 80 828 104 788 q 56 919 56 868 q 80 1011 56 971 q 145 1076 104 1051 q 239 1100 186 1100 q 331 1076 290 1100 q 396 1011 372 1051 q 419 919 419 971 q 396 828 419 868 q 331 764 372 788 q 239 740 290 740 m 239 857 q 281 875 264 857 q 299 919 299 893 q 281 965 299 947 q 239 982 264 982 q 194 964 211 982 q 178 919 178 946 q 194 875 178 893 q 239 857 211 857 z "},"˜":{"ha":694,"x_min":56,"x_max":639,"o":"m 449 753 q 372 768 404 753 q 312 799 339 783 q 253 814 285 814 q 199 801 221 814 q 157 761 176 788 l 56 861 q 141 950 96 921 q 246 979 186 979 q 323 964 290 979 q 383 933 356 949 q 442 917 411 917 q 497 930 475 917 q 538 971 519 943 l 639 869 q 553 782 599 811 q 449 753 508 753 z "},"¯":{"ha":644,"x_min":56,"x_max":589,"o":"m 56 958 l 589 958 l 589 801 l 56 801 l 56 958 z "},"¸":{"ha":422,"x_min":28,"x_max":390,"o":"m 201 -299 q 106 -285 146 -299 q 28 -249 67 -272 l 93 -162 q 133 -184 111 -176 q 181 -192 154 -192 q 222 -183 210 -192 q 235 -161 235 -174 q 219 -139 235 -149 q 172 -129 204 -129 l 128 -129 l 175 18 l 294 18 l 258 -83 l 197 -35 q 340 -70 289 -33 q 390 -167 390 -107 q 339 -260 390 -222 q 201 -299 288 -299 z "},"˛":{"ha":454,"x_min":56,"x_max":399,"o":"m 256 -299 q 112 -260 168 -299 q 56 -144 56 -222 q 104 -23 56 -72 q 235 44 153 26 l 363 0 q 277 -48 308 -19 q 246 -118 246 -76 q 259 -156 246 -142 q 297 -169 272 -169 q 328 -164 314 -169 q 354 -151 342 -158 l 399 -262 q 337 -288 372 -278 q 256 -299 301 -299 z "},"ʼ":{"ha":375,"x_min":44,"x_max":329,"o":"m 44 614 l 171 804 l 236 821 q 213 788 226 801 q 181 774 199 774 q 107 807 140 774 q 74 892 74 840 q 110 984 74 946 q 203 1022 147 1022 q 292 985 256 1022 q 329 893 329 947 q 320 839 329 869 q 282 764 311 808 l 147 558 l 44 614 z "}}}
